<svg xmlns="http://www.w3.org/2000/svg" xmlns:xlink="http://www.w3.org/1999/xlink" width="599" height="598" viewBox="0 0 599 598">
  <defs>
    <clipPath id="clip-path">
      <rect id="Rectangle_253" data-name="Rectangle 253" width="599" height="598" transform="translate(159 376)" fill="none" stroke="#707070" stroke-width="1"/>
    </clipPath>
    <clipPath id="clip-path-2">
      <rect id="Rectangle_237" data-name="Rectangle 237" width="599.627" height="327.224" fill="none"/>
    </clipPath>
  </defs>
  <g id="Group_348" data-name="Group 348" transform="translate(-159 -376)">
    <g id="Mask_Group_1" data-name="Mask Group 1" clip-path="url(#clip-path)">
      <rect id="Rectangle_235" data-name="Rectangle 235" width="598.534" height="598.534" transform="translate(159.546 375.957)" fill="#fad84c"/>
      <rect id="Rectangle_236" data-name="Rectangle 236" width="599.627" height="299.224" transform="translate(159 376)" fill="#00cbff"/>
      <g id="Group_324" data-name="Group 324" transform="translate(159 348)">
        <g id="Group_323" data-name="Group 323" clip-path="url(#clip-path-2)">
          <path id="Path_455" data-name="Path 455" d="M5145.3,1920.579c-30.253,0-30.253,24.47-60.5,24.47s-30.255-24.47-60.509-24.47-30.254,24.47-60.506,24.47-30.251-24.47-60.5-24.47-30.249,24.47-60.5,24.47-30.248-24.47-60.5-24.47-30.244,24.47-60.489,24.47-30.251-24.47-60.5-24.47-30.251,24.47-60.5,24.47-30.25-24.47-60.5-24.47v430.472h605" transform="translate(-4543.222 -1753.596)" fill="#f25625"/>
        </g>
      </g>
      <text id="CLIMATE_JUSTICE" data-name="CLIMATE
JUSTICE" transform="translate(222.191 666.464)" fill="#00cbff" font-size="72" font-family="BTFormanova-Black, BT Formanova" font-weight="800"><tspan x="0" y="0">CLIMATE</tspan><tspan fill="#f25625"><tspan x="0" y="66">JUSTICE</tspan></tspan></text>
      <g id="Group_325" data-name="Group 325" transform="translate(617.473 921.364)">
        <path id="Path_456" data-name="Path 456" d="M4775.223,2138.965a.838.838,0,0,1,.27.156c.136,0,.264.174.394.174,0,.059.269.138.322.138,0,.033.111.051.146.051a1,1,0,0,1,.35.138c.242.018.358.11.578.138,0,.069.425.1.425.138a11.38,11.38,0,0,0,1.241.123,3.831,3.831,0,0,1,.442-.038c.143,0,.255.071.419.024s.26.017.412.023c.174.008.316-.048.466-.048.185,0,.249-.077.431-.1.152-.012.273-.089.433-.089,0-.1.425-.051.425-.123.083,0,.147-.055.247-.067.037-.006.229-.034.229-.071a1.447,1.447,0,0,0,.323-.136c.113-.012.158-.034.241.043s.071.268.1.369a4.151,4.151,0,0,1-.07.622c0,.237.019.51.019.771s-.041.459-.051.736c.022,0,.032.158.067.188.05.1.021.154.014.247-.016.162.174.2.259.29l.118.051c0,.036.1.068.136.068l.376.122a.408.408,0,0,0,.182.126c.029.012.122.025.122.063.057,0,.03.032.077.043.2.06,1.076-.428,1.167-.474.033-.17.177-.285.191-.5s.081-.385.081-.594c0-.077.027-.631-.036-.631a1.34,1.34,0,0,0-.039-.356.952.952,0,0,1,.006-.267c.032,0,.051-.157.051-.195a2.693,2.693,0,0,1,.04-.289c.009-.158-.006-.257-.006-.415.022,0,.049-.156.049-.189a1.6,1.6,0,0,0,.105-.432,2.376,2.376,0,0,1,.067-.277c.061,0-.009-.312.051-.312l.051-.139c0-.086.04-.152.05-.258.027-.207.112-.282.094-.49a2.273,2.273,0,0,1,.147-.357c0-.156.1-.294.1-.415.037,0,.091-.144.1-.189.051,0,.061-.227.1-.227l.086-.17a.387.387,0,0,1,.1-.174.282.282,0,0,0,.069-.156.364.364,0,0,0,.119-.211,1.012,1.012,0,0,0,.063-.464,1.692,1.692,0,0,1-.062-.344,1.112,1.112,0,0,1-.119-.347c-.047,0-.058-.361-.1-.361a1.136,1.136,0,0,0-.121-.4c-.075-.037-.081-.154-.151-.189-.025-.1-.073-.168-.1-.288a.352.352,0,0,0-.139-.217c-.056-.038-.108-.077-.163-.117-.03,0-.154,0-.154-.036a3.35,3.35,0,0,1-.375-.084c-.089,0-.111-.036-.2-.036,0-.036-.262-.01-.311-.026a.462.462,0,0,0-.248.034.827.827,0,0,1-.288.033.377.377,0,0,0-.243.012l-.155.067a1.374,1.374,0,0,0-.39.069c-.039.016-.27.071-.27.071-.055,0-.563.061-.563.067-.1,0-.148.034-.245.038-.146.01-.3.016-.442.025-.185.008-.3.077-.469.077s-.291.083-.482.093c-.051,0-.284,0-.284.045l-.17.049c-.11.014-.6.036-.6.14-.077,0-.124.036-.231.04-.128.006-.257.03-.363.03,0,.053-.426.1-.492.1,0,.02-.271.026-.317.046-.1.04-.274.075-.34.161a.66.66,0,0,0-.142.241.165.165,0,0,0-.071.14c-.089,0-.089.363-.152.363,0,.093-.027.245-.033.361l-.052.182a.964.964,0,0,1-.035.243c-.023.09,0,.112,0,.2a1.958,1.958,0,0,1,.219.483c.069,0,.118.223.154.259.057.06.057.134.126.191.041.034.057.087.111.087.028.054.038.012.066.067.065,0,.092.054.189.048.114-.01.157.04.27.008.087-.024,1.193-.208,1.193-.247a3.713,3.713,0,0,1,.457-.049c0-.048.295-.05.358-.054,0-.023.167-.051.205-.051,0-.045.491-.032.491-.087.054,0,.237-.008.237-.051.083,0,.188-.018.29-.018,0-.049.355-.071.355-.121.164-.01.288-.036.438-.045.1-.008.134.032.228.063.049.062.068.413,0,.413a.665.665,0,0,1-.162.383,1.264,1.264,0,0,0-.22.208c-.049.063-.134.083-.182.154l-.339.156c-.146.038-.218.1-.388.154-.126.042-.174.129-.3.15l-.373.06a3.22,3.22,0,0,0-.713.136c-.048,0-.647.106-.647.02-.253,0-.486-.069-.742-.069a3.468,3.468,0,0,0-.494-.034c-.08.012-.395-.011-.395-.071a3.466,3.466,0,0,0-.446-.146c-.147-.012-.292-.03-.437-.046,0-.057-.223-.033-.223-.1-.045-.008-.511-.154-.511-.154-.136,0-.226-.1-.392-.123,0-.021-.325-.1-.375-.164l-.136-.128a.346.346,0,0,0-.065-.138,1.179,1.179,0,0,1-.188-.539c-.024-.093-.048-.671.017-.671a1.129,1.129,0,0,1,.1-.363c0-.062.068-.133.068-.192.081-.04.056-.148.135-.189a.228.228,0,0,1,.087-.154c.014-.081.083-.127.083-.19.032,0,.075-.152.12-.175,0-.093.151-.128.151-.221a.4.4,0,0,0,.144-.255c.022-.115.2-.16.2-.267a.214.214,0,0,0,.1-.174.4.4,0,0,0,.12-.154c.093,0,.18-.186.255-.241a.5.5,0,0,1,.152-.253l.086-.128c0-.1.168-.2.228-.274.046-.063.146-.081.146-.173.061-.032.04-.081.1-.123,0-.028.033-.012.051-.054.067,0,.186-.158.241-.207,0-.083.117-.152.186-.206,0-.086.211-.241.272-.312.079,0,.162-.123.221-.189.089-.1.172-.158.259-.253a.6.6,0,0,1,.271-.215,1.239,1.239,0,0,1,.509-.415,1.95,1.95,0,0,1,.22-.223l.154-.071c.1,0,.153-.077.257-.1.032-.054.128-.141.185-.141a.983.983,0,0,0,.253-.156c.042-.04.222-.073.222-.121.077-.025.128-.069.189-.069l.161-.085c.092-.025.144-.113.237-.13.061-.014.123-.079.18-.079.065-.1.146-.057.258-.036.033.077.146.062.209.141.083.1.264.25.264.363l.154.313c.095.045.105.343.17.343a.293.293,0,0,0,.1.207c0,.083.119.109.119.192.056.025.071.1.139.128a.858.858,0,0,0,.241.051,3.815,3.815,0,0,0,.438-.059c0-.06.417-.129.5-.2s.136-.15.217-.215l.068-.138a2.9,2.9,0,0,1,.073-.33,2.057,2.057,0,0,0-.023-.291c-.067,0-.071-.345-.1-.345,0-.051-.09-.4-.154-.4-.017-.209-.1-.4-.1-.588-.03,0-.095-.271-.17-.31a1.094,1.094,0,0,0-.318-.439,4.069,4.069,0,0,0-.612-.527,1.018,1.018,0,0,0-.294-.107c0-.021-.162-.051-.193-.051a4.429,4.429,0,0,1-.511-.106,1.421,1.421,0,0,0-.257.018c-.156,0-.312-.006-.467-.012-.053,0-.29,0-.29.049a.784.784,0,0,0-.308.052c0,.025-.116.059-.152.069,0,.042-.171.05-.171.085-.069.016-.194.049-.221.1a.5.5,0,0,0-.188.12c-.081.084-.271.095-.357.225a.509.509,0,0,0-.219.172c-.081,0-.127.128-.17.173-.083.085-.224.1-.307.191-.041.04-.012.044-.068.1a.891.891,0,0,0-.128.126.167.167,0,0,1-.111.068c-.043.055-.067.1-.136.122a.3.3,0,0,1-.171.123c-.161.193-.807.71-.835.758a.69.69,0,0,0-.2.121.214.214,0,0,0-.151.069c-.118.029-.627.663-.753.738a.5.5,0,0,0-.183.144c-.064,0-.223.142-.223.208-.051.025-.026.067-.084.067,0,.029-.031.012-.05.053-.077,0-.116.118-.166.16a.629.629,0,0,0-.193.308c-.047,0-.268.375-.323.431l-.05.1c-.051.042-.081.057-.1.121-.073.027-.086.124-.152.158a1.417,1.417,0,0,1-.221.241c0,.069-.1.1-.1.156-.077.04-.083.15-.17.207,0,.1-.154.13-.154.225-.108.058-.128.265-.253.33-.037.152-.188.274-.188.415-.067,0-.137.4-.141.466-.012.134-.1.508-.1.535-.053,0-.085.344-.085.4-.019,0,.054,1.939.054,2.142.007,0,.027.336.031.371l.059.117c.022.077.046.152.061.231a3.206,3.206,0,0,0,.1.423l.105.171.1.172c0,.083.042.128.117.193.019.034.112.118.154.118.041.051.138.174.2.174.036.071.174.167.239.241" transform="translate(-4773.993 -2126.412)" fill="#42bd5c"/>
        <path id="Path_457" data-name="Path 457" d="M4794.583,2134.563a1.483,1.483,0,0,0-.147-.525l-.083-.417c-.015-.125-.051-.177-.061-.282-.011-.188-.094-.231-.12-.391a2.166,2.166,0,0,0-.162-.363c-.031-.1-.089-.15-.12-.241a.383.383,0,0,0-.134-.189c0-.138-.235-.2-.35-.2-.172,0-.338.043-.508.043-.146,0-.42.024-.485.158-.069.016-.543.1-.681.119,0,.038-.371.071-.409.071a1.864,1.864,0,0,0-.322.034c0,.022-.14.053-.171.053a2.057,2.057,0,0,1-.63.034,2.954,2.954,0,0,1-.318-.029c-.041,0-.175-.054-.175-.091-.2-.167-.134-.383-.068-.608a1.211,1.211,0,0,1,.085-.308.376.376,0,0,0,.17-.189,1.562,1.562,0,0,0,.324-.208c.069-.008.341-.016.341-.071.058,0,.083-.034.135-.034,0-.033.2-.031.238-.033,0-.05.187-.034.187-.089.126,0,.175-.067.308-.067,0-.036.28-.089.336-.091.078,0,.393-.01.393-.1.091,0,.158-.071.259-.071.126,0,.189-.069.346-.069.128,0,.205-.052.351-.052s.318-.051.469-.051c.1,0,.176-.051.3-.051s.239-.089.352-.089c0-.006.443-.085.5-.085.128,0,.2-.065.31-.075.063,0,.348-.029.348-.081a.572.572,0,0,0,.271-.112c.119-.077.152-.1.152-.245,0-.092.042-.042.069-.126.066-.047.056-.081.058-.164s.02-.193-.058-.235l-.1-.19a1.875,1.875,0,0,0-.085-.326c-.061,0-.111-.312-.187-.312a2.517,2.517,0,0,0-.085-.363c-.02,0-.077-.119-.085-.156l-.1-.156a.471.471,0,0,1-.172-.241,1.207,1.207,0,0,1-.205-.243c-.105-.027-.13-.113-.237-.138,0-.087-.43-.049-.491-.045a3.894,3.894,0,0,1-.63.045c-.181,0-.324.051-.512.051l-.209.069a1.663,1.663,0,0,1-.354.063,1.107,1.107,0,0,0-.222.049,2.107,2.107,0,0,1-.432.112c-.079,0-.146.036-.229.036a.491.491,0,0,0-.221.051c-.075.026-.529.087-.529.154-.026,0-1.094.258-1.217.271-.091.011-.14.061-.234.053-.152-.01-.186-.012-.321-.012-.038,0-.215.042-.215.069a2.314,2.314,0,0,0-.579.174c-.2.067-.319.225-.537.235a1.664,1.664,0,0,0-.45.025.907.907,0,0,0-.352.253c-.039.04-.108.069-.108.124a.331.331,0,0,0-.116.1c-.105,0-.168.193-.239.241l-.1.225a1.865,1.865,0,0,1-.029.332,3.052,3.052,0,0,0-.007.557,1.359,1.359,0,0,0,.071.6.6.6,0,0,0,.152.186c0,.028-.022.137.018.137,0,.071.12.146.152.227s.118.053.118.156l.052.1a.529.529,0,0,1,.221.535c-.06,0-.054.4-.1.4-.03.184-.126.288-.17.468l-.1.189c-.025,0-.052.1-.089.123a.269.269,0,0,1-.064.136.239.239,0,0,1-.085.156c0,.178-.107.291-.143.462a4.119,4.119,0,0,0-.217.887c0,.083-.05.126-.05.2,0,.1-.017.235-.017.355a4.307,4.307,0,0,1-.051.47,1.846,1.846,0,0,0,.016.431c0,.115.035.144.035.241.081,0,.021.656.085.656,0,.134.1.28.1.417.041,0,.071.284.152.328l.051.121c0,.128.006.017.025.112a.183.183,0,0,0,.077.13c0,.093.152.129.152.225.055.026.014.04.069.07,0,.059.057.083.1.12.02.043.169.1.169.1.034.023.059.086.069.086,0,.089.03.107.085.172.05,0,.158.095.186.138a.377.377,0,0,1,.188.123c.093,0,.133.138.223.138a.369.369,0,0,0,.2.138c0,.04.3.154.342.154,0,.119.441.058.441.158.125.018.212.05.324.067,0,.049.137.022.137.071a1.291,1.291,0,0,1,.407.121c.032.012.341.1.341.1.146,0,.324.114.472.128.108.01.178.036.292.047a.461.461,0,0,0,.274.052,4.437,4.437,0,0,0,1.238-.342c.079,0,.427-.241.427-.42.085-.043.035-.146.122-.187,0-.054.05-.4.085-.4a1.383,1.383,0,0,1,.05-.378c0-.1.016-.2.016-.276.02,0,.047-.127.043-.164,0-.055-.083-.424-.075-.424a1.584,1.584,0,0,0-.3-.622c-.051-.046-.261-.385-.332-.45l-.122-.123a.251.251,0,0,0-.189-.079c-.065-.008-.123.012-.208.012-.064,0-.1.051-.159.051-.046.065-.289.162-.289.225-.059.006-.306.045-.306.087-.14,0-.3.041-.478.051-.044.014-.323.116-.323.016-.109,0-.169-.033-.256-.033,0-.079-.475-.081-.475-.121-.087-.018-.375-.1-.375-.158l-.152-.067c-.065,0-.127-.087-.188-.087-.13-.162-.2-.241-.144-.468.026-.085,0-.166.061-.241a.4.4,0,0,0,.15-.206.307.307,0,0,1,.188-.1c0-.061.151-.033.151-.086.075,0,.139-.036.241-.036a1.952,1.952,0,0,0,.2-.042c.12-.012.251-.01.371-.01.091,0,.188-.032.28-.04a1.483,1.483,0,0,0,.409-.1c.213,0,.324-.069.562-.087a5.219,5.219,0,0,1,.68-.051c.137,0,.233-.04.34-.028s.228.008.314.008c.2,0,.392-.052.617-.052a1.4,1.4,0,0,0,.393-.085,2.474,2.474,0,0,0,.335-.043c.032-.008.146-.062.146-.079.11-.02.223-.022.288-.121a.278.278,0,0,0,.249-.269" transform="translate(-4762.317 -2125.976)" fill="#42bd5c"/>
        <path id="Path_458" data-name="Path 458" d="M4791.2,2133.54l-.052.172c0,.1-.018.207-.018.278-.049,0-.1.379-.1.45-.059,0-.1.33-.1.413-.024.306-.152.575-.162.883a5.635,5.635,0,0,1-.062.57,1.135,1.135,0,0,0,.023.466s.065.486.065.535a1.628,1.628,0,0,1,.136.45l.085.138c.062.029.019.058.087.1,0,.051.027.055.065.087,0,.1.172.136.223.189a.521.521,0,0,1,.118.208c.066,0,.123.345.2.345,0,.079.069.133.069.209.035.03.147.172.147.172l.056.138c0,.087.064.087.085.172.089.027.147.175.221.175.037.075.183.081.272.1,0,.043.3.111.373.121,0,.047.3.047.357.052l.172.094c.079.014.162.042.243.05s.126.047.182.047a.449.449,0,0,0,.385.132.242.242,0,0,1,.22.014c.1.049.136.025.229.021.033,0,.205-.029.205,0,.058,0,.027.034.085.034.063.083.582-.045.706-.059.1-.014.963-.14,1.081-.146a1.173,1.173,0,0,0,.271-.071c0-.049.316-.136.365-.148.177-.04.34-.089.4-.267.146-.049.217-.253.243-.391l.063-.179c.007-.131.028-.251.043-.363a1.015,1.015,0,0,0,.04-.362c0-.108-.023-.636-.134-.69,0-.1-.14-.259-.142-.32s-.071-.126-.1-.2-.066-.059-.066-.153c0-.072,0-.087-.051-.135a1.2,1.2,0,0,1-.171-.175.363.363,0,0,1-.066-.158c-.158-.051-.192-.215-.371-.182-.034.008-.192.059-.192.061a.315.315,0,0,0-.17.1c-.082,0-.106.12-.186.12-.04.05-.13.156-.187.156-.041.083-.307.051-.307.121-.068,0-.41.01-.41.089-.074,0,.017.016-.083.016,0,.04-.128.012-.151.01-.043,0-.15-.027-.173-.025,0,.061-1.02.067-1.02-.036-.089,0-.233-.069-.341-.069,0-.042-.279-.084-.322-.084,0-.032-.25-.121-.3-.141-.059-.12-.172-.158-.189-.3a.761.761,0,0,1,.037-.389c.048-.1.166-.123.2-.249.034-.01.117-.061.117-.1h.205c.083,0,.137-.034.222-.034,0-.069.439-.058.439-.123a1.866,1.866,0,0,0,.421,0c.065-.014.133-.026.2-.036s.069-.045.1-.045c0,.073.58-.02.58-.02.033,0,.17-.022.17-.052a9.429,9.429,0,0,0,1.462-.207c.03,0,.435-.073.576-.085,0-.036.154-.033.154-.087a2.048,2.048,0,0,0,.239-.053c.18-.029.249-.134.431-.146a1.421,1.421,0,0,0,.315-.079c0-.049.137-.022.137-.067.089,0,.342-.073.342-.191a.43.43,0,0,0,.172-.31c.065,0-.046-.537.031-.537v-.274c0-.081-.031-.16-.031-.243l-.07-.156a.2.2,0,0,1-.086-.156c-.046,0-.1-.345-.187-.345a.733.733,0,0,0-.222-.43c0-.05-.07-.123-.107-.156-.061-.052-.064-.093-.121-.138s-.019-.045-.1-.071c-.057-.014-.114-.012-.142-.067l-.154-.087c-.071,0-.108-.043-.183-.037s-.175.071-.228.071c0,.043-.257.106-.3.121a.36.36,0,0,1-.171.1c-.057.089-.163.075-.271.087,0,.047-.288.084-.288.138a1.958,1.958,0,0,1-.444.1,4.215,4.215,0,0,1-.883.172c0,.065-.514.051-.514.087a1.7,1.7,0,0,1-.274.02c-.13-.014-.146-.106-.251-.158,0-.1-.024-.217.085-.3a.413.413,0,0,0,.118-.18.613.613,0,0,0,.168-.308l.071-.229.172-.138c.047-.069.1-.1.145-.156s.066-.036.091-.085a.324.324,0,0,0,.189-.121c.068,0,.112-.1.193-.116s.124-.058.2-.058c0-.033.146-.087.187-.087a6.12,6.12,0,0,1,1.073-.156c.409,0,.794-.085,1.216-.085.046,0,.211-.065.211-.035.049,0,.256.007.256-.036l.136-.051c.077,0,.172-.034.247-.034.055,0,.819-.162.926-.148a2.475,2.475,0,0,0,.632-.04.423.423,0,0,0,.184-.073,1.585,1.585,0,0,0,.216-.922,2.047,2.047,0,0,0-.162-.321.136.136,0,0,0-.069-.1.336.336,0,0,0-.049-.123.341.341,0,0,1-.087-.154.9.9,0,0,1-.307-.555,3.348,3.348,0,0,1-.308-.28c-.058-.049-.09-.1-.168-.1,0-.042-.035.01-.035-.034-.158,0-.266-.1-.407-.1a3.56,3.56,0,0,0-.786-.038,1.408,1.408,0,0,1-.363.055c-.1,0-.158.034-.246.034l-.22.051c-.106,0-.145.034-.222.034,0,.1-.437.071-.509.071,0,.034-.2.061-.256.071l-.119.065a3,3,0,0,1-.546.1c0,.063-.42.086-.493.086,0,.077-.458.036-.458.087a1.465,1.465,0,0,1-.326.065.943.943,0,0,0-.277.03,5.5,5.5,0,0,1-.57.079c0,.032-.213.067-.255.067,0,.061-.171.051-.171.086-.024,0-.084-.053-.084,0-.133,0-.01.018-.121.018a4.5,4.5,0,0,1-.594.276.48.48,0,0,0-.221.148c-.058.065-.133.088-.187.146a1.116,1.116,0,0,1-.1.12c0,.058-.03.036-.042.095a1.371,1.371,0,0,0-.016.342,4.312,4.312,0,0,1-.046.636,1.785,1.785,0,0,1-.152.483l-.09.261a2.388,2.388,0,0,1-.146.379c-.025.075-.1.162-.1.225-.048.023-.079.189-.121.189-.011.081-.064.136-.064.207-.06.028-.093.225-.12.225-.05.154-.188.3-.188.45a2.8,2.8,0,0,0-.134.413c-.053,0-.087.444-.087.514a2.386,2.386,0,0,1-.085.438" transform="translate(-4757.724 -2125.859)" fill="#42bd5c"/>
        <path id="Path_459" data-name="Path 459" d="M4814.492,2134.159c.044,0,.29-.081.29-.122.085,0,.11-.032.178-.087.037-.029,1.473-1.186,1.556-1.2.036-.006.172-.059.172-.077.065,0,.122-.067.2-.085.03-.11.055-.1.121-.1-.012.056-.05.413-.087.413,0,.06-.048.115-.065.174a2.082,2.082,0,0,0-.123.381c-.055,0-.089.31-.149.31l-.071.156c0,.071-.033.09-.049.171-.065.036-.069.15-.069.225l-.052.191c-.043,0-.054.346-.118.346l-.137.45c0,.152-.1.3-.11.474a1.788,1.788,0,0,1-.095.441c0,.042-.01.24-.033.24a2.09,2.09,0,0,1-.015.391,1.627,1.627,0,0,0,0,.492,1.057,1.057,0,0,0,0,.355,3.823,3.823,0,0,1,.083.518c0,.071.067.6.137.6l.085.157c0,.072.066.115.085.188.064.034.021.089.085.123.014.065.051.067.051.121.077.04.115.166.192.237.1.086.171.369.335.369.04.079.172.142.237.223.089,0,.12.14.205.14a.383.383,0,0,0,.221.137l.188.1c0,.053.219.067.256.136l.149.089a1.746,1.746,0,0,0,.19.051c0,.057.361.1.435.112a2.5,2.5,0,0,0,.4.1c0,.042.243.033.29.033.124,0,.245.045.371.052s.274.009.411.016a4.5,4.5,0,0,0,.7.037c0-.053.137-.006.137-.053a1.158,1.158,0,0,0,.421-.052,1.749,1.749,0,0,1,.328-.121c.049-.1.373-.134.373-.189.08,0,.313-.067.361-.156.064-.018.205-.075.234-.138l.12-.052a.378.378,0,0,0,.188-.112c.061-.075.271-.209.271-.3.079-.041.133-.2.164-.294a3.464,3.464,0,0,1,.056-.381c0-.029.057-.517,0-.517,0-.1.023-.744-.051-.744,0-.13-.083-.219-.117-.379-.035,0-.094-.209-.1-.259-.062-.034-.087-.128-.143-.173-.1-.079-.2-.231-.333-.219a2.147,2.147,0,0,0-.477.1,1.847,1.847,0,0,0-.321.123c-.115,0-.218.122-.324.122-.07.093-.116.089-.238.1l-.154.051c0,.045-.152.028-.152.071-.118.016-.132.06-.239.087,0,.031-.151.077-.187.087,0,.031-.239.051-.282.065a2.127,2.127,0,0,1-.771.11,1.8,1.8,0,0,1-.509-.09c-.081,0-.1-.067-.172-.067-.03-.045-.139-.14-.188-.14a.341.341,0,0,0-.221-.138.846.846,0,0,0-.152-.164c-.043-.031-.134-.233-.171-.233a2.175,2.175,0,0,1,0-.276,2.515,2.515,0,0,0,.171-.208c.06,0,.042-.053.1-.053.03-.06.1-.06.154-.081a1.417,1.417,0,0,1,.4-.146c.252-.012.379-.065.612-.065.209,0,2.878-.417,3.027-.411s.946-.146,1.229-.18a2.911,2.911,0,0,1,.367-.032l.211-.069c.081,0,.132-.052.215-.052l.15-.086c0-.032.233-.132.273-.186a.409.409,0,0,0,.1-.229l.069-.156c.038,0,.1-.189.1-.243.071,0,0-.612,0-.673,0,0-.122-.31-.126-.346a1.865,1.865,0,0,0-.129-.363c-.035-.14-.1-.271-.152-.43-.057,0-.066-.209-.119-.209,0-.1-.167-.205-.243-.239a1.008,1.008,0,0,0-.421-.122c0,.038-.17.1-.2.154a.448.448,0,0,0-.187.1l-.134.067a.264.264,0,0,1-.183.1,2.007,2.007,0,0,0-.349.162,1.306,1.306,0,0,0-.288.087c0,.042-.22.063-.271.071,0,.071-.529.081-.529.1-.049,0-.254-.01-.254.034a1.475,1.475,0,0,0-.371.031,3.072,3.072,0,0,1-.76.073c-.081,0-.571.079-.571,0a.285.285,0,0,1-.2-.138c-.049-.016-.1-.036-.152-.051,0-.063-.012-.126-.018-.189.018,0,.054-.166.1-.191,0-.056.105-.174.154-.206a.18.18,0,0,1,.085-.123c.02-.084.043-.065.067-.14.016,0,.074-.1.085-.136a.4.4,0,0,1,.134-.189c0-.085.115-.126.156-.209.068,0,.1-.086.168-.086,0-.026.138-.052.172-.052,0-.061.388-.108.388-.136.055,0,.275-.014.275-.054.079,0,.14-.067.226-.079s.59-.051.59-.13a1.26,1.26,0,0,0,.408-.1c.219-.034.313-.1.51-.11.053,0,.238-.024.238-.061.087,0,.2-.028.306-.034,0-.049.38-.108.452-.112.214-.014.378-.113.554-.113,0-.063.424-.02.424-.087a3.5,3.5,0,0,0,.807-.152c.059-.02.521-.067.521-.071.172,0,.319-.1.476-.1a1.2,1.2,0,0,1,.29-.156l.2-.156a.7.7,0,0,0,.1-.346c.009-.113,0-.434,0-.468.05,0-.056-.827-.154-.827-.009-.042-.137-.387-.146-.464a4.49,4.49,0,0,0-.275-.7l-.088-.061c-.1,0-.179-.085-.256-.172-.075,0-.125-.1-.2-.1,0-.05-.153-.052-.207-.052,0-.051-.576.091-.576.085-.081,0-.123.054-.206.054,0,.049-.242.063-.288.069,0,.021-1.021.247-1.021.294-.1,0-2.483.586-2.483.638-.028,0-.684.191-.833.191a2.5,2.5,0,0,1-.578.067,3.675,3.675,0,0,0-.442.1,1.555,1.555,0,0,0-.427.087c-.114.04-.34.134-.34.292l-.049.125c-.081.065-.1.13-.154.188s-.033.123-.1.156c0,.067-.059.144-.071.233s0,.118-.068.173-.047.1-.1.13c0,.034-.018.136-.049.136-.03.184-.129.25-.154.432a1.4,1.4,0,0,0-.1.346.851.851,0,0,0-.139.312c-.025,0-.1.14-.1.174-.079.038-.079.158-.152.208,0,.075-.069.09-.069.171-.074.038-.064.154-.136.189,0,.085-.138.186-.205.243,0,.057-.089.13-.144.152-.294.124-.194-.31-.143-.466.029-.087.029-.549.083-.549v-.33c0-.079-.034-.16-.034-.241,0-.156-.068-.33-.068-.5,0-.061-.052-.312-.117-.312a2.121,2.121,0,0,0-.075-.3c-.007-.029-.007-.132-.045-.132-.018-.069-.069-.079-.069-.138a.387.387,0,0,1-.134-.241c-.046-.023-.02-.069-.052-.069,0-.077-.051-.056-.051-.123-.127-.085-.122-.3-.257-.363,0-.073-.141-.19-.2-.223,0-.085-.169-.144-.169-.192-.038,0-.289-.1-.289-.136-.043-.012-.339-.063-.339-.069-.075-.025-.16-.1-.223-.1a6.111,6.111,0,0,0-.81-.164c-.2-.005-.283-.061-.471-.061-.118,0-.764-.114-.843-.106-.053,0-.089-.031-.138-.031,0-.018-1.318-.075-1.439-.081-.1,0-1.059-.006-1.147-.006a12.285,12.285,0,0,0-2.278.192,2.337,2.337,0,0,1-.6.138s-.411.089-.442.154c-.077,0-.172.162-.188.225a6.911,6.911,0,0,1-.72.189c-.107.036-.2.193-.275.277-.051.057-.126.132-.126.209l-.087.138c-.067.049-.079.132-.176.146-.145.015-.282-.225-.282-.328,0-.083-.033-.182-.033-.268l-.05-.121a.176.176,0,0,1-.086-.123c-.048-.038-.121-.073-.121-.138-.037-.018-.033-.067-.065-.067,0-.055-.068-.089-.1-.13a.673.673,0,0,0-.491-.25c-.038-.075-.187-.1-.257-.1,0-.031-.22,0-.255,0a1.011,1.011,0,0,0-.45.279.493.493,0,0,0-.144.31c-.058,0,.023.274-.034.274,0,.267-.033.443-.018.711a.86.86,0,0,0-.018.4c.058.115.016.169,0,.292-.063,0-.085.33-.085.413a2.49,2.49,0,0,0-.068.588,2.645,2.645,0,0,0-.053.622c0,.073-.039.76-.049.76,0,.095-.041.164-.008.276.01.042.075.26.008.26a3.259,3.259,0,0,1-.087.638c0,.1,0,.235,0,.364.038,0-.018.092-.024.128-.015.089-.066.186-.092.3-.044,0,.006.034-.036.034-.043.067-.059.057-.136.053-.19,0-.231-.26-.357-.346,0-.079-.2-.243-.255-.294a.4.4,0,0,0-.134-.208c0-.092-.209-.23-.272-.294,0-.049-.081-.146-.121-.18-.075-.065-.138-.211-.221-.25l-.067-.123c0-.186-.3-.3-.356-.486-.03-.089-.137-.166-.137-.241-.077-.057-.077-.15-.151-.19l-.105-.171a.3.3,0,0,0-.1-.225c0-.067-.126-.142-.118-.211,0-.038.049-.2,0-.2a.751.751,0,0,0-.1-.294,1.8,1.8,0,0,1,0-.571s-.027-.511-.033-.571c-.012-.18-.016-.355-.016-.537-.042,0-.038-.2-.038-.245,0-.1.024-.652-.1-.652,0-.047-.092-.225-.152-.225a.214.214,0,0,0-.17-.086c0-.049-.272-.069-.272-.139-.123-.031-.194-.134-.308-.173a1.073,1.073,0,0,0-.318-.065c-.087,0-.616-.1-.616.014a.624.624,0,0,0-.205.069c-.083.03-.117.069-.188.069,0,.025-.149.109-.185.156-.065,0-.095.1-.154.1,0,.042-.213.4-.2.4,0,.156-.068.3-.068.44,0,.223-.073.407-.062.64a1.154,1.154,0,0,1,.006.227c-.008.091-.047.148-.047.213a1.077,1.077,0,0,0,.019.588c0,.043.072.274.1.274.018.263.036.507.071.778.01.083-.035.191-.035.282,0,.132,0,.269-.01.4a2.765,2.765,0,0,1-.026.381,1.731,1.731,0,0,0-.031.426,1.327,1.327,0,0,1-.021.427c-.036.138-.067.278-.1.418a3.07,3.07,0,0,0-.1.638,4.783,4.783,0,0,1-.137.586c0,.164-.1.332-.1.486-.067,0-.04.415-.1.415,0,.355-.141.515-.166.859a5.5,5.5,0,0,1-.108.766c-.036,0-.049.119-.049.154-.036,0-.032.282-.036.33.025,0-.047.4-.041.466a.958.958,0,0,1,.017.268.927.927,0,0,0-.051.265,1.384,1.384,0,0,1,.039.357,1.291,1.291,0,0,0-.023.265c0,.138.085.2.1.335.02.15.016.292.127.385.041.038.051.095.1.095.051.075.105.067.188.087.059.117.493.1.493.138.113,0,.219.018.336.018.089,0,.624.057.674.071.244.059.236-.189.387-.261a1.166,1.166,0,0,1,.1-.278c0-.083.053-.108.053-.189.035,0,.047-.28.051-.33a1.283,1.283,0,0,0,.1-.379v-.418c0-.257.054-.395.054-.671a2.283,2.283,0,0,0-.021-.432c.071,0,.014-.448.085-.448a.887.887,0,0,1,.1-.259c0-.182.122-.407.122-.57a5.813,5.813,0,0,0,.147-.673c.04,0,.054-.255.054-.294,0-.059-.021-.11.033-.138,0-.055.052-.042.052-.087.066,0,.044-.051.119-.051,0-.038.063-.04.089-.046a.154.154,0,0,1,.154.03c.047.029.047.067.1.067a1.352,1.352,0,0,0,.237.259c0,.1.17.143.17.243.055.028.049.174.087.174a.622.622,0,0,0,.118.237c.064.109.045.2.151.288a.3.3,0,0,1,.1.182l.051.1.134.182c.06.075.137.085.137.18a.558.558,0,0,1,.139.209c.071.036.08.136.153.188.021.1.135.142.135.225.071,0,.079.241.154.278a.327.327,0,0,0,.134.189c.035.1.095.16.122.261a1.627,1.627,0,0,1,.1.258c.039,0,.122.3.122.346.042,0,.055.379.1.379v.5c.028,0,.057.227.065.278a.747.747,0,0,1,.117.277c.066,0,.042.258.1.258a.235.235,0,0,0,.087.146c.087.065.142.184.229.261a1.329,1.329,0,0,1,.213.231,1.608,1.608,0,0,0,.468.089l.885,0c.095,0,.151-.056.229-.056l.222-.138c0-.083.117-.148.117-.225l.055-.154.118-.312c.038,0,.1-.357.1-.415a3.319,3.319,0,0,0,.081-.675c.006-.136.006-.3.006-.4,0-.067-.034-.121-.034-.189,0-.217-.035-.521-.035-.736-.056,0-.091-.337-.1-.423a3.831,3.831,0,0,1,.041-.683,4.949,4.949,0,0,0,.034-.748c-.012-.184.057-.284.057-.452,0-.121.034-.235.034-.373.029,0,0-.3,0-.346,0-.132,0-.269.014-.4a2.728,2.728,0,0,0,.062-.345c0-.144-.008-.282-.008-.425a.991.991,0,0,1-.008-.257,3.643,3.643,0,0,0,.008-.8c.033-.122-.017-.257.018-.379a.847.847,0,0,0,.021-.211c.01-.2-.018-.348-.008-.551.008-.18-.218-.252-.158-.46a.934.934,0,0,0,.071-.273.334.334,0,0,1,.077-.264c.082-.069.151-.051.284-.04a1.64,1.64,0,0,0,.272.276c.1,0,.233.1.349.1.036,0,.533.1.533.054.089-.008.463-.045.463-.1a.294.294,0,0,0,.221-.121c.032,0,.17-.079.17-.1.128,0,.249-.158.365-.158.077,0,.115-.051.2-.051,0-.042.219-.04.27-.042a1.035,1.035,0,0,0,.348-.04.488.488,0,0,1,.249-.021c0,.029.174.061.221.069l.164.206c-.03.3-.046.608-.057.912a1.578,1.578,0,0,1-.011.446c-.042.1-.1.209-.131.3-.055.028-.019.043-.075.077a.7.7,0,0,0-.146.146,1.144,1.144,0,0,1-.271.071c0,.032-.19.067-.245.061a.516.516,0,0,0-.283.025c-.107.036-.357.186-.357.31-.056,0-.073.277-.119.277,0,.053-.244,1.364-.221,1.364l.1.312c.006.091.069.284.16.328.02.068.1.174.168.174.027.038.1.189.12.189,0,.083.146.148.2.207.062.075.157.11.212.191.077,0,.134.1.2.1,0,0,.238.117.271.137a6.21,6.21,0,0,1-.019.707,2.151,2.151,0,0,0-.046.245c-.085,0-.054.7-.054.786,0,.066-.038.105-.043.192s.027.136.027.217a3.394,3.394,0,0,0-.049.672c.012.04-.079.778-.019.778.011.087.022.171.032.258.083.028.075.419.136.45a.76.76,0,0,0,.357.363c.04.079.138.069.188.119s.124.065.152.123l.138.087a.675.675,0,0,0,.234.069,2.131,2.131,0,0,0,.6-.069c.033,0,.188-.006.188-.054.055,0,.114-.067.17-.067a.754.754,0,0,1,.168-.148l.086-.113a1.305,1.305,0,0,0,.02-.187c0-.087.1-.784.1-.821a1.1,1.1,0,0,1,.008-.247.637.637,0,0,0,.008-.265,3.542,3.542,0,0,1,.035-.622c.014,0,.036-.654.036-.727.064,0,.1-.379.1-.448.073,0,.067-.675.087-.675,0-.073.021-.4.088-.4.025-.211.061-.383.076-.6a1.481,1.481,0,0,1,.094-.281c.045-.025.026-.087.064-.087.056-.067.065-.1.156-.113a5.638,5.638,0,0,0,.712-.164c0-.057.258-.087.258-.138a.83.83,0,0,0,.2-.071c0-.027.2-.061.241-.069,0-.042.318-.121.373-.121l.188-.084a.408.408,0,0,1,.14-.135l.081-.073.167-.018c0-.051.173-.022.173-.069m-.394-3.231-.167.12a.4.4,0,0,1-.221.137.225.225,0,0,1-.138.088.152.152,0,0,1-.136.069c0,.024-.17.095-.2.1a.631.631,0,0,1-.342.186,1.352,1.352,0,0,1-.408.108c0,.057-.239.053-.286.053a.447.447,0,0,1-.309-.073c-.033-.049-.052-.04-.052-.086-.067-.043-.022-.071-.084-.1-.012-.063-.04-.349-.085-.349a1.4,1.4,0,0,0-.1-.446c0-.042-.015-.243-.035-.243,0-.077.007-.154.013-.233s-.031-.119-.027-.211c0-.13.008-.281.158-.308a2.1,2.1,0,0,1,.385-.025,1.034,1.034,0,0,1,.236,0c0,.042.187.029.187.071.128,0,.2.016.324.016.078,0,.146.034.221.034.1,0,.234.027.357.035l.194.061c.13.018.22.095.335.095,0,.087.347.077.42.193.03.052.1.306,0,.306a.724.724,0,0,1-.239.4" transform="translate(-4752.674 -2126.115)" fill="#42bd5c"/>
        <path id="Path_460" data-name="Path 460" d="M4813.248,2133.1a.658.658,0,0,1-.189.3c-.071.065-.154.191-.233.191-.029.061-.077.04-.118.1-.087.02-.111.065-.17.133s-.176.138-.223.229c-.009.1-.022.2-.041.3a1.532,1.532,0,0,0,.008.3c0,.094-.034.144-.034.213-.067,0-.075.413-.17.413,0,.042-.031.192-.067.192-.014.081-.068.144-.068.207-.056,0-.062.292-.137.292,0,.146-.14.288-.187.434a.569.569,0,0,0-.186.31.515.515,0,0,0-.17.225.321.321,0,0,0-.087.171c-.075.062-.079.123-.152.174l-.068.12c0,.16-.171.289-.2.437-.052.217-.111.346-.152.515-.053,0-.034.267-.034.328-.033,0-.045.125-.043.168a5.6,5.6,0,0,0,.093.559c.037,0,.093.365.188.413,0,.071.106.111.152.174a9.1,9.1,0,0,1,1.026.531c.12.106.251-.081.352-.117a2.953,2.953,0,0,1,.272-.249c.042-.04.1-.069.1-.132.028,0,.012-.032.049-.049.048-.144.121-.237.173-.379.057-.032.041-.081.1-.123.023-.089.047-.069.069-.156.047,0,.229-.588.271-.588a2.105,2.105,0,0,1,.052-.225l.066-.171c.063-.03.059-.112.119-.156,0-.069.067-.108.067-.172a.583.583,0,0,0,.1-.171c.021,0,.106-.223.141-.259.092-.1.2-.189.284-.3.072,0,.122-.05.205-.07l.118-.069c0-.067.355-.069.355-.1.067-.008.514-.117.514-.121.121,0,.232-.069.373-.069l.332-.1c.225,0,.521,0,.772,0,0-.038.595-.061.595.033a.475.475,0,0,1,.306.387,4.031,4.031,0,0,1-.021.691,3.241,3.241,0,0,0-.024.614,3.9,3.9,0,0,0,.063.936c.008.168-.006.486.151.571,0,.071.1.134.121.207a.947.947,0,0,1,.193.206.553.553,0,0,0,.365.156c0,.047.225.116.278.128a.591.591,0,0,0,.217.033c.026,0,.135-.045.135-.005.079,0-.014.018.087.018,0,.036.23.018.271.018,0-.03.136-.042.136-.087a.736.736,0,0,0,.211-.166.864.864,0,0,0,.188-.346c.014-.069.079-.215.079-.266.071-.047.087-.16.1-.239s-.015-.521.04-.521c0-.279-.036-.559-.036-.857,0-.239-.086-.482-.094-.725-.01-.281.049-.559.062-.839a1.529,1.529,0,0,0,.136-.415c.025.006.042-.012.036-.051h.149c.05.051.1.1.143.156s.045.11.114.154c0,.059.035.03.035.087.139.1.152.28.286.381a.931.931,0,0,0,.291.4c.029.055.07.028.1.071,0,.055.043.069.083.1.021.085.053.086.108.15.128.148.277.209.4.369.152.038.265.206.408.31.062.1.166.107.237.2.047.058.139.085.17.146a.394.394,0,0,1,.188.13.436.436,0,0,0,.219.148.688.688,0,0,1,.224.172.5.5,0,0,1,.17.1.215.215,0,0,0,.119.053.264.264,0,0,0,.151.1c.047.09.159.065.205.157l.154.085c.037,0,.239.091.239.119.1,0,.165.14.254.14,0,.04.138.067.168.067,0,.021.341.093.341.14.086.02.13.086.2.086,0,.043.188.063.222.07,0,.051.2.084.239.092a2.574,2.574,0,0,0,.248.073c.138.014.23.1.362.119.075.014.1.045.188.061,0,.057.2.018.221.018.083,0,.122.052.2.052s.222.025.339.031c.223.012.476.061.677.051.164-.007.3-.032.446-.04.1-.005.158-.043.233-.043.134,0,.211-.087.337-.113s.239-.18.334-.28.168-.125.254-.229c.085-.057.077-.158.162-.225a.335.335,0,0,0,.111-.172,2.488,2.488,0,0,0,.17-.3.606.606,0,0,0,.153-.292c.035,0,.087-.178.093-.207.012-.065.077-.131.077-.192.054,0,.121-.31.255-.31l.17.069c.055.055.061.11.136.174a.357.357,0,0,0,.116.169c.05.056.154.194.224.194.04.075.12.081.12.172.056.025.023.043.086.086l.136.085a2.453,2.453,0,0,1,.237.245c.057,0,.068.042.1.085.053.018.093.018.119.069a.537.537,0,0,1,.221.128.433.433,0,0,0,.189.128c.071.154.831.324.9.347a1.772,1.772,0,0,0,.511.1c0,.065.479.038.525.038a15.883,15.883,0,0,0,2.944-.4,6.084,6.084,0,0,0,.878-.369c.143-.056.348-.711.348-.772a10.73,10.73,0,0,0,.083-1.364.342.342,0,0,0-.236-.243.473.473,0,0,0-.154-.2c-.122-.112-.33-.316-.211-.476.026-.04.16-.086.16-.12.068,0,.151-.069.235-.1a1.193,1.193,0,0,1,.392-.093c0-.032.324-.225.357-.312,0-.113.182-.306.257-.371a.208.208,0,0,0,.087-.166c.089,0,.1-.458.1-.557v-.383c0-.092-.035-.144-.035-.249,0-.081,0-.237-.083-.278,0-.071-.562-.944-.562-.985-.056-.03-.087-.156-.17-.156,0-.032-.105-.067-.137-.067l-.151-.122-.172-.069c-.185-.047-.361-.053-.477.12-.043.008-.442.121-.442.1-.077,0-.544.077-.6.073-.035,0-.32,0-.32.029a1.21,1.21,0,0,1-.25.018,4.042,4.042,0,0,0-.584-.053,3.279,3.279,0,0,0-.409-.026c-.035,0-.271.012-.271-.025-.2,0-.369-.049-.562-.049a.385.385,0,0,1-.14-.393c.006-.083.259-.431.259-.523.041,0,.027-.1.067-.1.027-.077.122-.164.122-.225.122-.095.2-.146.322-.251.089-.075.071-.117.187-.146a9.669,9.669,0,0,1,1.279-.2c.205-.01.28-.073.49-.091,0,0,.7-.046.779-.054,0,0,.591-.067.663-.069.055,0,.409,0,.409-.036a2.44,2.44,0,0,1,.348-.036.8.8,0,0,0,.291,0,.54.54,0,0,1,.3-.015.839.839,0,0,0,.219-.044c.091-.024.666-.02.757-.051a1.526,1.526,0,0,1,.436-.008l.162-.046a.6.6,0,0,0,.246.028,1.757,1.757,0,0,1,.29-.036c.1,0,.177-.034.3-.034a1.313,1.313,0,0,0,.369-.035,7.9,7.9,0,0,1,1.058.088,1.788,1.788,0,0,0,.423.049c.085,0,.083-.022.178.008a.4.4,0,0,0,.3-.085.235.235,0,0,0,.1-.235,6.917,6.917,0,0,0,0-1.416c-.037,0-.081-.243-.1-.243a.665.665,0,0,0-.1-.24c-.028-.121-.116-.186-.15-.294-.059-.03-.111-.208-.156-.208,0-.067-.064-.1-.064-.156-.085-.055-.166-.166-.258-.243,0-.042-.087-.108-.118-.154-.072,0-.14-.12-.187-.174-.062-.021-.122-.041-.186-.061a.67.67,0,0,0-.358-.008,2.088,2.088,0,0,1-.494.069c0,.056-.307.1-.307.156a9.137,9.137,0,0,0-.9.189,1.868,1.868,0,0,1-.379.062c-.062.011-.943.182-1.131.182-.069,0-.466.021-.466.067-.191,0-.35.02-.581.02,0,.053-.558.069-.645.073-.264.016-.516.141-.753.154-.261.016-1.393.257-1.544.257,0-.028-1.3.215-1.471.229-.148.01-.249.028-.4.028-.138.045-.273.09-.41.134-.075.026-.425.056-.425.111a.252.252,0,0,0-.229.128c-.069.086-.145.1-.2.182-.081,0-.139.144-.2.189a.712.712,0,0,0-.127.328c-.058,0-.169.281-.169.348-.053,0-.1.31-.119.31,0,.1-.041.186-.035.256a2.615,2.615,0,0,1,.035.28.806.806,0,0,1,0,.4l-.037.132c-.019.075-.034.05-.034.1-.055.038-.108.209-.138.209,0,.059-.062.121-.075.18-.021.106-.126.215-.126.32-.044,0-.158.31-.17.381l-.087.172-.05.138a2.065,2.065,0,0,0-.153.448,1.577,1.577,0,0,0-.154.452c-.069,0-.069.363-.119.363a1.286,1.286,0,0,0-.118.379c-.069,0-.064.4-.118.4,0,.142-.1.3-.1.432-.062,0,.064,1.086-.067,1.086,0,.125-.215.3-.357.192,0-.028-.1-.067-.1-.123-.028,0-.012-.032-.051-.049-.024-.073-.053-.063-.119-.087-.041-.065-.058-.14-.136-.14,0-.04-.033.008-.033-.033-.036-.014-.206-.032-.206.017a.279.279,0,0,0-.169.087c-.1,0-.208.116-.266.191a.62.62,0,0,1-.264.152c-.048.061-.071.123-.152.123,0,.034-.048.03-.068.069a.731.731,0,0,0-.27.138c-.06,0-.29,0-.29.054-.091,0-.128.034-.222.034a2.27,2.27,0,0,1-.545.033,1.873,1.873,0,0,1-.472.018,1.167,1.167,0,0,1-.4-.092,1.555,1.555,0,0,0-.407-.064c0-.057-.308-.08-.308-.138-.094,0-.187-.1-.288-.1,0-.054-.307-.083-.307-.158-.077-.016-.134-.121-.2-.121a.224.224,0,0,0-.151-.1l-.121-.033c-.08,0-.043-.071-.1-.071-.036-.051-.13-.136-.189-.136,0-.083-.361-.263-.417-.328s-.174-.081-.213-.158c-.066,0-.106-.138-.186-.138-.027-.055-.071-.033-.11-.085a.267.267,0,0,0-.1-.081c-.1-.045-.12-.116-.231-.144-.045-.075-.168-.106-.168-.207-.055,0-.016-.1-.013-.128.009-.122-.019-.233-.011-.349.014-.182.126-.291.126-.423.026,0,.1-.241.111-.282a.627.627,0,0,1,.145-.2c0-.052.049-.079.049-.141.066-.034.089-.1.154-.154a.4.4,0,0,1,.138-.225.45.45,0,0,1,.15-.207.558.558,0,0,1,.188-.241c0-.077.118-.116.118-.191.079-.059.1-.136.17-.189a.531.531,0,0,1,.239-.241c.073-.093.147-.115.223-.2.041-.051.169-.106.169-.182a.673.673,0,0,1,.271-.173c.085-.1.16-.123.239-.223.088-.024.107-.068.2-.087,0-.036.172-.026.172-.087.106-.027.132-.12.236-.156.05-.018.236-.041.236-.069l.156-.069a2.032,2.032,0,0,0,.262-.043.433.433,0,0,0,.177-.077,1.346,1.346,0,0,1,.344-.018c.056,0,.188.057.188.121.066.034.119.211.119.284a.677.677,0,0,1-.048.33,2.279,2.279,0,0,0-.106.581l.015.172c0,.11-.015.4-.021.424a.718.718,0,0,0,.077.454.131.131,0,0,0,.083.055l.045.079a.759.759,0,0,0,.118.069l.125.1a.251.251,0,0,1,.17.085c.086.021.13.12.205.12,0,.089.345.069.414.069s.091-.024.129.053c.033.006.256.089.256.033a4.227,4.227,0,0,0,.562-.033c.106,0,.142-.126.239-.174a.251.251,0,0,1,.1-.154c0-.067.089-.117.136-.158.022-.083.047-.067.069-.142.04-.13.129-.182.17-.306.036-.029.069-.035.069-.087.061-.042.133-.45.168-.45,0-.069.051-.112.051-.189.026,0,.036-.171.036-.207.071,0,.051-.479.051-.571a3.126,3.126,0,0,0,.007-.492c-.011-.083-.033-.476-.094-.476-.011-.049-.066-.294-.118-.294a.7.7,0,0,0-.068-.294c-.121-.06-.115-.247-.22-.336-.062-.053-.153-.094-.153-.182s-.034-.04-.034-.1a1.147,1.147,0,0,1-.177-.2c-.075-.086-.16-.114-.22-.2s-.143-.209-.249-.237c0-.033-.081-.023-.1-.067l-.189-.1a.809.809,0,0,0-.338-.069c-.116,0-.171.034-.265.034-.064,0-.125-.006-.207,0s-.891.047-.891.124a1.439,1.439,0,0,0-.323.036l-.17.051c-.038,0-.222.016-.222.036-.029,0-.574.164-.833.206,0,.018-.116.075-.152.088a1.216,1.216,0,0,1-.192.063c-.048.01-.334.065-.334.075l-.239.086c-.132.032-.233.108-.365.128s-.288.182-.418.182c-.03.061-.172.121-.235.14l-.105.049c0,.03-.177.089-.2.138-.092.02-.1.05-.188.07,0,.019-.177.1-.205.138-.085,0-.114.14-.2.14a1.255,1.255,0,0,1-.393.276c0,.04-.088.057-.169.085-.032.012-.187.113-.187.14l-.154.1c-.075.024-.069.071-.1.144s-.231.245-.261.3c-.106,0-.133.192-.238.192l-.1.12c0,.051-.037.057-.051.121a.282.282,0,0,0-.105.156.356.356,0,0,0-.134.208c-.032.1-.1.154-.138.261-.087.043-.077.209-.168.256-.011.038-.045.14-.069.14,0,.063-.095.251-.193.237-.178-.021-.2-.31-.2-.418,0-.069-.033-.1-.033-.182-.026,0-.048-.207-.053-.241-.047,0-.087-.375-.087-.45a3.8,3.8,0,0,1-.118-.484c-.047,0-.057-.4-.115-.4a4.379,4.379,0,0,0-.113-.468,3.434,3.434,0,0,0-.095-.762c0-.038-.035-.154-.065-.154a.274.274,0,0,0-.087-.189c0-.085-.116-.136-.134-.233-.017-.063-.035-.14-.087-.166a.474.474,0,0,0-.139-.225c0-.055-.075-.144-.12-.189a6.119,6.119,0,0,1-.472-.655c-.063-.034-.107-.171-.187-.171-.036-.131-.229-.18-.336-.214a.917.917,0,0,0-.227-.031l-.116-.04c-.16-.023-.543-.154-.646.06-.1.023-.114.067-.189.128-.05.042-.095.146-.151.146a1.017,1.017,0,0,1-.258.223c-.03.1-.134.121-.2.193s-.119.136-.187.2-.126.121-.189.18l-.07.1c0,.134-.281.267-.322.4a.585.585,0,0,0-.136.227c-.1.049-.117.241-.22.292a.259.259,0,0,1-.1.158.237.237,0,0,1-.1.136c0,.215-.238.313-.288.52-.053.026-.055.172-.1.172,0,.095-.137.188-.137.276-.035,0-.073.135-.116.156-.021.081-.085.148-.085.225-.046,0-.031.128-.088.158-.028.081-.084.136-.084.205l-.11.233c-.011.085-.111.123-.111.2-.033.025-.1.173-.118.173a.279.279,0,0,1-.085.191c-.039.15-.112.2-.152.328-.035.109-.138.186-.138.276a.82.82,0,0,0-.17.31c-.041,0-.087.2-.1.252m20.46,3.479a.437.437,0,0,1,.346-.047c0-.056.252.021.29.027s.136,0,.136.038c.067-.006,1.024-.065,1.256-.065,0,.059.6-.071.767.014.066,0,.387.051.468.051.033,0,.128-.059.128,0a.823.823,0,0,0,.272.087c.1,0,.166.049.245.04a.332.332,0,0,1,.225.018.249.249,0,0,1,.093.186.363.363,0,0,1-.035.174c-.029.025-1.392.207-1.447.207a10.02,10.02,0,0,1-1.635.179c-.045,0-.184,0-.184-.042-.1-.007-.313.026-.342-.051-.043,0-.029-.054-.082-.054,0-.038-.087-.033-.113-.04a.593.593,0,0,1-.2-.116c-.11-.026-.423-.205-.381-.357a.484.484,0,0,1,.189-.249m-17.311-3.9.049-.138c.053,0,.062-.174.105-.174a.5.5,0,0,1,.153-.276c0-.088.083-.174.083-.275.058,0,.054-.227.12-.26,0-.075.1-.13.118-.205a2.15,2.15,0,0,0,.085-.209s.143-.249.156-.294c.049,0,0-.1.049-.1,0-.1.2-.164.273-.085.122.034.126.255.142.36a6.325,6.325,0,0,0,.077.661,3.083,3.083,0,0,1-.034.622c0,.184-.051.313-.051.466-.067.033-.018.085-.083.121,0,.049-.114.169-.156.2a.413.413,0,0,1-.363.077c-.132-.022-.26.069-.391.084-.067.008-.315,0-.315-.067-.182-.148-.062-.332-.018-.5" transform="translate(-4738.404 -2125.913)" fill="#42bd5c"/>
        <path id="Path_461" data-name="Path 461" d="M4781,2134.912c.014.077.055.118.055.171.063.034.111.174.133.245a.819.819,0,0,1,.172.188c.023,0,.079.138.119.138a3.09,3.09,0,0,1,0,.33,5.735,5.735,0,0,0-.045.7c-.017.247-.092.471-.092.685a3.1,3.1,0,0,1-.085.5c0,.186,0,.436-.025.646,0,.027-.067.235-.009.235,0,.15.013.3.019.45a3.21,3.21,0,0,1,.118.4l.052.156a.615.615,0,0,1,.1.173c.079.054.068.146.152.188,0,.06.1.119.145.156.159.13.257.335.468.377.162.03.511.028.511.071a.593.593,0,0,0,.187,0,.449.449,0,0,0,.375-.067.436.436,0,0,1,.136-.225c0-.069.085-.089.085-.156.06-.027.043-.189.085-.189,0-.067.067-.128.067-.207a4.327,4.327,0,0,0-.016-.589c-.069,0-.045-.446-.047-.509-.007-.108-.04-.247-.04-.354,0-.09-.05-.189-.05-.282a1.446,1.446,0,0,0-.02-.373.634.634,0,0,1-.014-.3,2.416,2.416,0,0,0,.1-.468c.049,0,.187-.335.187-.379.064-.032.1-.15.179-.166.117-.022.129-.026.231.069.061.057.146.236.238.236.032.066.164.16.228.228s.134.053.2.116a.442.442,0,0,0,.172.089c.063.136.271.166.354.292.057,0,.192.125.229.174a.549.549,0,0,0,.231.156c.031.063.128.089.168.154.093.071.149.123.23.194.06.051.145.188.211.188.062.067.141.191.208.223.046.067.127.1.149.158.085.061.1.134.172.2s.158.231.237.231c0,.073.145.144.172.225a2.176,2.176,0,0,1,.252.259c.077,0,.168.126.224.189.1,0,.142.173.239.173,0,.024.136.077.176.087.158.035.242.122.432.114.065,0,.429.028.429-.045a.531.531,0,0,0,.375-.259.7.7,0,0,1,.152-.053c.036-.073.138-.123.138-.207l.066-.1c.021-.083.136-.134.136-.205.055-.05.185-.152.185-.225.049-.04.105-.034.105-.1a.468.468,0,0,0,.154-.4c0-.238-.019-.531-.019-.76,0,0-.07-.205-.085-.244a.672.672,0,0,1-.156-.138c-.087-.028-.07-.17-.166-.17a1.545,1.545,0,0,1-.138-.176c-.177-.045-.207-.271-.373-.328-.087-.03-.12-.081-.2-.1a.349.349,0,0,0-.172-.1c-.051-.077-.112-.077-.169-.156l-.188-.12a.653.653,0,0,0-.221-.051c-.054-.067-.172-.261-.255-.261a.442.442,0,0,0-.186-.12c-.071-.085-.134-.119-.207-.2a1.836,1.836,0,0,0-.188-.241c-.064-.058-.2-.15-.2-.233-.056,0-.044-.182-.026-.221a.5.5,0,0,1,.134-.15.259.259,0,0,0,.093-.182,1.5,1.5,0,0,0,.355-.355.782.782,0,0,1,.174-.2c.019-.055.019-.095.067-.12.008-.04.049-.191.085-.191,0-.079.128-.15.145-.233.025-.119.146-.2.146-.32.036,0,.119-.333.119-.381.059,0-.01-.31.053-.31l.049-.174c.022-.095.069-.124.069-.215a1.032,1.032,0,0,1,.067-.251l.05-.156c.049,0,.035-.2.035-.247,0-.119-.01-.267,0-.411,0-.091-.031-.12-.031-.223,0,0,.041-.345-.05-.345,0-.158-.067-.272-.067-.415a.885.885,0,0,1-.1-.294c-.036,0-.064-.193-.069-.243-.024,0-.068-.121-.068-.156-.086,0-.07-.4-.169-.4,0-.089-.136-.139-.136-.225a2.019,2.019,0,0,1-.322-.589c-.026,0-.081-.132-.113-.171-.051-.063-.229-.206-.229-.276-.062-.043-.118-.192-.2-.192a.487.487,0,0,0-.284-.184c-.148-.045-.093-.12-.185-.2a.4.4,0,0,0-.264-.12c0-.067-.375-.047-.375-.1-.2,0-.377-.1-.563-.1l-.179-.09-.194-.014c-.021-.05-.049-.042-.1-.052,0-.061-.314-.12-.373-.12,0,0-.443-.072-.488-.072-.1,0-.6.028-.6.123-.075,0-.081.036-.17.036l-.256.033c0,.058-.3.068-.3.121a.541.541,0,0,0-.326.174c-.032.051-.144.155-.2.155-.042.083-.173.135-.173.225-.2.137-.205.437-.329.648a.853.853,0,0,0-.141.527,2.158,2.158,0,0,0,.038.561,1.037,1.037,0,0,1,.043.25c.02,0,.065.138.065.174.02,0,.087.148.12.172a.264.264,0,0,0,.1.156.879.879,0,0,0,.17.243c.032.047.134.12.145.18.008.033.063.235.008.235,0,.071-.035.1-.049.188-.073,0-.137.342-.137.4-.05,0-.062.363-.121.363,0,.261-.19.425-.229.684-.014.106-.062.189-.062.266l-.049.1c-.026,0-.052.1-.087.12,0,.073-.091.125-.134.192-.044,0-.094.025-.152.033,0,.038-.127.018-.156.018,0,.03-.168.034-.2.034,0,0-.149.11-.17.162-.04.1-.018.186-.123.249s-.142.077-.157.177a3.3,3.3,0,0,0-.042.344,1.379,1.379,0,0,0-.01.335c0,.125-.031.241-.02.363a1.327,1.327,0,0,0,.095.358m3.941-3.181a1.514,1.514,0,0,0,.057-.225c.06,0-.008-.31.051-.31,0-.108.034-.139.034-.243.031,0,.021-.28.021-.328a1.289,1.289,0,0,0-.011-.462,1.163,1.163,0,0,1,.075-.437.629.629,0,0,1,.205-.312c.188,0,.274.1.44.1a1.7,1.7,0,0,0,.344.158c.067.091.178.132.236.225.073,0,.1.1.152.138l.068.154a.972.972,0,0,1,.064.312c0,.038.025.31-.046.31-.012.115-.051.167-.051.261l-.1.189a.385.385,0,0,0-.12.189c-.04.028-.1.138-.121.138a.649.649,0,0,1-.2.247c-.061.057-.16.255-.238.255-.018.037-.067.035-.067.069-.062,0-.1.077-.136.121a.51.51,0,0,0-.2.138.22.22,0,0,1-.137.079.735.735,0,0,1-.284.02c-.083-.011-.081-.114-.081-.184-.054,0,.038-.546.044-.606" transform="translate(-4767.258 -2126.315)" fill="#42bd5c"/>
      </g>
      <path id="Path_462" data-name="Path 462" d="M4758,2155.234c-4.845-1.025-33.53-11.349-42.913-39.262-1.425-4.242-9.089-27.172,5.01-45.417,7.155-9.258,22.387-20.353,39.515-15.52,15.228,4.3,26.215,19.526,26.011,37.176,5.059-17.534,1.47-36.809-10.876-47.385-12.057-10.33-27.142-10-32.514-9.789-18.389.72-31.036,10.936-36.883,15.749-24.764,20.391-32.48,43.761-48,59.277,0,0-15.741,14.758-30.409,14.758v73.3a13.511,13.511,0,0,0,13.511,13.51h141.494l34.35,34.349v-34.349h16.179a13.509,13.509,0,0,0,13.509-13.51v-73.3C4844.914,2126.158,4811.565,2166.554,4758,2155.234Z" transform="translate(-4277.796 -1294.142)" fill="#42bd5c"/>
    </g>
  </g>
</svg>
