<svg xmlns="http://www.w3.org/2000/svg" width="1640" height="1383.907" viewBox="0 0 1640 1383.907">
  <g id="Group_61" data-name="Group 61" transform="translate(-140 -4583.309)">
    <rect id="Rectangle_35" data-name="Rectangle 35" width="819.309" height="460.807" transform="translate(959.862 5044.832)" fill="#00c1ff"/>
    <rect id="Rectangle_36" data-name="Rectangle 36" width="408.601" height="460.807" transform="translate(959.862 5044.887)" fill="#0038a8"/>
    <path id="Path_271" data-name="Path 271" d="M1285.089,77.461c112.229,0,203.209,103.156,203.209,230.4s-90.98,230.4-203.209,230.4" transform="translate(-325.228 4967.425)" fill="#efefef"/>
    <path id="Path_272" data-name="Path 272" d="M1394.567,77.461c112.229,0,203.209,103.156,203.209,230.4s-90.98,230.4-203.209,230.4" transform="translate(-229.313 4967.425)" fill="#efefef"/>
    <rect id="Rectangle_37" data-name="Rectangle 37" width="819.309" height="460.861" transform="translate(960.691 4583.309)" fill="#0038a8"/>
    <rect id="Rectangle_38" data-name="Rectangle 38" width="408.601" height="460.861" transform="translate(960.691 4583.309)" fill="#39b54a"/>
    <rect id="Rectangle_39" data-name="Rectangle 39" width="408.601" height="230.319" transform="translate(960.691 4583.309)" fill="#ed3f1d"/>
    <rect id="Rectangle_40" data-name="Rectangle 40" width="819.309" height="460.861" transform="translate(140 5506.354)" fill="#39b54a"/>
    <rect id="Rectangle_41" data-name="Rectangle 41" width="408.601" height="460.861" transform="translate(140 5506.354)" fill="#efefef"/>
    <g id="Group_52" data-name="Group 52" transform="translate(140 5506.354)">
      <path id="Path_273" data-name="Path 273" d="M403.356,307.858H198.2L300.875,77.432Z" transform="translate(-198.205 -77.432)" fill="#ed3f1d"/>
      <path id="Path_274" data-name="Path 274" d="M511.8,307.858H306.647L409.317,77.432Z" transform="translate(-103.197 -77.432)" fill="#ed3f1d"/>
      <path id="Path_275" data-name="Path 275" d="M403.356,430.684H198.2l102.67-230.425Z" transform="translate(-198.205 30.177)" fill="#ed3f1d"/>
      <path id="Path_276" data-name="Path 276" d="M511.8,430.684H306.647l102.67-230.425Z" transform="translate(-103.197 30.177)" fill="#ed3f1d"/>
    </g>
    <rect id="Rectangle_42" data-name="Rectangle 42" width="819.309" height="460.861" transform="translate(959.861 5506.354)" fill="#ed3f1d"/>
    <rect id="Rectangle_43" data-name="Rectangle 43" width="408.601" height="460.861" transform="translate(959.861 5506.354)" fill="#00c1ff"/>
    <rect id="Rectangle_44" data-name="Rectangle 44" width="202.446" height="460.861" transform="translate(959.861 5506.354)" fill="#ff92f4"/>
    <rect id="Rectangle_45" data-name="Rectangle 45" width="819.309" height="460.861" transform="translate(140 5044.832)" fill="#fad84c"/>
    <rect id="Rectangle_46" data-name="Rectangle 46" width="408.601" height="460.861" transform="translate(140 5044.832)" fill="#ed3f1d"/>
    <path id="Path_277" data-name="Path 277" d="M1285.089,870.677V409.816h408.6Z" transform="translate(-1145.089 4635.017)" fill="#0038a8"/>
    <rect id="Rectangle_47" data-name="Rectangle 47" width="819.309" height="460.861" transform="translate(140 4583.309)" fill="#ff92f4"/>
    <rect id="Rectangle_48" data-name="Rectangle 48" width="408.601" height="460.861" transform="translate(140 4583.309)" fill="#efefef"/>
    <g id="Group_57" data-name="Group 57" transform="translate(140 4583.309)">
      <path id="Path_278" data-name="Path 278" d="M606.806,763.07H198.2L402.694,532.639Z" transform="translate(-198.205 -302.208)" fill="#39b54a"/>
      <path id="Path_279" data-name="Path 279" d="M606.806,409.816H198.2L402.694,640.246Z" transform="translate(-198.205 -409.816)" fill="#39b54a"/>
    </g>
  </g>
</svg>
