<svg xmlns="http://www.w3.org/2000/svg" width="87.877" height="101.221" viewBox="0 0 87.877 101.221">
  <path id="Path_257" data-name="Path 257" d="M3625.234,10667.7a43.89,43.89,0,1,0-36.218,43.262l14.059,14.02v-19.113A43.922,43.922,0,0,0,3625.234,10667.7Zm-71.3-7.461c0-5.266,2.6-9.535,5.8-9.535s5.8,4.27,5.8,9.535-2.6,9.533-5.8,9.533S3553.938,10665.5,3553.938,10660.238Zm6.632,29.094h0a33.3,33.3,0,0,1,41.452,0H3560.57Zm42.28-19.561c-3.205,0-5.8-4.269-5.8-9.533s2.6-9.535,5.8-9.535,5.8,4.27,5.8,9.535S3606.056,10669.771,3602.85,10669.771Z" transform="translate(-3537.357 -10623.76)" fill="#ed3f1d"/>
</svg>
