<svg xmlns="http://www.w3.org/2000/svg" width="1112" height="417.95" viewBox="0 0 1112 417.95">
  <g id="Group_201" data-name="Group 201" transform="translate(-370.548 -1396.983)">
    <g id="Group_199" data-name="Group 199" transform="translate(370.549 1396.983)">
      <path id="Path_378" data-name="Path 378" d="M1397.814,1572.442l4.839,9.982c19.276-6.195,38.38-12.526,57.608-18.459,19.058-5.881,38.239-11.36,58.175-17.254,4.132,9.729,7.961,18.744,11.552,27.2l-161.646,53.3c-15.217-33.46-30.714-67.534-46.643-102.56l163.724-53.617,10.656,31.249L1380.811,1538.7c1.688,3.96,3.059,7.172,4.49,10.527l115.65-36.11,11.6,23.805Z" transform="translate(-417.988 -1400.676)" fill="#fff"/>
      <path id="Path_379" data-name="Path 379" d="M898.514,1642.748c-13.633,2.773-29.181,6.1-42.813,8.884-2.762.563-15.847,3.622-18.591,4.267,0,0-4.865-7.1-12.363-7.856-8.5-.86-18.588,1.584-27.821,8.569-2,1.709-4.333,4.7-2.808,8.18s5.224,3.313,7.915,3.106c17.3-1.328,34.536-4.012,51.844-4.517a105.433,105.433,0,0,1,31.646,4.159c19.7,5.653,25.37,24.332,13.583,41.329-7.16,10.325-17.029,17.339-28.4,22.016-31.1,12.793-63.337,19.751-97.066,15.308-8.573-1.129-17.223-4.448-24.908-8.516-8.693-4.826-12.269-14.247-12.269-14.247l30.081-7.331c5.3-1.292,21.163-5.223,26.439-6.617l6.559,4.322c7.472,5.864,29.73,2.288,36.738-4.4,4.141-3.955,6.052-11.921-4.306-11.586-16.542,1.1-33.023,3.43-49.57,4.01a128.287,128.287,0,0,1-32.386-2.715c-12.668-2.856-17.636-12.576-15.509-25.508,2.029-12.325,8.253-21.9,18.961-28.26,29.38-17.458,60.676-28.512,95.375-27.6,12.073.319,23.978,2.17,34.07,9.214C888.5,1630.863,897.989,1641.66,898.514,1642.748Z" transform="translate(-388.678 -1407.991)" fill="#fff"/>
      <path id="Path_380" data-name="Path 380" d="M659.063,1656.088c15.375-2.129,31-4.32,46.517-6.47.589,3.31,1.248,6.615,1.675,9.911,2.18,16.834,4.818,33.65,5.988,50.561.908,13.132-3.945,25.079-12.388,35.272-26.916,32.5-86.748,44.315-124.145,24.613-18.828-9.918-29.611-25.03-30.746-46.7-.919-17.527-2.281-35.029-3.46-52.755l48.5-6.311c1.068,8.833,2.176,17.538,3.159,26.258,1.04,9.233,1.909,18.485,2.95,27.718,1.068,9.479,8.277,17.291,19,19.574,13.378,2.849,26.216.954,37.728-6.784,7.836-5.268,11.475-12.791,10.5-22.372C662.576,1691.335,660.866,1674.064,659.063,1656.088Z" transform="translate(-379.125 -1409.583)" fill="#fff"/>
      <path id="Path_381" data-name="Path 381" d="M934.966,1465.927c-4.208,10.348-3.1,19.6-.3,28.553,6.581,21,13.623,41.864,20.483,62.781.43,1.313.9,2.614,1.534,4.473l-43.48,4.052-17.726-57.427c-.986,1.96-1.794,3.031-2.087,4.227-4.421,18.047-10.855,44.388-14.929,62.512l-20.353,4.744c-13.433-12.445-35.393-29.288-46.145-44.9-1.106,19.392,7.376,36.675,11.7,55.253L777,1604.743c-2.806-13.316-5.725-26.287-8.139-39.351a13,13,0,0,1,1.454-8.745c13.935-17.6,11.679-52.381,11.679-52.381,11.949-2.821,23.373-1.245,40.472,2.429,8.774,1.885,18.094-.932,18.094-.932l11.731,16.382c1.635-5.888,2.837-10.1,3.97-14.322,2.594-9.673,8.478-16.351,16.94-21.883,15.244-9.966,32.965-11.724,49.692-16.781C926.517,1468.061,930.212,1467.192,934.966,1465.927Z" transform="translate(-390.405 -1400.422)" fill="#fff"/>
      <path id="Path_382" data-name="Path 382" d="M1307.082,1560.59c-10.32,8.514-20.044,16.7-30.024,24.563-1.238.976-2,1.564-2,1.564-13.947-5.411-31.937-8.5-45.505-1.544a35.139,35.139,0,0,0-14.349,13.937c-6.734,12.825.5,26.6,15.771,29.866,18.067,3.863,39.383-3.344,55.558-21.612,0,0,2.889.311,10.369,1.245,10.978,1.37,22.083,1.718,33.812,2.55a56.241,56.241,0,0,1-18.85,28.675c-30.9,25.689-66.073,36.183-105.7,26.253-25.364-6.356-43.49-27.2-46.375-50.6-2.4-19.514,6.2-34.091,20.5-46.006,36.523-30.411,86.234-30.887,124.682-10.616A18.786,18.786,0,0,1,1307.082,1560.59Z" transform="translate(-409.893 -1404.363)" fill="#fff"/>
      <path id="Path_383" data-name="Path 383" d="M973.792,1559.22s8.526-32.325,13.952-47.7c7.384-20.92,25.549-65.529,25.549-65.529,13.207-2.439,34.725-13.766,46.2-20.1,0,0,1.4,1.359,6.275,6.417,29.312,30.411,58.991,60.469,88.535,90.656.679.7,3.146,3.361,3.146,3.361s-37.549,7.128-54.327,9.985l-2.327-3.839c-5.618-8.511-7.216-10.637-7.216-10.637l-66.712,15.123c-.508,7.548-.964,13.823-.964,13.823Zm91.831-59.82-19.9-22.091c-3.488,10.572-6.526,19.786-10,30.312Z" transform="translate(-400.636 -1398.425)" fill="#fff"/>
      <path id="Path_384" data-name="Path 384" d="M540.133,1562.087c-14.713,5.966-44.269,17.754-44.269,17.754-18.5-8.329-40.092-10.744-58.523-1.988-9.523,4.525-13.45,13.7-11.342,22.579,1.869,7.874,9.614,13.762,19.758,14.2,15.533.672,33.614-7.087,46.049-16.438,0,0,25.748,6.87,38.665,10.442-4.25,4.785-7.107,8.591-10.548,11.763-9.262,8.538-20.316,14.684-32.478,16.811-20.03,3.5-40.32,6.554-60.593,7.315-17.687.665-33.974-5.858-45.328-20.512-20.336-26.252-11.5-62,18.959-78.192,20.6-10.956,42.822-12.826,65.481-10.991a148.6,148.6,0,0,1,56.848,15.915C528.754,1553.823,534.087,1558.08,540.133,1562.087Z" transform="translate(-370.549 -1403.827)" fill="#fff"/>
      <path id="Path_385" data-name="Path 385" d="M916.013,1644.5l-10.037-43c13.433-2.567,26.411-5.371,39.5-7.488,38.073-6.158,76.216-11.887,114.266-18.184,6.06-1,8.574-.025,9.888,6.278,2.373,11.387,5.722,22.57,8.815,34.42l-56.865,9c5.15,25.311,10.239,50.319,15.515,76.254l-48.048,8.39c-5.014-25.578-9.962-50.826-15.129-77.182Z" transform="translate(-397.254 -1405.886)" fill="#fff"/>
      <path id="Path_386" data-name="Path 386" d="M1477.449,1427.188s-3.585.183-5.4.295c-37.115,2.267-82.243,4.47-118.627,13.635l2.181,9.139c39.407-11.636,79.74-17.729,120.951-20.076.472,3.791.9,6.958,1.246,10.134.107.968.2,1.676.2,1.676l-165.757,51.372c-7.845-29.625-4.868-60.436-9.978-90.5,59.023-7.6,117.381-4.51,175.523-5.885v22.325l-124.285-3.846v5.963l123.691,2.229Z" transform="translate(-417.019 -1396.983)" fill="#fff"/>
      <path id="Path_387" data-name="Path 387" d="M371.806,1739.887q21.691-3.626,43.337-7.24c5.264,21.532,20.608,30.223,41.485,23.919,11.364-3.431,18.295-11.671,18.174-23.572-.123-12.1-1.457-24.2-2.219-36.3-.455-7.228-.83-14.461-1.31-22.884l50.2-1.369c.37,6.751.73,15.722,1.214,23.316.72,11.293,1.439,22.587,2.318,33.869,1.952,25.076-8.747,43.854-29.953,55.988-30.192,17.275-62.281,19.023-94.635,6.807C379.105,1784.382,367.868,1762.436,371.806,1739.887Z" transform="translate(-370.572 -1410.722)" fill="#fff"/>
      <path id="Path_388" data-name="Path 388" d="M1283.6,1402.555c1.128,12.183,2.205,23.836,3.381,36.547-19.841,4.007-39.816,6.842-61.238,3.645.775,23.941-.3,47.567,12.663,69.8l-35.249,4.182c-3.9-12.678-7.7-25.181-11.593-37.652-3.01-9.634-6.311-19.181-9.142-28.866-1.177-4.026-1.614-5.511-1.614-5.511-16.85,3.226-39.4,6.935-57.164,10-3.895-12.742-7.855-25.7-11.994-39.242,14.119-2.624,27.011-4.924,39.863-7.433,19.221-3.751,38.316-8.234,58.143-7.412,19.582.812,39.177,1.337,58.768,1.919C1273.25,1402.678,1278.087,1402.555,1283.6,1402.555Z" transform="translate(-407.512 -1397.159)" fill="#fff"/>
      <path id="Path_389" data-name="Path 389" d="M703.706,1616.124,556.536,1636.3c-.971-25.352-5.508-50.644,8.195-74.279,2.865-4.942,3.517-11.131,5.546-16.614.549-1.484,1.436-3.584,1.436-3.584,14.246-1,30.743-1.643,46.008-2.454-9.744,18.917-12.045,39.129-11.07,60.472,18.53,1.763,36.067-.491,52.858-9.041,10.932-5.568,22.454-9.98,33.751-14.821a26.5,26.5,0,0,1,5.87-1.831C700.64,1588.133,702.207,1602.237,703.706,1616.124Z" transform="translate(-379.75 -1404.085)" fill="#fff"/>
      <path id="Path_390" data-name="Path 390" d="M1115.065,1690.651c-9.168-39.67-18.16-78.576-27.274-118.016l42.806-5.24c9.618,38.976,19.126,77.509,28.872,117.009Z" transform="translate(-406.322 -1405.483)" fill="#fff"/>
      <path id="Path_391" data-name="Path 391" d="M761.586,1609.678l-42.783,5.148s-.953-8.5-1-9.048c-1.31-15.473-1.848-24.22-3.377-39.671-.958-9.683-.619-18.387,8.577-24.711,2.4-1.648,3.547-5.719,4.351-8.908.864-3.426.645-7.124.95-11.433,14.813,1.806,26.075-7.308,39.965-13.005-1.405,6.273,1.055,14.445-1.28,23.2-3.042,11.254-8.474,15.5-11.875,26.648-2.645,8.669-1.666,17.149.126,25.729C757.086,1592.463,758.885,1599.609,761.586,1609.678Z" transform="translate(-387.682 -1402.523)" fill="#fff"/>
    </g>
    <g id="Group_200" data-name="Group 200" transform="translate(1045.805 1751.272)">
      <path id="Path_392" data-name="Path 392" d="M1131.226,1803.256a18.592,18.592,0,0,1-1.428,4.866,33.8,33.8,0,0,0-1.8,4.918,88.615,88.615,0,0,0-1.535,9.837,14.308,14.308,0,0,0-.052,2.274q.105,2.062.105,2.539,0,4.441-2.962,5.129l-1.322.476a2.417,2.417,0,0,1-1.269.211q-1.323-.423-3.966-1.586a3.183,3.183,0,0,1-1.058-2.539v-3.015q0-.423-.053-1.533t-.051-1.587a4.144,4.144,0,0,1,.211-1.032,4.207,4.207,0,0,0,.212-1.084,1.657,1.657,0,0,0-.583-1.268,1.845,1.845,0,0,0-1.111,0,22.77,22.77,0,0,1-10.576,2.8,31.358,31.358,0,0,1-11.634-1.638q-5.765-1.958-8.462-5.448a11.688,11.688,0,0,1-1.878-4.336,23.743,23.743,0,0,1-.766-5.975,15.926,15.926,0,0,1,.37-3.6q.369-1.586,1.269-4.548.263-.687,3.12-5.235,1.481-1.9,4.125-5.5a42.107,42.107,0,0,1,5.711-5.606q3.12-2.7,6.24-5.447a28.441,28.441,0,0,1,4.6-3.543,13.348,13.348,0,0,1,5.659-1.64,6.677,6.677,0,0,1,2.485.529q1.268.582,2.591,1.111,2.062.846,3.49,4.178a14.868,14.868,0,0,1,1.323,6.294q-.054,3.6-2.01,4.389a4.094,4.094,0,0,1-3.331-.476q-.741-.369-1.956-3.332-1.11-2.644-2.38-2.591-1.957.054-5.394,2.38a35.167,35.167,0,0,0-5.182,4.336,92.05,92.05,0,0,0-8.885,10,28.34,28.34,0,0,0-4.548,9.042,3.266,3.266,0,0,0,.423,2.644,6.18,6.18,0,0,0,4.02,2.644q2.644.581,5.288,1.111a6.218,6.218,0,0,0,1.533.9q1.8.054,3.28.053,9.942-.105,13.644-4.125a2.009,2.009,0,0,0,.528-1.481,1.066,1.066,0,0,0-.582-1.005q-.794.107-7.668,1.534a63.472,63.472,0,0,1-8.408,1.268q-.952.054-2.063-1.4a6.33,6.33,0,0,1-1.323-2.935,7.18,7.18,0,0,1-.105-1.375q0-4.548,2.063-5.395a51.412,51.412,0,0,1,11.846-3.013q10.68-1.746,11.9-2.064a8.477,8.477,0,0,1,2.167-.052,4.144,4.144,0,0,1,2.274.688,10.284,10.284,0,0,1,3.015,4.336A11.435,11.435,0,0,1,1131.226,1803.256Zm37.282,13.7a46.863,46.863,0,0,1-3.331,4.549q-.583.687-2.909.687a6.294,6.294,0,0,1-2.115-.291,8.016,8.016,0,0,1-2.432-2.2q-1.112-1.321-2.274-2.59a43.6,43.6,0,0,0-6.823-5.871q-1.163-.74-3.542-2.538-.584.053-1.217,1.057a12.243,12.243,0,0,0-.529,2.328,30.677,30.677,0,0,0,.212,3.226q.316,3.332.317,4.971a7.129,7.129,0,0,1-.264,2.379l-.476.9a1.211,1.211,0,0,1-.9.688,7.3,7.3,0,0,1-4.759-.529,6.412,6.412,0,0,1-2.75-3.544,12.678,12.678,0,0,1-.794-4.494,35.094,35.094,0,0,1,.449-4.707,34.725,34.725,0,0,0,.449-4.283q0-.581-.053-1.111a4.615,4.615,0,0,0-.872-1.084,3.907,3.907,0,0,1-.979-1.454,12.7,12.7,0,0,1-.581-3.438,5.307,5.307,0,0,1,1.955-4.442,6.762,6.762,0,0,1,1.534-.264,1.72,1.72,0,0,0,1.48-1.111,36.49,36.49,0,0,0,1.957-8.462q.053-.158-.37-.528l-.636-.529a8.05,8.05,0,0,1-1.587-3.014,4.28,4.28,0,0,1-.158-1.217,10.257,10.257,0,0,1,1.268-4.759,6.755,6.755,0,0,1,3.438-3.49,22.923,22.923,0,0,1,8.25-1.217q5.87,0,10.154,6.135a20.719,20.719,0,0,1,3.965,12.11,11.926,11.926,0,0,1-.846,4.654q-.582,1.746-1.956,4.919-.846,1.163-1.692,2.379a10.719,10.719,0,0,0-1.375,2.275q0,.475,1.163,1.533a17.541,17.541,0,0,0,3.331,2.38q2.856,1.746,3.967,2.539a6.446,6.446,0,0,1,2.8,5.447A4.03,4.03,0,0,1,1168.508,1816.952Zm-19.461-35.008c-.352,0-.564.283-.634.847q.1,1.217.105,3.332-.529,2.907-1.11,7.562a8.132,8.132,0,0,0,4.864-2.908,6.955,6.955,0,0,0,1.746-4.5,4.193,4.193,0,0,0-1.27-3.172A4.984,4.984,0,0,0,1149.046,1781.944Zm57.537.9a3.835,3.835,0,0,1-2.75,1.852l-2.538.423a23.084,23.084,0,0,1-4.336,1.11,28.277,28.277,0,0,0-2.909.476q-2.115.477-4.178.952a25.4,25.4,0,0,0-5.235,2.01q-1.269.582-1.48,3.331c.245.423.528.635.846.635a20.133,20.133,0,0,0,5.791-1.111,22.058,22.058,0,0,1,5.738-1.164q.634,0,1.216.053,2.273.372,3.754,3.914a14.958,14.958,0,0,1,1.27,5.818,3.31,3.31,0,0,1-.106.9q-.158.951-3.331,1.744a33.045,33.045,0,0,1-6.5.636q-3.332.053-11.317,2.114-.634.16-.793,1.112a2.046,2.046,0,0,0,.105,1.215,1.836,1.836,0,0,0,1.4.848,3.471,3.471,0,0,1,1.243.37,4.453,4.453,0,0,0,3.015,1.216,9.12,9.12,0,0,0,3.331-.872,9.173,9.173,0,0,1,2.8-.873,1.834,1.834,0,0,1,1.268.476,9.615,9.615,0,0,1,3.279,7.034,6.841,6.841,0,0,1-.792,3.279q-2.062,3.914-8.3,3.7a15.88,15.88,0,0,1-7.615-2.009,32.472,32.472,0,0,1-5.077-2.275,10.744,10.744,0,0,1-3.174-4.494,18.553,18.553,0,0,1-1.533-5.552q-.053-.954-.053-1.9,0-5.183,3.6-14.014,1.374.318,1.375-1.481a1.62,1.62,0,0,0-.423-1.268,7.3,7.3,0,0,1-1.428-.16,8.649,8.649,0,0,1-2.327-6.24q0-3.6,2.01-5.341a4.359,4.359,0,0,1,1.9-.9l2.008-.423a13.219,13.219,0,0,1,1.957-1.057,203.455,203.455,0,0,1,20.624-4.812,5.386,5.386,0,0,1,1.057-.106q3.385,0,4.866,4.125,0,.054,1.216,2.909a7.638,7.638,0,0,1,.74,2.75A2.577,2.577,0,0,1,1206.583,1782.843Zm36.7-3.966a3.537,3.537,0,0,1,.211,1.375,7.617,7.617,0,0,1-.846,3.438q-2.434.53-10.841,1.375a31.857,31.857,0,0,0-10.313,2.644,3.058,3.058,0,0,0-.846,1.269q-.688,1.586-.741,1.692-.316.476-1.11,1.534a5.04,5.04,0,0,0,2.274.475,15.632,15.632,0,0,0,3.543-.528q1.639-.423,3.331-.847a6.885,6.885,0,0,0,1.588-.688c.88-.528,1.445-.846,1.691-.951a1.042,1.042,0,0,1,.476-.106,4.552,4.552,0,0,1,2.2.714,4.261,4.261,0,0,1,1.718,1.612,17.291,17.291,0,0,1,1.9,4.654q.582,3.543-.529,4.39a17.717,17.717,0,0,1-5.368,2.3,18.269,18.269,0,0,1-6.054.925,2.7,2.7,0,0,0-.925.423,3.98,3.98,0,0,1-.979.476l-8.831,1.27a2.034,2.034,0,0,0-1.164.687,1.7,1.7,0,0,0-.527,1.112.713.713,0,0,0,.211.528q2.062,1.744,6.081,1.745,5.446,0,7.457-2.433a.922.922,0,0,1,.635-.316.982.982,0,0,1,.688.105,8.726,8.726,0,0,1,2.987,3.834,10.881,10.881,0,0,1,.925,5.051q-.423,5.87-6.134,6.557-1.163.265-3.6.635a23.513,23.513,0,0,1-7.4-.951q-5.131-1.321-6.294-2.751a32.681,32.681,0,0,1-2.909-4.812q-2.169-4.283-2.22-6.769a19.138,19.138,0,0,1,.583-4.124q.422-2.169.846-4.337a42.091,42.091,0,0,1,1.48-5.711q.476-1.428,3.067-6.874a24.152,24.152,0,0,0,.423-3.6,20.758,20.758,0,0,1,.688-4.442,3.114,3.114,0,0,1,2.01-1.693q1.321-.476,2.7-.952a9.006,9.006,0,0,1,2.962-1.163l1.956-.105q1.216-.159,8.355-1.9,5.869-1.428,8.355-1.164,2.856.318,3.755,1.9Q1241.645,1775.757,1243.284,1778.877Zm78.848,6.77q.105,3.173-2.7,6.715a23.86,23.86,0,0,1-5.235,4.866,36.054,36.054,0,0,1-8.409,3.649l-4.019,1.323q-.687.265-1.428,4.6a35.31,35.31,0,0,0-.688,5.606v7.3q-.264,1.166-.581,2.328a3.61,3.61,0,0,1-1.772,2.221,3.568,3.568,0,0,1-2.829.211q-1.217-.371-1.639-.529a3.213,3.213,0,0,1-1.322-.9,9.16,9.16,0,0,1-1.957-6.187,39.89,39.89,0,0,1,.4-4.627,40.114,40.114,0,0,0,.4-4.469,10.73,10.73,0,0,0-.159-1.956,8.011,8.011,0,0,0-1.639-1.693q-2.011-1.8-2.539-2.379a5.5,5.5,0,0,1-1.163-3.755,12.123,12.123,0,0,1,.739-4.125,7.4,7.4,0,0,1,1.112-1.56,3.443,3.443,0,0,1,1.48-1.242,18.915,18.915,0,0,0,2.327-.529,1.355,1.355,0,0,0,.846-1.216q.423-4.969.424-5.5,0-.634-.847-.634a11.139,11.139,0,0,0-5.235,1.163,11.17,11.17,0,0,1-4.547,1.587,3.582,3.582,0,0,1-.926-.107,6.412,6.412,0,0,1-1.48-.846q-1.085-.74-1.455-.635-.9,1-.74,1.587a16.009,16.009,0,0,1,.793,4.759q0,.529-.159,2.591a21.972,21.972,0,0,0,0,3.068,42.185,42.185,0,0,1-.317,6.134q-.318,3.331-.688,6.663a5.291,5.291,0,0,0,.291,1.692q.344,1.218.4,1.428a28.391,28.391,0,0,1,0,5.5q-.318,2.219-.424,2.643a7.5,7.5,0,0,1-1.8,3.438q-.688.846-3.808.847a5.574,5.574,0,0,1-2.7-.423q-2.38-1.535-3.384-6.294-1.057-5.184-2.7-6.874a48.339,48.339,0,0,1-3.7-5.924q-.477-.951-.952-1.9a5.885,5.885,0,0,0-1.8-2.115q-1.27.529-3.173,10.523,0,.107-.581,4.5a12.7,12.7,0,0,1-1.005,3.86,3.1,3.1,0,0,1-3.491,1.639q-5.765-1-5.764-7.3a29.5,29.5,0,0,1,.688-5.447q.9-4.177,1.8-8.408a66.927,66.927,0,0,0,1.164-9.043q.423-6.874.424-7.087a2.083,2.083,0,0,0-.345-.713,1.861,1.861,0,0,1-.343-.873q0-5.394.185-7.007a5.421,5.421,0,0,1,1.824-3.2,4.87,4.87,0,0,1,3.384-1.587,3.026,3.026,0,0,1,1.375.317c.106.036.687.159,1.745.37a3.612,3.612,0,0,1,1.8.741q1.534,1.481,1.851,5.287.211,3.123.371,6.24a11.794,11.794,0,0,0,2.115,4.76q1.533,1.957,3.068,3.914,1,1.535,2.009,3.014,1.481,2.011,2.221,1.851.053-.792.424-3.331.368-2.327.37-2.539v-7.033q0-.107.212-1.878t.264-2.672q.105-1.85.529-6.081a2.22,2.22,0,0,1,.951-1.508,2.981,2.981,0,0,1,1.745-.554,5.346,5.346,0,0,1,3.755,1.771,5.139,5.139,0,0,1,1.8,3.622,15.479,15.479,0,0,1,2.962-2.538q.265-.158,2.75-1.084t2.75-.979a26.605,26.605,0,0,1,2.75-.423,3.725,3.725,0,0,1,2.38.793q1-.636,1.955-1.269a4.247,4.247,0,0,1,2.064-.793,7.021,7.021,0,0,1,1.612.317,5.579,5.579,0,0,0,1.825.264q1.955-.105,4.97-.211a57.714,57.714,0,0,1,9.572.687q.475.107,1.956.608a10.743,10.743,0,0,1,1.8.714,12.918,12.918,0,0,1,4.046,5.234A18.688,18.688,0,0,1,1322.132,1785.647Zm-11-1.323q.211-1.638-4.072-2.221-2.855-.158-5.711-.37a1.179,1.179,0,0,0-1.428.9q.316,2.38,1.163,6.294.265.741,1.323.74,1.8,0,5.447-2.064Q1310.921,1785.912,1311.132,1784.324Zm50.08-6.029q.158,2.062.159,1.64a3.516,3.516,0,0,1-1.481,2.961q-1,.741-8.673,2.221-3.331.529-6.61,1.057a67.453,67.453,0,0,0-9.677,2.7,4.6,4.6,0,0,0-2.037,2.168,8.867,8.867,0,0,0-1.19,2.908,3.1,3.1,0,0,0,2.432.793q.634,0,4.495-.581a25.97,25.97,0,0,0,6.135-1.376q1.9-1,3.86-1.956,1.532.583,2.723,3.227a12.456,12.456,0,0,1,1.19,5.129,4.66,4.66,0,0,1-1.8,4.019,9.2,9.2,0,0,1-4.231,1.323l-4.547.423q-3.068.634-9.2,1.639-1.481.107-3.014.159a7.106,7.106,0,0,0-2.829.74,1.733,1.733,0,0,0-1.031,1.535.746.746,0,0,0,.105.423,6.362,6.362,0,0,0,5.394,2.855,10.535,10.535,0,0,0,4.865-1.322q.475-.158,3.438-1.268a12.767,12.767,0,0,1,2.907-.848.306.306,0,0,1,.212.053,8.67,8.67,0,0,1,3.067,6.981,7.893,7.893,0,0,1-1.375,4.655,7.176,7.176,0,0,1-4.494,2.855,19.173,19.173,0,0,1-2.116,1.057,14.631,14.631,0,0,1-4.548.423q-9.784-.316-14.384-6.715a15.563,15.563,0,0,1-2.591-9.149,25.642,25.642,0,0,1,.687-5.818,45.91,45.91,0,0,1,3.834-9.969q2.671-5.208,5.421-10.444a18.965,18.965,0,0,0,.74-2.7,6.586,6.586,0,0,1,1.428-2.829,7.382,7.382,0,0,1,3.438-1.718q2.168-.527,4.336-1.005,6.557-1.479,18.4-4.6a3.5,3.5,0,0,1,1.957.211,3.39,3.39,0,0,1,2.062,1.217q.634,1.639,1.956,4.547A6.038,6.038,0,0,1,1361.213,1778.3Zm118.35,6.663c-.1.212-.37.317-.793.317a20.155,20.155,0,0,1-4.231-1.111,6.393,6.393,0,0,0-1.48.317,23.439,23.439,0,0,1-2.909.582,62.911,62.911,0,0,1-6.874.424,49.633,49.633,0,0,0-11,.9q-3.332.581-6.663,1.111-4.073,1.058-4.072,4.231a8.33,8.33,0,0,0,.16,1.533h7.3a21.221,21.221,0,0,0,7.139-1.11q.422-.16,1.587.846a11.891,11.891,0,0,1,3.383,4.919,6.5,6.5,0,0,1,.425,3.173q-.16,1.11-.318,2.22a4.713,4.713,0,0,1-.9,2.275,5.352,5.352,0,0,1-2.274,1.323,22.909,22.909,0,0,0-2.75,1.057,6.3,6.3,0,0,0,1.215,1.244,3.873,3.873,0,0,1,1.269,1.666,8.189,8.189,0,0,1,.265,2.274,8.475,8.475,0,0,1-1.481,5.394q-1.057,1.377-4.283,2.063l-5.711,1.058a9.244,9.244,0,0,0-.873.317,3.859,3.859,0,0,1-1.3.317,25.922,25.922,0,0,1-8.355-1.322q-5.131-1.693-7.3-5.13-.9-1.428-1.322-1.428a.7.7,0,0,0-.424.159q-1.217,2.22-2.485,4.442-2.01,3.227-4.071,4.072a9.849,9.849,0,0,1-3.437.635q-4.5,0-11.477-2.856a37.726,37.726,0,0,1-9.413-5.658,23.361,23.361,0,0,1-6.028-6.451q-.741-.846-2.063-2.485a.757.757,0,0,0-.581.316,12.031,12.031,0,0,0-.634,4.02q0,1.058.184,3.093t.185,3.041a10.72,10.72,0,0,1-.846,4.389q-1.059,2.434-2.38,2.539-4.918.582-6.346-4.812-.583-2.115-.688-9.148,0-.847-1-1.005a9,9,0,0,0-1.851-.159,30.906,30.906,0,0,0-5.606.582,19.632,19.632,0,0,0-4.655,1.322q-.369.688-1,1.745a49.14,49.14,0,0,0-2.169,4.6q-2.221,5.182-4.547,6.028-1.535-.74-4.548-2.274-.318-.159-.9-2.169a10,10,0,0,1-.423-2.856,7.176,7.176,0,0,1,1.534-4.653,19.824,19.824,0,0,0,3.278-6.4q2.222-6.663,2.433-7.192a3.484,3.484,0,0,1,.925-.925,6.253,6.253,0,0,0,1.084-1.032,21.308,21.308,0,0,0,1.586-2.539q3.067-5.869,6.082-11.74,4.284-7.4,8.567-9.624a3.277,3.277,0,0,1,1.64-.318,3.377,3.377,0,0,1,2.379.741q4.072,3.649,5.975,10.523a62.737,62.737,0,0,1,1.693,11q1.11,0,2.485-2.379a38.374,38.374,0,0,1,2.116-3.649,34.668,34.668,0,0,1,11.74-8.567,31.714,31.714,0,0,1,13.326-3.172,21.967,21.967,0,0,1,3.808.316,5.671,5.671,0,0,1,2.776,2.036,10.092,10.092,0,0,1,2.142,3.464,21.139,21.139,0,0,1,1.057,6.822,9.7,9.7,0,0,1-.264,2.432,10.561,10.561,0,0,1-1.8,3.7,6.515,6.515,0,0,1-3.119,2.592,2.311,2.311,0,0,1-.9.158,9.95,9.95,0,0,1-3.887-.952q-2.195-.951-2.512-1.956a8.254,8.254,0,0,1-.423-4.971q.053-.158.423-1.111a3.271,3.271,0,0,0,.265-1.11,1.521,1.521,0,0,0-.476-1.111q-5.184-.582-10.841,4.759t-5.447,10.365q.051,1.377,4.23,4.231a26.218,26.218,0,0,0,5.553,2.8,19.538,19.538,0,0,0,6.558,1.428,12.271,12.271,0,0,0,6.451-2.38,14.113,14.113,0,0,1,2.75-1.375q.9.846,2.539,2.274.687-.422.74-2.591a18.586,18.586,0,0,1,.212-3.226q.58-2.22,2.009-6.822,1.11-2.538,3.172-7.51,0-1.321.106-3.491a10.7,10.7,0,0,1,1.586-4.151q1.217-1.876,4.707-2.935a27.214,27.214,0,0,1,4.442-.634q4.653-.477,5.818-.635,3.172-.581,6.4-1.164a37.52,37.52,0,0,1,6.927-.687,7.463,7.463,0,0,0,2.063-.582,13.863,13.863,0,0,1,2.433-.793q.263-.053,3.279-.794a13.525,13.525,0,0,1,3.278-.528,6.124,6.124,0,0,1,5.447,3.332,12.491,12.491,0,0,1,1.745,6.558A7.567,7.567,0,0,1,1479.563,1784.959Zm-101.9,4.336a26.405,26.405,0,0,0-.316-2.75,1.381,1.381,0,0,0-.609-.794,2.166,2.166,0,0,0-1.084-.475q-1.323,2.487-2.644,5.024a11.63,11.63,0,0,0-1.691,4.759h3.172a4.584,4.584,0,0,0,2.327-.581Q1377.447,1794,1377.658,1789.3Zm75.464,18.3q-4.231-.369-5.817-.371h-5.447q-1.057-.051-3.279-.052-1.957.107-1.851,1.744a14.769,14.769,0,0,0,5.552,1.428,8.821,8.821,0,0,0,3.332-.687,3.612,3.612,0,0,1,1.93-.133,4.916,4.916,0,0,0,1.984-.026A10.558,10.558,0,0,0,1453.122,1807.593Z" transform="translate(-1081.252 -1769.87)" fill="#fff"/>
    </g>
  </g>
</svg>
