<svg xmlns="http://www.w3.org/2000/svg" width="260" height="101.28" viewBox="0 0 260 101.28">
  <g id="Group_135" data-name="Group 135" transform="translate(-397.614 -336.282)">
    <g id="Group_1" data-name="Group 1" transform="translate(397.614 336.282)">
      <path id="Path_1" data-name="Path 1" d="M818.261,393.162l5.592-11.509,15.99.085h.539c.181,9.254.362,18.669.545,28.038h-11.66V393.74h-.38s-5.671,11.457-7.936,16.2h-4.461c-1.957-4.1-8.605-15.578-8.605-15.578l-.387,0s.366,10.356.552,15.617l-11.56.586c-.085-1.308-.206-2.529-.237-3.753-.171-6.531-.337-13.062-.462-19.594-.026-1.338.1-4.923.1-4.923l16.529-.5Z" transform="translate(-702.167 -370.985)"/>
      <path id="Path_2" data-name="Path 2" d="M1354.444,485.736c.157,2.785.3,5.376.457,8.132L1326.35,497.5c.055.81.108,1.6.175,2.6l28.421-3.389.435,7.514s-9.274,1.056-13.414,1.514c-4.875.539-9.753,1.045-14.814,1.584.068.809.133,1.592.214,2.555l28.212-2.863c0,2.435-.047,7.762-.047,7.762s-7.262.952-10.493,1.271c-9.348.92-18.7,1.791-28.052,2.68-.24.023-.481.029-.88.051l-1.8-27.265Z" transform="translate(-1098.774 -450.596)"/>
      <path id="Path_3" data-name="Path 3" d="M1362.541,357.01l.612,7.5-39.513,6.341c0-1.116-.019-2.158,0-3.2.157-7.522.354-16.031.5-23.553,0,0,14.769-3.545,21.732-5.062,4.849-1.056,9.759-1.831,14.791-2.759.292,2.814.56,5.393.839,8.077-2.414.367-4.753.652-7.065,1.087-6.414,1.206-20.225,3.891-20.225,3.891l.141,2.408,27.32-4.879c.217,2.659.407,5,.608,7.473-1.386.193-2.744.337-4.086.575-7.263,1.288-23.644,4.249-23.644,4.249l.127,2.419C1343.909,360.017,1353.028,357.753,1362.541,357.01Z" transform="translate(-1105.905 -336.282)"/>
      <path id="Path_4" data-name="Path 4" d="M779.364,539.177c-2.136,0-4.173-.015-6.209,0q-3.443.033-6.885.122a1.072,1.072,0,0,1-1.222-.709,3.52,3.52,0,0,0-2.445-2.023,9.682,9.682,0,0,0-6.237.187c-.818.32-1.627.762-1.531,1.782.1,1.091,1.08,1.188,1.915,1.313,3.873.582,7.759,1.083,11.621,1.727a20.712,20.712,0,0,1,8.115,2.893c4.324,2.836,4.507,7.612.4,10.788a19.9,19.9,0,0,1-9.286,3.595,48.7,48.7,0,0,1-17.384-.149,17.2,17.2,0,0,1-8.325-3.689,7.575,7.575,0,0,1-2.669-5.029c.36-.037.725-.1,1.09-.106,4.061-.035,8.122-.048,12.183-.1a1.356,1.356,0,0,1,1.234.681,4.546,4.546,0,0,0,1.991,1.455,11.282,11.282,0,0,0,5.844.492c.207-.041.416-.083.618-.143,1.27-.376,1.971-1.049,1.837-1.866-.183-1.118-1.135-1.241-2.008-1.368-4.05-.591-8.137-1-12.145-1.793a26.88,26.88,0,0,1-7.165-2.435c-5.395-2.826-3.916-8.369-.939-11.02a19.06,19.06,0,0,1,9.365-4.162,39.6,39.6,0,0,1,17.748.14c3.366.873,6.467,2.284,8.683,5.129A8.01,8.01,0,0,1,779.364,539.177Z" transform="translate(-658.802 -483.449)"/>
      <path id="Path_5" data-name="Path 5" d="M568.889,534.758h11.419s.01,11.326.044,12.915A5.654,5.654,0,0,0,584.5,553.3a9.9,9.9,0,0,0,6.85-.069A5.553,5.553,0,0,0,595.2,547.6c-.062-3.848-.223-7.694-.338-11.541-.013-.421,0-.842,0-1.449l11.562-.352c0,1.7-.009,3.247,0,4.789.021,3.072.032,6.145.084,9.217.107,6.285-2.742,10.9-8.351,13.445-8.042,3.651-16.027,3.226-23.487-1.712a12.514,12.514,0,0,1-5.78-10.649C568.8,544.76,568.889,534.758,568.889,534.758Z" transform="translate(-528.588 -487.71)"/>
      <path id="Path_6" data-name="Path 6" d="M1036.9,410.732l-12.085-.024-2.065-3.825-15.858-.006-1.168,3.814-13.35-.064s10.891-19.242,15.857-28l12.162.245Zm-18.675-11.5-3.4-5.745-3.448,5.745Z" transform="translate(-852.531 -371.734)"/>
      <path id="Path_7" data-name="Path 7" d="M437.03,409.677a12.4,12.4,0,0,1-4.582,4.294,24.872,24.872,0,0,1-11.667,3.05,32.283,32.283,0,0,1-14.887-2.575c-4.439-2.031-7.545-5.26-8.173-10.292-.675-5.412,1.88-9.969,6.9-12.6,5.18-2.714,10.744-3.309,16.475-2.851a28.967,28.967,0,0,1,10.519,2.628,12.558,12.558,0,0,1,5.106,4.225c-1.836.816-3.6,1.6-5.363,2.381-1.292.568-4.531,1.934-4.531,1.934l-.289-.3c-2.543-2.443-5.681-2.6-8.913-2.355a9.649,9.649,0,0,0-5.042,1.743,4.362,4.362,0,0,0,.017,7.394c3.348,2.407,11.051,2.467,13.928-.906l.293-.378S433.7,408.167,437.03,409.677Z" transform="translate(-397.614 -376.273)"/>
      <path id="Path_8" data-name="Path 8" d="M942.409,541.906v16.607l-11.308.661c-.2-5.722-.4-11.374-.607-17.076H916.346V530.874H956v10.563Z" transform="translate(-794.38 -485.121)"/>
      <path id="Path_9" data-name="Path 9" d="M1187.109,538.15a12.978,12.978,0,0,1-4.764,4.816c-8.219,4.833-16.787,5.249-25.322,1.165-8-3.828-7.288-11.687-3.293-16.6a21.462,21.462,0,0,1,11.384-6.941c5.167-1.434,10.351-1.834,15.521,0a12.131,12.131,0,0,1,5.676,3.943l-6.591,4.08c-.06.037-2.613,1.491-2.669,1.534l-1.6-1.268c-2.73-1.909-8.531-.825-11.06,1.671a7.025,7.025,0,0,0-1.443,1.926,3.523,3.523,0,0,0,1.44,4.688c3.405,2.154,10.284.807,12.987-2.149l.449.162S1183.942,537.128,1187.109,538.15Z" transform="translate(-973.728 -476.316)"/>
      <path id="Path_10" data-name="Path 10" d="M402.135,548.143H413.92c.053.518.088.893.13,1.268a5.393,5.393,0,0,0,2.58,4.277,8.693,8.693,0,0,0,6.933,1c2.536-.671,3.866-2.684,3.916-5.61.069-4.059.163-8.909.25-12.968.006-.277.046.237.067,0h11.527c0,.708,0,1.225,0,1.743,0,3.884-.064,7.77,0,11.653.1,6.32-2.871,10.678-8.43,13.383-7.281,3.543-18.237,2.074-24.144-3.219A13.736,13.736,0,0,1,402.135,548.143Z" transform="translate(-401.053 -489.06)"/>
      <path id="Path_11" data-name="Path 11" d="M1193.326,371.669v10.175l-13.25,2.188V400.3l-10.263,1.265V384.776h-13.3c-.137-3.38-.271-6.685-.413-10.2A170.233,170.233,0,0,0,1193.326,371.669Z" transform="translate(-977.765 -363.349)"/>
      <path id="Path_12" data-name="Path 12" d="M578.314,389.889h11.058c.121,5.867.242,11.782.367,17.844l22.887-.6.509,10.241s-22.9.951-34.345.556C578.631,408.6,578.475,399.366,578.314,389.889Z" transform="translate(-535.827 -377.285)"/>
      <path id="Path_13" data-name="Path 13" d="M744.906,412.908H733.437a206.045,206.045,0,0,1-.371-28.6h11.128c0,4.585-.091,9.606.026,14.276C744.336,403.276,744.66,407.959,744.906,412.908Z" transform="translate(-653.93 -373.019)"/>
      <path id="Path_14" data-name="Path 14" d="M1104.519,556.128l-11.115.9V530.448h11.115Z" transform="translate(-929.808 -484.795)"/>
    </g>
    <g id="Group_3" data-name="Group 3" transform="translate(557.991 421.927)">
      <g id="Group_2" data-name="Group 2" transform="translate(0 0)">
        <path id="Path_15" data-name="Path 15" d="M1080.862,712.268a.8.8,0,0,1,.254.146c.126,0,.245.162.366.162,0,.056.251.129.3.129,0,.032.1.049.135.049a.914.914,0,0,1,.327.13c.228.016.337.1.541.128,0,.064.4.094.4.129a10.813,10.813,0,0,0,1.161.114,3.3,3.3,0,0,1,.414-.034c.133,0,.237.065.391.021s.243.016.386.022c.162.008.3-.043.435-.043.171,0,.233-.074.4-.092a4.012,4.012,0,0,1,.4-.084c0-.091.4-.047.4-.113.076,0,.137-.052.23-.064.034-.005.214-.031.214-.066a1.273,1.273,0,0,0,.3-.127c.106-.011.149-.03.225.041s.067.252.1.346a4.086,4.086,0,0,1-.067.581c0,.221.019.476.019.72s-.04.428-.049.687c.021,0,.03.148.064.176.045.09.019.144.013.23-.015.152.162.189.242.271l.109.048c0,.033.094.064.128.064l.35.113a.368.368,0,0,0,.17.119c.027.011.114.023.114.059.052,0,.027.03.071.041.185.055,1.005-.4,1.091-.444.032-.159.166-.266.18-.469s.074-.36.074-.556c0-.072.027-.591-.032-.591a1.274,1.274,0,0,0-.037-.332.856.856,0,0,1,.005-.248c.03,0,.048-.148.048-.183a2.592,2.592,0,0,1,.037-.27c.008-.146-.005-.24-.005-.388.021,0,.047-.145.047-.177a1.525,1.525,0,0,0,.1-.4,2.068,2.068,0,0,1,.063-.258c.057,0-.008-.291.047-.291l.048-.129c0-.081.037-.142.046-.242.025-.194.106-.264.086-.457a2.347,2.347,0,0,1,.139-.335c0-.144.094-.273.094-.387.035,0,.084-.134.094-.177.047,0,.056-.211.095-.211l.081-.16a.364.364,0,0,1,.1-.162.271.271,0,0,0,.063-.145.342.342,0,0,0,.112-.2.951.951,0,0,0,.059-.434,1.656,1.656,0,0,1-.059-.322,1.061,1.061,0,0,1-.112-.324c-.043,0-.052-.339-.094-.339a1.093,1.093,0,0,0-.113-.372c-.07-.036-.076-.144-.142-.177-.025-.1-.069-.158-.1-.27a.331.331,0,0,0-.13-.2l-.153-.11c-.028,0-.145,0-.145-.033a2.825,2.825,0,0,1-.35-.08c-.083,0-.1-.033-.189-.033,0-.033-.246-.009-.289-.024a.427.427,0,0,0-.232.032.787.787,0,0,1-.269.031.344.344,0,0,0-.227.011l-.146.063a1.251,1.251,0,0,0-.363.063c-.038.015-.254.067-.254.067-.05,0-.526.058-.526.063-.091,0-.138.032-.228.036-.136.008-.276.014-.414.023-.172.008-.281.071-.438.071s-.272.077-.45.087c-.048,0-.266,0-.266.042l-.159.048c-.1.012-.557.033-.557.13-.073,0-.116.033-.216.036-.12.006-.24.028-.34.028,0,.05-.4.1-.46.1,0,.019-.254.023-.3.042-.093.037-.256.07-.316.151a.578.578,0,0,0-.134.226.149.149,0,0,0-.066.131c-.082,0-.084.338-.141.338,0,.087-.027.229-.031.339l-.047.169a.9.9,0,0,1-.034.227c-.023.085,0,.106,0,.186a1.808,1.808,0,0,1,.205.452c.064,0,.111.21.144.242.053.055.053.125.119.179.038.031.052.08.1.08.026.051.037.012.063.064.06,0,.086.049.177.044.106-.008.148.037.252.008.081-.022,1.115-.194,1.115-.23a3.543,3.543,0,0,1,.428-.048c0-.043.275-.044.334-.048,0-.023.158-.048.191-.048,0-.043.46-.03.46-.08.05,0,.221-.009.221-.048.078,0,.175-.016.271-.016,0-.046.333-.067.333-.113.151-.009.27-.033.409-.043.094-.007.125.031.213.059.046.057.064.387,0,.387a.63.63,0,0,1-.151.356,1.326,1.326,0,0,0-.207.194c-.044.06-.124.079-.169.145l-.317.145c-.136.035-.2.1-.361.145-.119.038-.163.119-.278.139l-.349.056a2.852,2.852,0,0,0-.666.127c-.044,0-.6.1-.6.018-.237,0-.455-.066-.694-.066a3.109,3.109,0,0,0-.463-.03c-.074.009-.368-.012-.368-.068a3.373,3.373,0,0,0-.416-.136c-.138-.012-.273-.027-.41-.041,0-.054-.207-.032-.207-.1-.042-.009-.477-.145-.477-.145-.129,0-.212-.091-.366-.114,0-.02-.3-.095-.349-.153l-.127-.12a.356.356,0,0,0-.062-.129,1.117,1.117,0,0,1-.177-.5c-.023-.087-.045-.627.016-.627a1.068,1.068,0,0,1,.1-.34c0-.056.065-.124.065-.178.075-.038.052-.14.126-.177a.21.21,0,0,1,.08-.145c.014-.075.078-.118.078-.178.03,0,.07-.141.112-.163,0-.087.142-.121.142-.208a.363.363,0,0,0,.134-.237c.021-.106.186-.15.186-.249a.2.2,0,0,0,.094-.162.383.383,0,0,0,.112-.145c.088,0,.169-.173.238-.225a.487.487,0,0,1,.142-.236l.081-.121c0-.089.158-.181.213-.256.042-.058.136-.074.136-.162.055-.029.037-.074.095-.114,0-.025.031-.011.048-.049.062,0,.173-.148.224-.193,0-.077.11-.142.174-.193,0-.081.2-.224.254-.292.075,0,.151-.114.206-.177.083-.095.162-.148.242-.236a.567.567,0,0,1,.252-.2,1.151,1.151,0,0,1,.476-.388,1.773,1.773,0,0,1,.206-.209l.143-.066c.092,0,.144-.073.24-.1.03-.048.12-.131.173-.131a.941.941,0,0,0,.237-.146c.037-.036.206-.068.206-.111.072-.025.12-.066.177-.066l.152-.08c.084-.024.134-.1.222-.122.055-.012.113-.073.167-.073.06-.091.137-.054.239-.033.033.07.138.057.2.13.076.092.247.235.247.339l.143.292c.089.043.1.323.159.323a.281.281,0,0,0,.1.194c0,.076.112.1.112.178.052.025.067.1.13.121a.737.737,0,0,0,.225.047,3.532,3.532,0,0,0,.409-.055c0-.055.391-.12.466-.188s.125-.142.2-.2l.063-.129a2.864,2.864,0,0,1,.069-.309,1.89,1.89,0,0,0-.023-.272c-.062,0-.066-.323-.094-.323,0-.047-.084-.372-.143-.372-.017-.2-.1-.371-.1-.549-.027,0-.088-.254-.159-.291a1.03,1.03,0,0,0-.3-.409,3.824,3.824,0,0,0-.571-.492.951.951,0,0,0-.276-.1c0-.021-.15-.048-.18-.048a3.874,3.874,0,0,1-.479-.1,1.607,1.607,0,0,0-.24.017l-.435-.01c-.049,0-.272,0-.272.045a.728.728,0,0,0-.287.048c0,.024-.109.056-.143.064,0,.039-.159.047-.159.081-.065.014-.18.045-.207.1a.469.469,0,0,0-.176.113c-.076.079-.252.088-.333.21a.469.469,0,0,0-.206.161c-.074,0-.117.12-.158.162-.078.079-.208.1-.287.178-.038.037-.009.042-.064.093a.679.679,0,0,0-.119.118.161.161,0,0,1-.1.063c-.041.052-.062.092-.126.113a.291.291,0,0,1-.159.114c-.152.181-.755.664-.78.71a.605.605,0,0,0-.19.113.2.2,0,0,0-.143.064c-.11.028-.584.62-.7.69a.468.468,0,0,0-.173.134c-.058,0-.206.132-.206.193-.047.024-.025.064-.078.064,0,.027-.03.011-.048.049-.071,0-.108.111-.155.15a.573.573,0,0,0-.18.287c-.045,0-.251.352-.3.4l-.047.1c-.048.038-.076.053-.1.113-.068.024-.081.116-.142.146a1.225,1.225,0,0,1-.207.226c0,.064-.095.092-.095.145-.072.037-.079.14-.159.195,0,.09-.143.122-.143.209-.1.053-.12.247-.237.309-.035.142-.176.255-.176.387-.064,0-.128.379-.132.435-.01.126-.091.475-.091.5-.05,0-.079.321-.079.372-.018,0,.048,1.813.048,2,.009,0,.027.313.031.346l.055.11a1.77,1.77,0,0,1,.055.215,2.824,2.824,0,0,0,.1.395l.1.162.1.16c0,.078.039.12.109.18.017.033.1.112.145.112.038.048.129.162.19.162.034.067.162.158.222.225" transform="translate(-1079.715 -700.539)"/>
        <path id="Path_16" data-name="Path 16" d="M1181.789,711.247a1.379,1.379,0,0,0-.138-.492c-.009-.048-.078-.388-.078-.388-.013-.116-.046-.166-.054-.263-.012-.176-.089-.216-.112-.366a2.207,2.207,0,0,0-.152-.34c-.031-.091-.084-.141-.113-.225a.357.357,0,0,0-.126-.177c0-.128-.219-.185-.327-.188-.161,0-.315.041-.474.041-.136,0-.393.021-.454.147-.065.015-.506.1-.637.112,0,.035-.346.066-.381.066a1.671,1.671,0,0,0-.3.032c0,.019-.13.049-.16.049a1.889,1.889,0,0,1-.589.032,2.616,2.616,0,0,1-.3-.028c-.039,0-.165-.05-.165-.084-.189-.157-.123-.359-.062-.567a1.084,1.084,0,0,1,.08-.289.348.348,0,0,0,.158-.178,1.407,1.407,0,0,0,.3-.194c.066-.006.32-.015.32-.065.054,0,.077-.033.126-.033,0-.031.185-.029.224-.031,0-.045.173-.031.173-.082.119,0,.165-.064.287-.064,0-.033.263-.082.314-.083.074,0,.368-.009.368-.093.084,0,.148-.066.24-.066.118,0,.178-.064.323-.064.121,0,.193-.049.328-.049s.3-.048.438-.048c.091,0,.165-.048.283-.048s.223-.082.327-.082c0-.006.415-.08.468-.08.12,0,.184-.061.288-.07.06,0,.325-.028.325-.076a.543.543,0,0,0,.255-.105c.112-.072.142-.1.142-.229,0-.086.038-.039.064-.118.064-.044.052-.076.055-.153s.017-.181-.055-.219l-.094-.178a1.864,1.864,0,0,0-.08-.3c-.058,0-.1-.292-.175-.292a2.392,2.392,0,0,0-.08-.339c-.02,0-.072-.111-.079-.146l-.1-.146a.444.444,0,0,1-.16-.225,1.139,1.139,0,0,1-.191-.227c-.1-.026-.123-.1-.221-.129,0-.081-.4-.047-.459-.042a3.909,3.909,0,0,1-.589.042c-.167,0-.3.048-.477.048l-.2.065a1.538,1.538,0,0,1-.329.058,1.121,1.121,0,0,0-.207.048,2.026,2.026,0,0,1-.4.1c-.075,0-.137.033-.214.033a.435.435,0,0,0-.207.048c-.07.023-.494.08-.494.144-.025,0-1.022.242-1.137.253-.085.01-.131.057-.22.05-.142-.009-.174-.011-.3-.011-.037,0-.2.038-.2.063a2.141,2.141,0,0,0-.541.163c-.187.062-.3.21-.5.219a1.507,1.507,0,0,0-.42.023.893.893,0,0,0-.329.236c-.036.037-.1.066-.1.118-.037.026-.091.057-.109.1-.1,0-.157.18-.223.225l-.1.21a1.783,1.783,0,0,1-.027.309,2.857,2.857,0,0,0,0,.521,1.29,1.29,0,0,0,.065.565.582.582,0,0,0,.142.174c0,.024-.02.127.016.127,0,.066.113.135.143.212s.111.049.111.144l.048.1a.5.5,0,0,1,.206.5c-.055,0-.05.371-.1.371-.027.171-.118.269-.159.436l-.1.177c-.024,0-.048.1-.081.114a.24.24,0,0,1-.062.128.223.223,0,0,1-.08.146c0,.166-.1.271-.133.432a3.836,3.836,0,0,0-.2.828c0,.076-.046.119-.046.184,0,.09-.016.22-.016.332a3.906,3.906,0,0,1-.047.44,1.692,1.692,0,0,0,.015.4c0,.108.032.136.032.225.076,0,.019.613.081.613,0,.124.095.261.095.388.039,0,.067.266.143.306l.049.113c0,.12,0,.016.023.1a.175.175,0,0,0,.072.122c0,.087.143.12.143.21.052.024.013.038.064.064,0,.055.055.078.094.112.019.041.158.091.158.1.033.021.055.081.065.081,0,.083.029.1.08.162.047,0,.147.087.174.129a.36.36,0,0,1,.175.113c.086,0,.124.129.207.129a.352.352,0,0,0,.19.13c0,.036.282.144.318.144,0,.109.414.052.414.147.115.017.2.046.3.063,0,.046.128.019.128.066a1.184,1.184,0,0,1,.38.112c.031.012.319.092.319.1.137,0,.3.107.441.119.1.01.167.034.274.044a.424.424,0,0,0,.255.048,4.151,4.151,0,0,0,1.157-.32c.073,0,.4-.224.4-.391.078-.041.032-.137.113-.177,0-.05.046-.373.08-.373a1.326,1.326,0,0,1,.046-.354c0-.1.016-.184.016-.259.019,0,.043-.118.041-.152,0-.051-.078-.4-.071-.4a1.5,1.5,0,0,0-.28-.581c-.048-.043-.243-.36-.309-.42l-.115-.116a.242.242,0,0,0-.177-.073c-.06-.007-.115.01-.193.01-.062,0-.1.049-.15.049-.043.061-.27.151-.27.21-.055,0-.286.041-.286.081-.13,0-.283.039-.446.048-.04.012-.3.108-.3.015-.1,0-.156-.031-.238-.031,0-.075-.444-.077-.444-.113-.081-.016-.351-.094-.351-.148l-.141-.063c-.061,0-.118-.082-.175-.082-.122-.151-.188-.226-.134-.438.023-.08,0-.155.056-.224a.388.388,0,0,0,.141-.193.286.286,0,0,1,.174-.1c0-.056.143-.031.143-.08.07,0,.13-.033.224-.033a1.629,1.629,0,0,0,.185-.039,3.418,3.418,0,0,1,.346-.009c.085,0,.176-.029.262-.037a1.411,1.411,0,0,0,.383-.091c.2,0,.3-.065.525-.081a4.726,4.726,0,0,1,.635-.049c.128,0,.219-.037.319-.026s.211.009.293.009c.189,0,.367-.048.577-.048a1.324,1.324,0,0,0,.368-.08,2.38,2.38,0,0,0,.312-.041c.031-.006.135-.056.135-.073.1-.019.209-.021.27-.112a.258.258,0,0,0,.232-.252" transform="translate(-1151.64 -703.223)"/>
        <path id="Path_17" data-name="Path 17" d="M1211.217,711.121l-.047.161c0,.09-.016.193-.016.259-.048,0-.1.355-.1.421-.052,0-.089.308-.1.385-.023.286-.141.537-.151.825-.008.195-.036.356-.059.534a1.062,1.062,0,0,0,.021.435s.062.454.062.5a1.5,1.5,0,0,1,.127.42l.079.129c.058.028.017.055.082.1,0,.049.026.053.061.081,0,.094.159.128.207.178a.482.482,0,0,1,.112.193c.061,0,.114.323.19.323,0,.074.064.123.064.195a2.045,2.045,0,0,1,.138.161l.052.129c0,.082.061.082.08.161.082.025.138.163.207.163.035.07.169.076.254.1,0,.041.285.1.349.113,0,.044.277.045.335.048l.159.088c.075.012.151.037.228.046s.116.043.168.043a.422.422,0,0,0,.36.125.221.221,0,0,1,.2.012.321.321,0,0,0,.215.021c.031,0,.191-.027.191,0,.054,0,.027.032.08.032.059.076.544-.043.659-.056.092-.012.9-.13,1.01-.136a1.118,1.118,0,0,0,.255-.066c0-.048.295-.128.342-.138.163-.037.316-.084.373-.249.135-.047.2-.238.227-.367l.058-.167c.006-.123.027-.235.041-.34a1,1,0,0,0,.038-.338c0-.1-.024-.594-.126-.646,0-.093-.131-.242-.133-.3s-.067-.117-.091-.186-.062-.055-.062-.144c0-.067,0-.081-.047-.126a1.14,1.14,0,0,1-.161-.164.359.359,0,0,1-.062-.148c-.146-.048-.178-.2-.346-.169-.032.006-.179.055-.179.056a.292.292,0,0,0-.159.1c-.077,0-.1.112-.173.112-.036.046-.121.145-.175.145-.039.078-.286.047-.286.113-.065,0-.383.008-.383.083-.071,0,.014.014-.078.014,0,.038-.12.011-.142.01-.041,0-.141-.027-.16-.024,0,.058-.954.063-.954-.034-.082,0-.217-.065-.317-.065,0-.037-.262-.079-.3-.079,0-.029-.233-.113-.285-.131-.055-.112-.159-.148-.177-.276a.739.739,0,0,1,.036-.364c.044-.1.156-.114.189-.231.031-.009.109-.058.109-.1h.191c.078,0,.128-.031.208-.031,0-.063.411-.053.411-.113a1.659,1.659,0,0,0,.392,0c.062-.012.123-.023.184-.033s.064-.043.091-.043c0,.069.542-.017.542-.017.031,0,.159-.02.159-.047a8.993,8.993,0,0,0,1.367-.194c.027,0,.406-.069.539-.08,0-.033.143-.031.143-.081a2.058,2.058,0,0,0,.224-.049c.169-.027.233-.125.4-.136a1.477,1.477,0,0,0,.3-.074c0-.047.126-.02.126-.064.082,0,.319-.068.319-.178a.4.4,0,0,0,.16-.29c.062,0-.041-.5.03-.5V710.9c0-.075-.03-.148-.03-.226l-.065-.147a.185.185,0,0,1-.08-.146c-.043,0-.095-.322-.176-.322a.688.688,0,0,0-.206-.4c0-.047-.067-.115-.1-.146-.055-.047-.059-.087-.112-.129s-.017-.043-.1-.066c-.053-.013-.107-.011-.133-.062l-.144-.081c-.066,0-.1-.04-.17-.034s-.162.066-.213.066c0,.04-.24.1-.285.112a.326.326,0,0,1-.158.1c-.054.083-.152.071-.255.081,0,.044-.269.08-.269.129a1.772,1.772,0,0,1-.415.1,3.862,3.862,0,0,1-.826.162c0,.06-.478.048-.478.081a1.679,1.679,0,0,1-.257.018c-.122-.012-.137-.1-.234-.148,0-.093-.024-.2.08-.284a.4.4,0,0,0,.109-.169.565.565,0,0,0,.158-.288l.066-.214.159-.129c.045-.065.1-.094.135-.145s.063-.034.085-.08a.3.3,0,0,0,.177-.113c.065,0,.106-.092.18-.109s.118-.054.186-.054c0-.03.137-.081.173-.081a5.784,5.784,0,0,1,1-.145c.383,0,.742-.08,1.136-.08.043,0,.2-.059.2-.033.044,0,.239.008.239-.032l.126-.048c.072,0,.161-.031.231-.031.052,0,.765-.151.865-.139a2.229,2.229,0,0,0,.591-.037.4.4,0,0,0,.172-.067,1.484,1.484,0,0,0,.2-.863,1.927,1.927,0,0,0-.15-.3.127.127,0,0,0-.065-.1.284.284,0,0,0-.046-.113.329.329,0,0,1-.081-.145.838.838,0,0,1-.286-.518,3.029,3.029,0,0,1-.288-.262c-.054-.045-.084-.093-.156-.093,0-.04-.034.008-.034-.031-.148,0-.248-.1-.38-.1a3.447,3.447,0,0,0-.734-.034,1.38,1.38,0,0,1-.339.051c-.1,0-.149.031-.231.031l-.2.049c-.1,0-.134.031-.206.031,0,.089-.411.065-.478.065,0,.033-.19.058-.238.067l-.112.063a2.9,2.9,0,0,1-.508.1c0,.059-.393.081-.462.081,0,.07-.428.033-.428.08a1.326,1.326,0,0,1-.3.06.952.952,0,0,0-.261.027,4.845,4.845,0,0,1-.532.074c0,.03-.2.063-.238.063,0,.057-.16.048-.16.081-.023,0-.078-.05-.078,0-.125,0-.011.016-.114.016a4.126,4.126,0,0,1-.556.259.462.462,0,0,0-.206.138c-.052.06-.123.083-.175.136a.945.945,0,0,1-.1.113c0,.052-.028.034-.04.088a1.261,1.261,0,0,0-.013.318,4.64,4.64,0,0,1-.042.6,1.7,1.7,0,0,1-.143.453l-.084.242a2.261,2.261,0,0,1-.137.355c-.024.069-.1.15-.1.209-.044.023-.073.178-.112.178-.012.076-.062.126-.062.193-.054.026-.086.211-.113.211-.046.143-.174.281-.174.42a2.475,2.475,0,0,0-.127.387c-.049,0-.08.414-.08.48a2.1,2.1,0,0,1-.08.409" transform="translate(-1179.933 -703.944)"/>
        <path id="Path_18" data-name="Path 18" d="M1268.8,709.881c.041,0,.271-.074.271-.113.08,0,.1-.029.166-.08.037-.029,1.378-1.109,1.455-1.123.032,0,.16-.055.16-.072.062,0,.116-.062.191-.08.027-.1.052-.1.112-.1-.01.052-.045.387-.08.387,0,.055-.045.107-.062.162a1.838,1.838,0,0,0-.113.356c-.052,0-.084.29-.141.29l-.066.146c0,.066-.032.084-.047.161-.061.032-.064.139-.064.21l-.048.178c-.041,0-.049.323-.111.323l-.127.42c0,.143-.094.281-.1.444a1.706,1.706,0,0,1-.087.412c0,.038-.01.225-.031.225a1.959,1.959,0,0,1-.013.365,1.475,1.475,0,0,0,0,.459.98.98,0,0,0,0,.331,3.792,3.792,0,0,1,.077.484c0,.066.063.557.127.557l.08.146c0,.068.063.108.079.176.06.031.021.083.079.115.014.06.048.064.048.112.073.037.107.155.18.221.093.082.161.345.313.345.037.073.161.134.222.209.082,0,.112.13.191.13a.34.34,0,0,0,.206.127l.175.1c0,.05.2.063.24.129l.141.082a1.617,1.617,0,0,0,.176.048c0,.055.338.1.406.105a2.44,2.44,0,0,0,.371.089c0,.038.227.031.272.031.115,0,.228.042.345.048s.256.008.385.015a4.156,4.156,0,0,0,.65.034c0-.048.128-.005.128-.048a1.078,1.078,0,0,0,.393-.048,1.5,1.5,0,0,1,.306-.113c.045-.095.349-.124.349-.177.074,0,.293-.062.337-.145.061-.016.191-.07.22-.129l.112-.048a.347.347,0,0,0,.176-.105c.057-.069.255-.194.255-.281.073-.038.123-.187.152-.275.016-.048.031-.356.052-.356,0-.028.055-.484,0-.484,0-.1.022-.695-.048-.695,0-.123-.077-.2-.109-.354-.033,0-.085-.2-.1-.242-.057-.031-.081-.12-.134-.162-.09-.074-.19-.216-.311-.2a2.048,2.048,0,0,0-.444.091,1.693,1.693,0,0,0-.3.114c-.108,0-.2.113-.3.113-.067.087-.109.083-.223.1l-.143.048c0,.041-.143.025-.143.066-.111.016-.123.056-.223.082,0,.029-.142.072-.174.08,0,.031-.224.048-.265.062a2.013,2.013,0,0,1-.72.1,1.66,1.66,0,0,1-.475-.084c-.076,0-.094-.063-.162-.063-.027-.042-.129-.13-.174-.13a.315.315,0,0,0-.206-.13.836.836,0,0,0-.143-.153c-.041-.03-.126-.217-.159-.217a1.916,1.916,0,0,1,0-.259c.055-.049.106-.133.159-.193.056,0,.038-.049.1-.049.027-.055.087-.055.143-.076a1.3,1.3,0,0,1,.37-.137c.236-.012.353-.06.571-.06.2,0,2.69-.39,2.831-.384s.884-.137,1.147-.168a2.811,2.811,0,0,1,.343-.03l.2-.064c.077,0,.124-.048.2-.048l.142-.08c0-.03.218-.124.254-.173a.387.387,0,0,0,.1-.216l.065-.145c.035,0,.095-.177.095-.227.066,0,0-.573,0-.63,0,0-.114-.289-.119-.323a1.663,1.663,0,0,0-.12-.339c-.032-.13-.092-.253-.142-.4-.052,0-.062-.2-.112-.2,0-.094-.155-.192-.227-.223a.94.94,0,0,0-.393-.115c0,.034-.158.095-.191.144a.431.431,0,0,0-.174.1l-.126.063a.247.247,0,0,1-.17.09,1.76,1.76,0,0,0-.326.152,1.163,1.163,0,0,0-.269.081c0,.037-.2.058-.254.065,0,.068-.494.076-.494.1-.045,0-.237-.008-.237.033a1.43,1.43,0,0,0-.348.028,2.9,2.9,0,0,1-.71.069c-.075,0-.532.074-.532,0a.267.267,0,0,1-.19-.129c-.047-.015-.094-.032-.143-.047,0-.06-.012-.119-.016-.178.017,0,.05-.155.1-.179,0-.051.1-.163.145-.192a.171.171,0,0,1,.079-.113c.019-.079.041-.06.063-.13.016,0,.07-.1.08-.127a.367.367,0,0,1,.127-.177c0-.081.106-.119.145-.2.065,0,.093-.081.157-.081,0-.024.128-.047.16-.047,0-.058.363-.1.363-.128.05,0,.255-.013.255-.049.074,0,.132-.064.21-.074s.552-.047.552-.121a1.216,1.216,0,0,0,.382-.1c.2-.033.292-.091.476-.1.05,0,.223-.022.223-.055.08,0,.185-.026.285-.033,0-.046.355-.1.423-.1.2-.013.352-.105.517-.105,0-.058.4-.017.4-.081a3.355,3.355,0,0,0,.754-.141c.054-.019.487-.063.487-.067.159,0,.3-.1.444-.1a1.149,1.149,0,0,1,.272-.145c0,.006.156-.119.19-.145a.658.658,0,0,0,.092-.324c.007-.1,0-.406,0-.436.047,0-.051-.774-.144-.774-.009-.039-.127-.363-.137-.434a4.015,4.015,0,0,0-.259-.657l-.08-.057c-.1,0-.167-.079-.239-.16-.071,0-.116-.1-.189-.1,0-.046-.144-.048-.193-.048,0-.048-.539.085-.539.08-.076,0-.115.049-.192.049,0,.046-.227.06-.27.065,0,.021-.953.231-.953.274-.09,0-2.321.549-2.321.6-.026,0-.638.178-.778.178a2.35,2.35,0,0,1-.541.064,3.233,3.233,0,0,0-.414.1,1.416,1.416,0,0,0-.4.081c-.107.037-.318.126-.318.273l-.047.115c-.076.063-.091.123-.144.177s-.031.113-.092.146c0,.062-.056.134-.066.217s0,.11-.063.162-.044.094-.1.121c0,.033-.017.129-.047.129-.027.171-.12.234-.143.4a1.256,1.256,0,0,0-.094.324.816.816,0,0,0-.129.291c-.024,0-.095.131-.095.162-.074.037-.074.148-.144.195,0,.069-.063.085-.063.161-.071.034-.062.143-.128.177,0,.078-.129.172-.191.226,0,.052-.084.122-.136.142-.275.116-.18-.29-.132-.435.027-.081.026-.513.077-.513v-.308c0-.074-.031-.148-.031-.225,0-.146-.065-.309-.065-.469,0-.056-.049-.292-.109-.292a2.217,2.217,0,0,0-.069-.28c-.008-.027-.008-.123-.044-.123-.016-.064-.064-.074-.064-.13a.361.361,0,0,1-.125-.226c-.043-.022-.018-.064-.047-.064,0-.072-.05-.051-.05-.113-.118-.08-.113-.277-.238-.34,0-.069-.132-.178-.191-.209,0-.078-.159-.135-.159-.178-.035,0-.27-.1-.27-.129-.039-.011-.317-.059-.317-.064-.07-.024-.149-.1-.207-.1a5.734,5.734,0,0,0-.758-.153c-.181-.006-.263-.056-.439-.056-.11,0-.714-.108-.788-.1-.05,0-.083-.03-.129-.03,0-.016-1.232-.069-1.344-.074-.091,0-.989-.006-1.072-.006a11.358,11.358,0,0,0-2.13.178,2.137,2.137,0,0,1-.557.129s-.384.084-.413.145c-.071,0-.16.152-.176.21a6.451,6.451,0,0,1-.672.177c-.1.034-.187.181-.257.259-.048.052-.119.124-.119.195l-.081.13c-.062.047-.073.124-.164.136-.134.016-.264-.21-.264-.306,0-.077-.03-.17-.03-.25l-.047-.114a.161.161,0,0,1-.081-.113c-.043-.036-.112-.068-.112-.129-.036-.017-.032-.064-.061-.064,0-.05-.064-.083-.1-.121a.627.627,0,0,0-.459-.234c-.036-.07-.174-.1-.241-.1,0-.031-.2,0-.238,0a.939.939,0,0,0-.42.259.462.462,0,0,0-.136.29c-.053,0,.022.257-.031.257,0,.248-.031.412-.016.664-.034,0-.041.328-.016.375.053.107.014.159,0,.272-.059,0-.08.309-.08.387a2.4,2.4,0,0,0-.063.549,2.452,2.452,0,0,0-.048.581c0,.067-.037.71-.046.71a.736.736,0,0,0-.008.259c.011.038.072.242.008.242a3.049,3.049,0,0,1-.082.6c0,.1,0,.219,0,.339.036,0-.016.087-.022.119-.015.084-.062.174-.086.285-.04,0,0,.032-.033.032-.041.062-.057.052-.127.049-.177,0-.217-.245-.334-.323,0-.073-.184-.227-.237-.275a.367.367,0,0,0-.127-.194c0-.086-.195-.215-.254-.274a.353.353,0,0,0-.113-.169c-.069-.061-.129-.2-.206-.234l-.063-.114c0-.173-.277-.28-.333-.453-.028-.083-.128-.156-.128-.226-.071-.054-.071-.141-.142-.177l-.1-.162a.279.279,0,0,0-.094-.21c0-.063-.117-.133-.111-.2,0-.034.046-.19,0-.19a.722.722,0,0,0-.1-.274,1.667,1.667,0,0,1,0-.533s-.027-.478-.031-.533c-.012-.168-.015-.333-.015-.5-.04,0-.035-.191-.035-.23,0-.093.022-.609-.092-.609,0-.044-.086-.211-.143-.211a.2.2,0,0,0-.159-.08c0-.045-.255-.065-.255-.129-.114-.029-.18-.126-.288-.161a.94.94,0,0,0-.3-.061c-.082,0-.577-.094-.577.013a.611.611,0,0,0-.191.064c-.077.027-.109.065-.174.065,0,.023-.141.1-.175.145-.061,0-.088.1-.144.1,0,.039-.2.372-.19.372,0,.145-.065.282-.065.411,0,.21-.067.381-.056.6a1.053,1.053,0,0,1,0,.213c-.007.084-.043.138-.043.2a1,1,0,0,0,.016.55c0,.041.068.257.1.257.016.244.033.474.067.726.009.077-.034.179-.034.263,0,.125,0,.252-.009.376a2.471,2.471,0,0,1-.024.356,1.587,1.587,0,0,0-.029.4,1.262,1.262,0,0,1-.021.4c-.034.129-.062.261-.092.391a2.868,2.868,0,0,0-.1.6,4.452,4.452,0,0,1-.127.548c0,.152-.095.309-.095.453-.062,0-.036.388-.094.388,0,.333-.13.481-.155.8a5.109,5.109,0,0,1-.1.715c-.033,0-.047.111-.047.145-.032,0-.03.262-.032.307.023,0-.044.374-.039.436a.869.869,0,0,1,.016.25.854.854,0,0,0-.047.249,1.325,1.325,0,0,1,.036.333,1.254,1.254,0,0,0-.023.247c0,.13.08.189.1.314.02.14.014.273.118.36.039.035.049.089.094.089.045.069.1.063.175.081.055.109.461.094.461.13.1,0,.2.016.314.016.083,0,.582.054.63.067.227.055.221-.178.361-.245a1.01,1.01,0,0,1,.094-.259c0-.077.048-.1.048-.177.033,0,.044-.262.047-.307a1.185,1.185,0,0,0,.1-.355v-.392c0-.238.048-.368.048-.626a2.041,2.041,0,0,0-.017-.4c.066,0,.013-.419.08-.419a.834.834,0,0,1,.094-.242c0-.169.114-.38.114-.534a5.228,5.228,0,0,0,.14-.629c.037,0,.048-.237.048-.274,0-.056-.02-.1.033-.13,0-.051.047-.037.047-.08.063,0,.041-.048.112-.048,0-.034.058-.037.083-.043a.149.149,0,0,1,.146.028c.042.028.043.063.09.063a1.345,1.345,0,0,0,.221.242c0,.092.16.132.16.227.05.025.044.161.08.161a.6.6,0,0,0,.112.223c.06.1.041.184.142.269a.277.277,0,0,1,.094.17l.049.1.126.17c.055.07.127.08.127.168a.546.546,0,0,1,.128.194c.066.034.076.127.144.177.021.09.127.133.127.21.066,0,.073.224.142.26a.321.321,0,0,0,.127.178c.034.1.089.149.114.242a1.513,1.513,0,0,1,.093.241c.036,0,.113.283.113.323.039,0,.049.356.1.356v.469c.027,0,.054.211.061.259a.7.7,0,0,1,.112.259c.061,0,.039.242.095.242a.218.218,0,0,0,.08.136c.082.062.132.172.215.244a1.418,1.418,0,0,1,.2.216,1.522,1.522,0,0,0,.436.083l.827,0c.088,0,.141-.052.214-.052l.206-.13c0-.077.112-.138.112-.209l.049-.145.11-.291c.036,0,.1-.335.1-.388a3.163,3.163,0,0,0,.076-.63c0-.129,0-.276,0-.379,0-.063-.032-.112-.032-.177,0-.2-.032-.486-.032-.688-.052,0-.086-.316-.091-.4a3.606,3.606,0,0,1,.037-.639,4.5,4.5,0,0,0,.032-.7c-.012-.171.053-.266.053-.422,0-.113.032-.219.032-.349.027,0,0-.276,0-.323,0-.123,0-.251.012-.376a2.841,2.841,0,0,0,.058-.324c0-.134-.009-.263-.009-.4a.957.957,0,0,1-.007-.24,3.35,3.35,0,0,0,.007-.746c.033-.115-.014-.239.017-.354a.8.8,0,0,0,.021-.2c.009-.191-.018-.325-.009-.515.009-.168-.2-.237-.146-.43a.881.881,0,0,0,.065-.256.311.311,0,0,1,.072-.246c.079-.065.142-.048.267-.037a1.473,1.473,0,0,0,.255.259c.091,0,.216.1.326.1.033,0,.5.1.5.049.082-.007.431-.042.431-.1a.27.27,0,0,0,.207-.113c.031,0,.159-.073.159-.1.121,0,.233-.147.341-.147.073,0,.108-.048.182-.048,0-.038.206-.037.254-.038a.972.972,0,0,0,.323-.037.449.449,0,0,1,.233-.022c0,.029.163.059.206.065l.153.193c-.027.284-.042.567-.053.852a1.462,1.462,0,0,1-.009.417c-.038.1-.092.2-.121.281-.052.027-.018.041-.07.074a.56.56,0,0,0-.136.136,1.068,1.068,0,0,1-.254.066c0,.03-.179.063-.227.058a.486.486,0,0,0-.266.023c-.1.033-.334.174-.334.29-.052,0-.069.259-.11.259,0,.049-.229,1.275-.207,1.275l.091.292a.446.446,0,0,0,.149.305c.019.063.093.163.158.163.025.034.1.177.113.177,0,.077.135.138.181.194s.148.1.2.178c.072,0,.126.1.19.1,0,0,.223.109.254.127a6.069,6.069,0,0,1-.018.662,2.2,2.2,0,0,0-.042.228c-.079,0-.051.653-.051.734,0,.062-.034.1-.04.18a1.538,1.538,0,0,0,.025.2,3.326,3.326,0,0,0-.046.626c.012.038-.073.727-.016.727.01.08.021.161.03.241.078.027.071.391.128.421a.717.717,0,0,0,.333.339c.038.074.13.065.176.112s.116.061.145.113l.126.08a.6.6,0,0,0,.219.066c.081,0,.559-.019.559-.066.032,0,.176-.005.176-.049.051,0,.106-.063.158-.063a.779.779,0,0,1,.157-.138l.082-.1a1.584,1.584,0,0,0,.018-.175c0-.081.092-.734.092-.767a.985.985,0,0,1,.008-.231.584.584,0,0,0,.007-.247,3.344,3.344,0,0,1,.034-.582c.012,0,.032-.61.032-.678.061,0,.094-.356.094-.42.067,0,.062-.63.08-.63,0-.069.02-.37.081-.37.024-.2.059-.357.073-.56a1.367,1.367,0,0,1,.085-.263c.043-.023.028-.08.063-.08.052-.064.06-.095.145-.105a5.549,5.549,0,0,0,.666-.154c0-.052.24-.081.24-.129a.886.886,0,0,0,.189-.066c0-.027.188-.059.224-.065,0-.04.3-.113.349-.113l.176-.08a.4.4,0,0,1,.131-.125l.076-.069.156-.016c0-.047.16-.019.16-.065m-.366-3.019-.157.113a.384.384,0,0,1-.207.127.2.2,0,0,1-.126.083.144.144,0,0,1-.127.063c0,.024-.159.089-.191.1a.576.576,0,0,1-.318.173,1.238,1.238,0,0,1-.382.1c0,.054-.224.05-.267.051a.423.423,0,0,1-.289-.068c-.03-.046-.048-.037-.048-.081-.063-.041-.022-.067-.079-.1-.011-.059-.038-.325-.08-.325a1.291,1.291,0,0,0-.095-.418c0-.039-.012-.226-.033-.226,0-.072.007-.145.012-.218s-.029-.11-.026-.2c0-.123.008-.262.148-.288a1.973,1.973,0,0,1,.359-.024,1,1,0,0,1,.222,0c0,.039.174.027.174.066.119,0,.19.014.3.014.073,0,.137.033.208.033.091,0,.219.025.333.033l.182.056c.12.016.206.088.312.088,0,.081.325.074.393.182.029.047.09.286,0,.286a.686.686,0,0,1-.223.372" transform="translate(-1211.036 -702.365)"/>
        <path id="Path_19" data-name="Path 19" d="M1368.873,710.331a.633.633,0,0,1-.176.281c-.067.06-.144.178-.218.178-.027.057-.073.037-.111.1-.081.019-.1.061-.159.123s-.163.129-.208.215a2.458,2.458,0,0,1-.038.284,1.431,1.431,0,0,0,.008.277c0,.088-.032.134-.032.2-.063,0-.071.385-.158.385,0,.038-.03.178-.064.178-.012.076-.064.136-.064.194-.051,0-.058.274-.126.274,0,.137-.131.269-.176.405a.528.528,0,0,0-.173.29.491.491,0,0,0-.159.209.307.307,0,0,0-.08.161c-.071.056-.073.115-.143.162l-.064.112c0,.149-.159.269-.19.408-.048.2-.1.323-.142.481-.05,0-.031.249-.031.307-.032,0-.042.116-.041.157a5.1,5.1,0,0,0,.087.521c.034,0,.086.342.174.387,0,.066.1.1.142.162a8.778,8.778,0,0,1,.96.5c.112.1.233-.077.328-.109a2.574,2.574,0,0,1,.255-.233c.038-.038.1-.065.1-.123.026,0,.011-.03.047-.048.043-.134.112-.221.159-.354.055-.03.038-.076.095-.114.022-.083.044-.064.065-.145.044,0,.213-.55.254-.55a1.889,1.889,0,0,1,.048-.21l.064-.162c.056-.027.052-.105.11-.145,0-.064.063-.1.063-.16a.523.523,0,0,0,.1-.162c.021,0,.1-.207.132-.241.086-.1.184-.177.266-.276.067,0,.113-.046.191-.065l.111-.064c0-.062.333-.066.333-.1.062-.007.478-.109.478-.113.114,0,.218-.065.349-.065l.31-.1c.209,0,.486,0,.723,0,0-.036.556-.057.556.032a.443.443,0,0,1,.287.361,3.66,3.66,0,0,1-.021.645,2.926,2.926,0,0,0-.022.574,3.638,3.638,0,0,0,.058.874c.008.157-.006.455.143.533,0,.068.089.126.111.195a.868.868,0,0,1,.181.192.515.515,0,0,0,.342.146c0,.044.21.109.259.119a.526.526,0,0,0,.2.032c.025,0,.126-.043.126-.006.073,0-.013.017.08.017,0,.032.217.016.254.016,0-.027.127-.037.127-.081a.694.694,0,0,0,.2-.155.818.818,0,0,0,.175-.323c.012-.065.073-.2.073-.249.066-.043.081-.149.091-.222s-.015-.488.037-.488c0-.261-.033-.523-.033-.8,0-.223-.082-.45-.088-.677-.009-.261.044-.521.057-.783a1.425,1.425,0,0,0,.126-.388c.024,0,.038-.011.033-.048h.141c.045.048.09.1.132.146s.043.1.106.144c0,.055.034.027.034.08.128.091.142.262.268.357a.863.863,0,0,0,.27.371c.027.052.066.025.1.066,0,.052.041.065.078.1.02.079.05.081.1.139.12.139.259.2.376.345.142.035.247.193.382.291.057.089.155.1.222.186.044.054.13.078.159.137a.371.371,0,0,1,.176.12.392.392,0,0,0,.2.139.627.627,0,0,1,.207.16.481.481,0,0,1,.159.1.2.2,0,0,0,.112.049.249.249,0,0,0,.142.1c.043.085.149.06.191.147l.144.079c.036,0,.223.084.223.112.094,0,.155.13.238.13,0,.037.129.064.158.064,0,.019.318.087.318.13.079.02.12.081.19.081,0,.041.176.06.207.064,0,.049.185.08.223.087.092.014.131.06.233.069.129.013.215.09.34.111.07.012.087.041.173.056,0,.053.183.016.207.016.078,0,.115.048.19.048s.207.024.316.03c.209.011.445.057.633.048.154-.007.278-.029.418-.036.094-.006.148-.041.216-.041.127,0,.2-.08.317-.1s.224-.168.311-.263.156-.116.239-.213c.079-.054.072-.147.15-.21a.318.318,0,0,0,.1-.161,2.283,2.283,0,0,0,.158-.276.555.555,0,0,0,.145-.273c.034,0,.082-.166.086-.195.011-.06.072-.12.072-.178.051,0,.114-.29.238-.29l.159.065c.052.052.057.1.127.162a.344.344,0,0,0,.11.16c.044.051.142.18.207.18.038.07.113.075.113.16.052.025.023.042.08.082l.127.08a2.042,2.042,0,0,1,.222.228c.052,0,.064.04.1.079.049.016.087.016.112.064a.525.525,0,0,1,.206.12.4.4,0,0,0,.176.121c.068.142.778.3.843.324a1.651,1.651,0,0,0,.477.1c0,.061.448.034.492.034a14.779,14.779,0,0,0,2.75-.373,5.552,5.552,0,0,0,.822-.345c.132-.051.324-.664.324-.72a9.959,9.959,0,0,0,.077-1.276.32.32,0,0,0-.222-.226.43.43,0,0,0-.143-.187c-.114-.105-.309-.3-.2-.444.027-.037.151-.081.151-.112.064,0,.141-.065.221-.091a1.1,1.1,0,0,1,.365-.086c0-.03.3-.211.334-.292,0-.106.169-.287.238-.347a.191.191,0,0,0,.082-.155c.083,0,.1-.429.095-.52,0-.119,0-.238,0-.359,0-.086-.032-.134-.032-.233,0-.074,0-.22-.078-.259,0-.067-.526-.882-.526-.921-.052-.027-.08-.145-.159-.145,0-.031-.1-.064-.127-.064L1392.8,710l-.159-.066c-.173-.044-.338-.049-.445.114-.041.007-.413.112-.413.1-.073,0-.51.072-.559.07s-.3,0-.3.028a1.159,1.159,0,0,1-.235.016,3.571,3.571,0,0,0-.545-.05,3.045,3.045,0,0,0-.382-.024c-.033,0-.253.01-.253-.024-.191,0-.344-.047-.524-.047a.361.361,0,0,1-.131-.366c.006-.077.243-.4.243-.489.038,0,.024-.1.062-.1.025-.072.113-.153.113-.21.116-.088.186-.137.3-.234.082-.07.066-.109.174-.137a9.123,9.123,0,0,1,1.2-.187c.193-.009.263-.069.458-.086,0,0,.651-.041.73-.049,0,0,.55-.063.619-.065.051,0,.383,0,.383-.033a2.2,2.2,0,0,1,.324-.033.735.735,0,0,0,.27,0,.521.521,0,0,1,.279-.014.8.8,0,0,0,.2-.041c.084-.023.621-.018.706-.048a1.4,1.4,0,0,1,.409-.008l.152-.041a.6.6,0,0,0,.23.026,1.568,1.568,0,0,1,.27-.033c.1,0,.166-.031.276-.031a1.2,1.2,0,0,0,.345-.034,7.376,7.376,0,0,1,.989.082,1.676,1.676,0,0,0,.395.047c.08,0,.078-.02.166.008a.374.374,0,0,0,.278-.08.217.217,0,0,0,.1-.219,6.528,6.528,0,0,0,0-1.324c-.035,0-.075-.227-.1-.227a.638.638,0,0,0-.1-.226c-.027-.113-.109-.173-.141-.274-.054-.027-.1-.194-.145-.194,0-.063-.062-.091-.062-.145-.079-.052-.155-.155-.24-.227,0-.039-.08-.1-.11-.145-.069,0-.131-.112-.176-.162-.057-.019-.114-.039-.173-.057a.63.63,0,0,0-.335-.008,1.921,1.921,0,0,1-.461.065c0,.052-.287.091-.287.146a8.323,8.323,0,0,0-.838.177,1.734,1.734,0,0,1-.354.057c-.059.01-.882.169-1.057.169-.064,0-.434.02-.434.063-.179,0-.327.017-.542.017,0,.05-.524.065-.6.069-.245.014-.481.13-.7.145-.244.014-1.3.239-1.444.239,0-.026-1.214.2-1.375.214-.138.009-.232.027-.373.027-.128.041-.255.084-.382.125-.07.024-.4.052-.4.1a.235.235,0,0,0-.214.121c-.066.08-.136.1-.185.169-.076,0-.129.135-.182.177-.07.059-.1.226-.119.307-.053,0-.158.262-.158.324-.048,0-.091.29-.112.29,0,.089-.038.173-.033.238a2.6,2.6,0,0,1,.033.263.762.762,0,0,1,0,.376l-.035.124c-.017.07-.031.047-.031.1-.051.035-.1.2-.128.2,0,.055-.058.113-.07.168-.019.1-.119.2-.119.3-.04,0-.148.289-.159.356l-.08.161-.048.129a1.918,1.918,0,0,0-.143.419,1.5,1.5,0,0,0-.144.422c-.066,0-.066.339-.11.339a1.167,1.167,0,0,0-.112.354c-.064,0-.06.373-.11.373,0,.134-.1.28-.1.4-.058,0,.061,1.016-.063,1.016,0,.115-.2.283-.334.178,0-.026-.1-.063-.1-.114-.026,0-.012-.03-.049-.047-.022-.067-.048-.06-.11-.081-.039-.062-.054-.13-.127-.13,0-.038-.032.007-.032-.031-.034-.013-.191-.031-.191.016a.267.267,0,0,0-.159.08c-.088,0-.194.109-.247.18a.584.584,0,0,1-.248.142c-.045.057-.066.114-.142.114,0,.031-.044.028-.062.066a.681.681,0,0,0-.254.128c-.055,0-.271,0-.271.049-.084,0-.119.032-.206.032a2.117,2.117,0,0,1-.509.031,1.761,1.761,0,0,1-.44.017,1.07,1.07,0,0,1-.371-.087,1.45,1.45,0,0,0-.38-.058c0-.053-.287-.077-.287-.129-.089,0-.176-.1-.271-.1,0-.049-.286-.078-.286-.147-.071-.016-.126-.112-.19-.112a.212.212,0,0,0-.142-.1l-.112-.031c-.077,0-.041-.065-.1-.065-.033-.048-.121-.128-.177-.128,0-.077-.338-.245-.389-.307s-.162-.074-.2-.146c-.063,0-.1-.129-.175-.129-.025-.052-.067-.033-.1-.08a.244.244,0,0,0-.1-.076c-.091-.043-.113-.109-.216-.135-.043-.07-.156-.1-.156-.194-.051,0-.016-.094-.013-.12.009-.113-.016-.217-.009-.327.013-.169.118-.269.118-.394a.9.9,0,0,0,.1-.265.635.635,0,0,1,.135-.185c0-.048.047-.074.047-.13.062-.031.082-.094.144-.145a.372.372,0,0,1,.128-.211.421.421,0,0,1,.141-.193.541.541,0,0,1,.175-.226c0-.071.112-.108.112-.179.074-.055.089-.127.159-.177a.5.5,0,0,1,.224-.225c.067-.086.138-.106.207-.186.04-.048.16-.1.16-.169a.617.617,0,0,1,.252-.162c.08-.1.149-.114.224-.208.082-.022.1-.064.189-.082,0-.033.16-.023.16-.081.1-.027.123-.113.223-.145.045-.016.221-.038.221-.065l.144-.065a1.826,1.826,0,0,0,.244-.04c.037,0,.167-.055.167-.073a1.251,1.251,0,0,1,.32-.016c.052,0,.176.053.176.113.064.031.111.2.111.266a.641.641,0,0,1-.044.307,2.161,2.161,0,0,0-.1.542l.016.16c0,.1-.016.373-.021.4a.686.686,0,0,0,.073.424.127.127,0,0,0,.077.051l.043.074a.57.57,0,0,0,.109.064l.117.088a.233.233,0,0,1,.158.08c.081.021.121.113.191.113,0,.083.325.065.389.065s.084-.023.12.048c.031.007.241.084.241.032a3.711,3.711,0,0,0,.524-.032c.1,0,.134-.116.223-.162a.243.243,0,0,1,.094-.144c0-.063.084-.108.126-.146.02-.077.042-.062.065-.134.037-.121.12-.168.159-.285.034-.028.063-.034.063-.082.059-.038.125-.42.159-.42,0-.065.048-.106.048-.178.023,0,.032-.16.032-.194.066,0,.048-.448.048-.533a3.037,3.037,0,0,0,.007-.459c-.009-.079-.032-.446-.087-.446-.011-.045-.062-.273-.112-.273a.657.657,0,0,0-.063-.275c-.112-.056-.107-.231-.206-.314-.058-.05-.143-.088-.143-.171s-.031-.036-.031-.1a1.043,1.043,0,0,1-.166-.19c-.07-.081-.15-.106-.206-.187s-.132-.2-.233-.221c0-.032-.075-.023-.1-.064l-.178-.1a.745.745,0,0,0-.315-.065c-.109,0-.161.031-.247.031-.061,0-.116,0-.195,0s-.831.045-.831.117a1.358,1.358,0,0,0-.3.032l-.159.049c-.036,0-.207.013-.207.032-.028,0-.536.153-.777.193,0,.016-.11.07-.142.082a1.342,1.342,0,0,1-.181.059c-.045.009-.312.062-.312.07l-.222.081a3.519,3.519,0,0,1-.342.119c-.127.019-.27.17-.391.17-.028.057-.161.112-.221.131l-.1.047c0,.028-.166.083-.189.13-.086.018-.094.044-.175.064,0,.018-.167.092-.192.129-.079,0-.106.13-.189.13a1.146,1.146,0,0,1-.366.258c0,.038-.081.054-.157.08-.031.011-.176.1-.176.13l-.144.1c-.069.023-.064.067-.089.135s-.217.23-.245.285c-.1,0-.122.178-.223.178l-.093.113c0,.048-.034.053-.047.113a.262.262,0,0,0-.1.146.331.331,0,0,0-.126.193c-.029.091-.1.145-.128.243-.082.041-.073.2-.158.24-.01.035-.042.13-.064.13,0,.059-.087.235-.18.223-.167-.02-.185-.29-.185-.392,0-.065-.031-.091-.031-.169-.023,0-.045-.194-.047-.226-.045,0-.081-.35-.081-.42a3.271,3.271,0,0,1-.112-.452c-.044,0-.052-.371-.108-.371a4.086,4.086,0,0,0-.1-.436,3.29,3.29,0,0,0-.088-.712c0-.035-.034-.144-.062-.144a.258.258,0,0,0-.081-.178c0-.079-.109-.128-.126-.218-.014-.059-.033-.13-.08-.155a.439.439,0,0,0-.128-.209.357.357,0,0,0-.114-.177,5.839,5.839,0,0,1-.44-.613c-.059-.031-.1-.161-.175-.161-.034-.12-.215-.168-.315-.2a.834.834,0,0,0-.211-.028l-.11-.038c-.148-.021-.507-.142-.6.055-.091.022-.106.063-.177.12-.045.039-.088.138-.142.138-.038.075-.169.152-.24.209-.03.09-.125.112-.187.18s-.112.127-.174.186-.118.113-.177.168l-.066.1c0,.124-.262.248-.3.371a.569.569,0,0,0-.127.211c-.092.046-.109.225-.205.274a.235.235,0,0,1-.1.146.221.221,0,0,1-.1.128c0,.2-.222.291-.269.485-.049.025-.052.162-.1.162,0,.088-.127.174-.127.258-.034,0-.069.124-.11.145-.019.077-.08.138-.08.211-.042,0-.029.12-.081.147-.027.076-.078.129-.078.193l-.1.217c-.009.079-.1.115-.1.185-.031.023-.093.162-.112.162a.26.26,0,0,1-.079.178c-.037.142-.1.185-.142.306-.034.1-.128.174-.128.259a.732.732,0,0,0-.159.29c-.038,0-.081.185-.1.236m19.119,3.251a.406.406,0,0,1,.323-.044c0-.051.236.02.27.025s.127,0,.127.037c.063-.006.958-.062,1.175-.062,0,.055.563-.066.716.013.062,0,.361.048.437.048.031,0,.12-.056.12,0a.784.784,0,0,0,.254.08c.1,0,.155.045.23.037a.3.3,0,0,1,.208.017.224.224,0,0,1,.087.173.324.324,0,0,1-.032.162c-.028.024-1.3.193-1.352.193a9.432,9.432,0,0,1-1.528.168c-.043,0-.173,0-.173-.038-.1-.008-.292.024-.319-.049-.04,0-.028-.048-.077-.048,0-.035-.081-.033-.106-.038a.581.581,0,0,1-.182-.109c-.1-.025-.4-.192-.357-.334a.447.447,0,0,1,.178-.233m-16.176-3.647.047-.129c.048,0,.055-.162.1-.162a.472.472,0,0,1,.143-.259c0-.084.079-.163.079-.258.052,0,.05-.212.112-.242,0-.07.088-.122.112-.193.028-.09.06-.113.078-.195,0,0,.134-.233.146-.275.047,0,0-.1.047-.1,0-.1.183-.153.254-.08.115.032.119.237.134.335a5.57,5.57,0,0,0,.07.619,3.047,3.047,0,0,1-.03.581c0,.171-.048.293-.048.435-.063.033-.016.08-.078.113,0,.046-.106.158-.146.186a.383.383,0,0,1-.339.072c-.123-.021-.244.066-.366.08-.062.007-.295,0-.295-.063-.169-.138-.057-.311-.017-.469" transform="translate(-1298.936 -703.613)"/>
        <path id="Path_20" data-name="Path 20" d="M1134.048,709.168c.013.072.051.11.051.161.056.031.1.162.124.228a.763.763,0,0,1,.16.176c.023,0,.074.129.111.129a2.878,2.878,0,0,1,0,.308,5.629,5.629,0,0,0-.041.652c-.017.23-.086.441-.086.64a3.033,3.033,0,0,1-.08.47,5.715,5.715,0,0,1-.025.6c0,.026-.062.221-.007.221,0,.139.011.28.016.42a2.544,2.544,0,0,1,.111.371l.048.146a.541.541,0,0,1,.1.161c.075.051.064.137.143.177,0,.055.092.111.134.146.149.122.239.313.437.351.152.028.478.027.478.068a.647.647,0,0,0,.174,0,.42.42,0,0,0,.349-.064.419.419,0,0,1,.127-.209c0-.066.08-.083.08-.145.055-.027.04-.178.08-.178,0-.063.063-.119.063-.193a4.149,4.149,0,0,0-.016-.55c-.064,0-.041-.417-.044-.477,0-.1-.036-.231-.036-.33s-.047-.177-.047-.264a1.44,1.44,0,0,0-.018-.348.573.573,0,0,1-.014-.276,2.181,2.181,0,0,0,.095-.437c.047,0,.174-.313.174-.354.059-.031.09-.141.167-.155.109-.02.12-.023.215.064.058.053.136.221.223.221.029.062.152.149.212.213s.125.049.184.109a.411.411,0,0,0,.161.082c.059.127.254.156.332.273.052,0,.178.116.214.162a.49.49,0,0,0,.216.146c.03.06.119.083.156.144.086.066.141.115.215.181.055.048.135.176.2.176.056.062.131.179.193.209.043.062.119.1.141.146.078.058.09.126.159.188s.149.216.222.216c0,.067.135.135.159.21a2.114,2.114,0,0,1,.237.242c.072,0,.156.118.207.178.092,0,.134.162.224.162,0,.022.128.072.166.08.148.034.226.115.4.108.059,0,.4.025.4-.043a.491.491,0,0,0,.349-.242.663.663,0,0,1,.142-.048c.034-.07.129-.116.129-.194l.062-.1c.019-.079.128-.126.128-.193.05-.045.173-.142.173-.21.043-.036.1-.031.1-.1a.438.438,0,0,0,.143-.37c0-.222-.016-.495-.016-.71,0,0-.066-.191-.078-.227a.6.6,0,0,1-.146-.129c-.081-.027-.068-.16-.156-.16a1.247,1.247,0,0,1-.129-.162c-.167-.043-.193-.254-.349-.308-.08-.027-.111-.076-.19-.1a.336.336,0,0,0-.159-.1c-.048-.072-.106-.072-.159-.146l-.176-.113a.6.6,0,0,0-.206-.048c-.05-.062-.159-.243-.238-.243a.41.41,0,0,0-.173-.112c-.066-.08-.126-.111-.194-.187a1.8,1.8,0,0,0-.174-.225c-.062-.053-.188-.14-.188-.218-.053,0-.042-.17-.024-.206a.457.457,0,0,1,.124-.141.247.247,0,0,0,.088-.17,1.426,1.426,0,0,0,.331-.331.722.722,0,0,1,.162-.185c.016-.051.016-.089.064-.113.007-.037.045-.179.078-.179,0-.073.121-.139.136-.217.022-.112.135-.186.135-.3.033,0,.111-.312.111-.356.056,0-.008-.291.049-.291l.047-.162c.021-.088.065-.117.065-.2a1.012,1.012,0,0,1,.062-.234l.047-.145c.046,0,.034-.183.034-.231,0-.111-.01-.249,0-.384,0-.084-.03-.112-.03-.209,0,0,.038-.322-.047-.322,0-.147-.062-.255-.062-.388a.8.8,0,0,1-.1-.274c-.033,0-.059-.181-.065-.227-.021,0-.063-.111-.063-.144-.08,0-.066-.371-.158-.371,0-.084-.127-.13-.127-.21a1.9,1.9,0,0,1-.3-.549c-.024,0-.076-.125-.105-.161-.048-.059-.213-.193-.213-.259-.058-.041-.111-.178-.191-.178a.438.438,0,0,0-.265-.172c-.139-.043-.087-.112-.173-.183a.377.377,0,0,0-.247-.113c0-.062-.349-.043-.349-.1-.183,0-.353-.1-.526-.1l-.168-.084-.181-.013c-.021-.046-.047-.039-.094-.048,0-.057-.293-.112-.349-.112,0,0-.413-.066-.456-.066-.095,0-.563.025-.563.113-.069,0-.076.033-.159.033l-.238.032c0,.054-.284.064-.284.113a.5.5,0,0,0-.3.163c-.031.048-.135.145-.189.145-.038.078-.16.127-.16.21-.186.127-.192.409-.309.606a.794.794,0,0,0-.13.492,2.03,2.03,0,0,0,.034.523.991.991,0,0,1,.042.235c.017,0,.061.129.061.162.017,0,.08.139.112.162a.25.25,0,0,0,.1.145.792.792,0,0,0,.159.226c.031.045.126.114.136.168.007.033.058.221.007.221,0,.066-.033.095-.047.176-.067,0-.127.319-.127.372-.044,0-.058.339-.112.339,0,.244-.179.4-.214.638-.012.1-.055.177-.055.25l-.048.1c-.023,0-.047.1-.08.112,0,.068-.086.116-.127.179-.04,0-.087.024-.142.031,0,.035-.117.016-.145.016,0,.028-.158.033-.19.033,0,0-.141.1-.16.151-.037.094-.016.173-.113.232s-.133.072-.148.166a3.047,3.047,0,0,0-.04.321,1.284,1.284,0,0,0-.009.313c0,.116-.029.224-.019.339a1.255,1.255,0,0,0,.09.334m3.682-2.971a1.406,1.406,0,0,0,.053-.21c.057,0-.007-.29.048-.29,0-.1.031-.129.031-.227.03,0,.018-.262.018-.306a1.2,1.2,0,0,0-.009-.433,1.1,1.1,0,0,1,.071-.407.579.579,0,0,1,.192-.291c.176,0,.256.1.412.1a1.592,1.592,0,0,0,.32.146c.063.085.167.125.221.211.069,0,.092.1.142.129l.064.145a.939.939,0,0,1,.06.291c0,.035.023.291-.044.291-.011.106-.048.155-.048.242l-.094.178a.36.36,0,0,0-.112.177c-.035.026-.094.129-.111.129a.6.6,0,0,1-.191.23c-.056.055-.149.238-.222.238-.016.036-.064.034-.064.065-.057,0-.09.071-.127.113a.469.469,0,0,0-.181.13.205.205,0,0,1-.128.073.677.677,0,0,1-.265.019c-.078-.012-.077-.107-.077-.172-.048,0,.035-.511.041-.566" transform="translate(-1121.203 -701.135)"/>
      </g>
    </g>
  </g>
</svg>
