<svg xmlns="http://www.w3.org/2000/svg" width="87.877" height="101.22" viewBox="0 0 87.877 101.22">
  <path id="Path_258" data-name="Path 258" d="M2891.637,10667.7a43.9,43.9,0,1,0-36.217,43.262l14.059,14.02v-19.113A43.922,43.922,0,0,0,2891.637,10667.7Zm-71.3-7.461c0-5.266,2.6-9.534,5.8-9.534s5.8,4.269,5.8,9.534-2.6,9.533-5.8,9.533S2820.341,10665.5,2820.341,10660.238Zm6.633,21.859h41.451A33.3,33.3,0,0,1,2826.973,10682.1Zm42.28-12.326c-3.205,0-5.8-4.268-5.8-9.533s2.6-9.534,5.8-9.534,5.8,4.269,5.8,9.534S2872.458,10669.771,2869.253,10669.771Z" transform="translate(-2803.76 -10623.761)" fill="#39b54a"/>
</svg>
