<svg xmlns="http://www.w3.org/2000/svg" width="95.85" height="77.899" viewBox="0 0 95.85 77.899">
  <path data-name="Path 423" d="M310.581,476.709c36.172,0,55.952-29.967,55.952-55.952,0-.851-.016-1.7-.056-2.541a40,40,0,0,0,9.809-10.183,39.228,39.228,0,0,1-11.293,3.1,19.739,19.739,0,0,0,8.648-10.879,39.419,39.419,0,0,1-12.487,4.774,19.683,19.683,0,0,0-33.514,17.934,55.836,55.836,0,0,1-40.534-20.546,19.682,19.682,0,0,0,6.089,26.254,19.522,19.522,0,0,1-8.907-2.462c0,.083,0,.165,0,.252a19.671,19.671,0,0,0,15.777,19.278,19.637,19.637,0,0,1-8.882.338,19.689,19.689,0,0,0,18.372,13.659,39.463,39.463,0,0,1-24.425,8.418,39.934,39.934,0,0,1-4.691-.273,55.673,55.673,0,0,0,30.144,8.832" transform="translate(-280.437 -398.81)"/>
</svg>
