<svg version="1.1" xmlns="http://www.w3.org/2000/svg" xmlns:xlink="http://www.w3.org/1999/xlink" x="0px" y="0px"
	 viewBox="0 0 1400 700" style="enable-background:new 0 0 1400 700;" xml:space="preserve">
	<path id="icon" style="fill:#A7A7A7;" d="M926.6,321.9c0-121.3-98.3-219.6-219.5-219.6c-121.3,0-219.5,98.3-219.5,219.6
	s98.3,219.6,219.5,219.6c12.8,0,25.3-1.1,37.4-3.2l69.2,69v-93.4C881,476.3,926.6,404.4,926.6,321.9z M814.8,236.9
	c16,0,29,21.3,29,47.6c0,26.3-13,47.6-29,47.6c-16,0-29-21.3-29-47.6C785.8,258.3,798.8,236.9,814.8,236.9z M599.4,236.9
	c16,0,29,21.3,29,47.6c0,26.3-13,47.6-29,47.6c-16,0-29-21.3-29-47.6C570.4,258.3,583.3,236.9,599.4,236.9z M707.1,495.3
	c-71.2,0-132.3-42.9-159-104.2c34.7,45.6,93,75.6,159,75.6s124.3-29.9,159-75.6C839.4,452.4,778.2,495.3,707.1,495.3z M429,102.3
	c-33.5,0-61.5,29.7-61.5,63.2c0,44.7,37.8,50.2,37.8,90h47.4c0-39.8,37.8-45.3,37.8-90C490.5,132,462.5,102.3,429,102.3z
	 M423.5,304.7h11c10,0,18.2-8.1,18.2-18.2V276h-47.4v10.5C405.4,296.6,413.5,304.7,423.5,304.7z"/>
</svg>
