<svg version="1.1" xmlns="http://www.w3.org/2000/svg" xmlns:xlink="http://www.w3.org/1999/xlink" x="0px" y="0px"
	 viewBox="0 0 1400 700" style="enable-background:new 0 0 1400 700;" xml:space="preserve">
	<path id="icon" style="fill:#A7A7A7;" d="M596.1,316.8c0-78.1,41.6-146.5,103.9-184.1c-32.4-19.6-70.4-30.9-111.1-30.9
	c-118.8,0-215,96.3-215,215s96.3,215,215,215c40.7,0,78.7-11.3,111.1-30.9C637.7,463.2,596.1,394.9,596.1,316.8z M483.4,326.9
	c-15.7,0-28.4-20.9-28.4-46.7s12.7-46.7,28.4-46.7s28.4,20.9,28.4,46.7S499.1,326.9,483.4,326.9z M1026.1,316.8
	c0-118.8-96.3-215-215-215c-40.7,0-78.7,11.3-111.1,30.9c62.3,37.7,103.9,106,103.9,184.1S762.3,463.2,700,500.9
	c32.4,19.6,70.4,30.9,111.1,30.9c12.2,0,24.1-1,35.8-3l70,69.8V504C982.1,467.1,1026.1,397.1,1026.1,316.8z M916.6,326.9
	c-15.7,0-28.4-20.9-28.4-46.7s12.7-46.7,28.4-46.7c15.7,0,28.4,20.9,28.4,46.7C945,306,932.3,326.9,916.6,326.9z M722.2,233.9
	c-9,0-17,5-22.2,12.9c-5.2-7.9-13.2-12.9-22.2-12.9c-15.7,0-28.4,15.3-28.5,34.2c0.1,27.1,24.2,46.9,50.7,58.5
	c26.5-11.5,50.6-31.4,50.7-58.5C750.6,249.1,737.9,233.9,722.2,233.9z"/>
</svg>
