<svg version="1.1" xmlns="http://www.w3.org/2000/svg" xmlns:xlink="http://www.w3.org/1999/xlink" x="0px" y="0px"
	 viewBox="0 0 1400 700" style="enable-background:new 0 0 1400 700;" xml:space="preserve">
	<path id="icon" style="fill:#A7A7A7;" d="M820.6,81.1c-66.5,0-120.3,53.9-120.3,120.3s53.9,120.3,120.3,120.3s120.3-53.9,120.3-120.4
	S887.1,81.1,820.6,81.1z M745.7,181c0-14.4,7.1-26.1,15.9-26.1s15.9,11.7,15.9,26.1s-7.1,26.1-15.9,26.1
	C752.8,207.1,745.7,195.4,745.7,181z M775.9,243L775.9,243h89.4l0,0C839.1,263.8,802.1,263.8,775.9,243z M879.6,207.1
	c-8.8,0-15.9-11.7-15.9-26.1s7.1-26.1,15.9-26.1s15.9,11.7,15.9,26.1C895.5,195.4,888.4,207.1,879.6,207.1z M820.6,322.3
	c-66.5,0-120.3,53.9-120.3,120.4S754.1,563,820.6,563s120.3-53.9,120.3-120.4S887.1,322.3,820.6,322.3z M745.7,422.2
	c0-14.4,7.1-26.1,15.9-26.1s15.9,11.7,15.9,26.1c0,14.4-7.1,26.1-15.9,26.1C752.8,448.3,745.7,436.6,745.7,422.2z M750.4,478.8
	L750.4,478.8L750.4,478.8c46.3,10.3,94.2,10.3,140.5,0l0,0l0,0C866,543.1,775.2,543.1,750.4,478.8z M879.6,448.3
	c-8.8,0-15.9-11.7-15.9-26.1c0-14.4,7.1-26.1,15.9-26.1s15.9,11.7,15.9,26.1C895.5,436.6,888.4,448.3,879.6,448.3z M579.4,81.1
	c-66.5,0-120.4,53.9-120.4,120.3s53.9,120.3,120.4,120.3s120.3-53.9,120.3-120.4S645.9,81.1,579.4,81.1z M638.4,154.9
	c8.8,0,15.9,11.7,15.9,26.1s-7.1,26.1-15.9,26.1s-15.9-11.7-15.9-26.1C622.5,166.6,629.7,154.9,638.4,154.9z M520.4,154.9
	c8.8,0,15.9,11.7,15.9,26.1s-7.1,26.1-15.9,26.1c-8.8,0-15.9-11.7-15.9-26.1S511.6,154.9,520.4,154.9z M579.4,296.5
	c-39,0-72.5-23.5-87.2-57.1c19,25,51,41.4,87.2,41.4s68.2-16.4,87.2-41.4C651.9,273,618.4,296.5,579.4,296.5z M579.4,322.3
	c-66.5,0-120.4,53.9-120.4,120.4S512.9,563,579.4,563s120.3-53.9,120.3-120.4S645.9,322.3,579.4,322.3z M504.5,422.2
	c0-14.4,7.1-26.1,15.9-26.1c8.8,0,15.9,11.7,15.9,26.1s-7.1,26.1-15.9,26.1C511.6,448.3,504.5,436.6,504.5,422.2z M547.1,491.8h64.6
	c0,0,0,0.1,0,0.3c0,17.9-14.5,32.3-32.3,32.3l0,0c-17.8,0-32.3-14.5-32.3-32.3V491.8z M638.4,448.3c-8.8,0-15.9-11.7-15.9-26.1
	s7.1-26.1,15.9-26.1s15.9,11.7,15.9,26.1S647.2,448.3,638.4,448.3z M811.5,539.2l97.2,97V499.8"/>
</svg>
