
<svg version="1.1" xmlns="http://www.w3.org/2000/svg" xmlns:xlink="http://www.w3.org/1999/xlink" x="0px" y="0px"
	 viewBox="0 0 1400 700" style="enable-background:new 0 0 1400 700;" xml:space="preserve">
	<path id="icon" style="fill:#A7A7A7;" d="M666.7,101.2c-122,0-220.9,98.9-220.9,220.9S544.7,543,666.7,543c13.2,0,26.2-1.2,38.8-3.4l70.7,70.5
	V514c66.5-38.1,111.4-109.7,111.4-191.9C887.6,200.1,788.7,101.2,666.7,101.2z M529.1,284.6c0-26.5,13.1-47.9,29.2-47.9
	c16.1,0,29.2,21.5,29.2,47.9s-13.1,47.9-29.2,47.9C542.2,332.5,529.1,311,529.1,284.6z M562.5,394.5L562.5,394.5h208.4l0,0
	C709.9,443,623.5,443,562.5,394.5z M775,332.5c-16.1,0-29.2-21.5-29.2-47.9s13.1-47.9,29.2-47.9c16.1,0,29.2,21.5,29.2,47.9
	C804.2,311,791.1,332.5,775,332.5z M1025.7,101.2c-10.7,0-19.3,8.7-19.3,19.3v45.6c0,10.6,8.7,19.3,19.3,19.3s19.3-8.7,19.3-19.3
	v-45.6C1045.1,109.9,1036.4,101.2,1025.7,101.2z M980.2,185.4c10.7,0,19.3-8.7,19.3-19.3v-45.6c0-10.7-8.7-19.3-19.3-19.3
	s-19.3,8.7-19.3,19.3v45.6C960.8,176.7,969.5,185.4,980.2,185.4z M929.3,184.6L929.3,184.6l0.4,0.1c3.2,0.8,6.6,0.8,9.8,0l0,0
	c0.1,0,0.2-0.1,0.4-0.1h0c0.2-0.1,0.4-0.1,0.6-0.2c0.3-0.1,0.5-0.2,0.7-0.3c0.3-0.1,0.5-0.2,0.8-0.3c0.2-0.1,0.5-0.2,0.7-0.3
	c0.3-0.1,0.5-0.2,0.7-0.4c0.2-0.1,0.5-0.2,0.7-0.4c0.2-0.1,0.5-0.3,0.7-0.4s0.4-0.3,0.7-0.4c0.2-0.1,0.4-0.3,0.6-0.5
	c0.2-0.1,0.4-0.3,0.6-0.5c0.2-0.2,0.4-0.3,0.6-0.5c0.2-0.2,0.4-0.3,0.6-0.5c0.2-0.2,0.4-0.4,0.5-0.6c0.2-0.2,0.4-0.4,0.5-0.6
	c0.2-0.2,0.3-0.4,0.5-0.6c0.2-0.2,0.3-0.4,0.5-0.6c0.2-0.2,0.3-0.4,0.5-0.6c0.1-0.2,0.3-0.4,0.4-0.6c0.2-0.2,0.3-0.5,0.4-0.7
	c0.1-0.2,0.3-0.4,0.4-0.6c0.1-0.2,0.2-0.5,0.4-0.7c0.1-0.2,0.2-0.4,0.3-0.7c0.1-0.3,0.2-0.5,0.3-0.8c0.1-0.2,0.2-0.4,0.3-0.7
	c0.1-0.3,0.2-0.6,0.3-0.8c0.1-0.2,0.1-0.4,0.2-0.7c0.1-0.3,0.1-0.6,0.2-0.9c0-0.2,0.1-0.4,0.1-0.6c0.1-0.3,0.1-0.7,0.1-1
	c0-0.2,0-0.4,0.1-0.6c0-0.5,0.1-1.1,0.1-1.6v-45.6c0-10.7-8.7-19.3-19.3-19.3s-19.3,8.7-19.3,19.3v45.6
	C915.3,174.7,921,182.3,929.3,184.6z M1044.2,184.7c-0.1,0.1-0.3,0.3-0.4,0.4c-0.2,0.2-0.3,0.3-0.5,0.5c-0.2,0.1-0.3,0.3-0.4,0.4
	c-0.2,0.1-0.4,0.3-0.5,0.4c-0.2,0.1-0.3,0.3-0.5,0.4c-0.2,0.1-0.4,0.3-0.6,0.4c-0.2,0.1-0.3,0.2-0.5,0.4c-0.2,0.1-0.4,0.3-0.6,0.4
	c-0.2,0.1-0.3,0.2-0.5,0.3c-0.2,0.1-0.4,0.2-0.6,0.4c-0.2,0.1-0.3,0.2-0.5,0.3c-0.2,0.1-0.4,0.2-0.6,0.3c-0.2,0.1-0.4,0.2-0.6,0.3
	c-0.2,0.1-0.4,0.2-0.6,0.3c-0.2,0.1-0.4,0.2-0.6,0.3c-0.2,0.1-0.4,0.2-0.7,0.3c-0.2,0.1-0.4,0.1-0.6,0.2c-0.2,0.1-0.4,0.2-0.7,0.2
	c-0.2,0.1-0.4,0.1-0.6,0.2c-0.2,0.1-0.5,0.1-0.7,0.2c-0.2,0.1-0.4,0.1-0.6,0.2c-0.2,0.1-0.5,0.1-0.7,0.2c-0.2,0-0.4,0.1-0.6,0.1
	c-0.3,0.1-0.5,0.1-0.8,0.1c-0.2,0-0.4,0.1-0.6,0.1c-0.3,0-0.5,0.1-0.8,0.1c-0.2,0-0.4,0.1-0.5,0.1c-0.3,0-0.6,0.1-0.9,0.1
	c-0.2,0-0.3,0-0.5,0c-0.5,0-0.9,0-1.4,0c-0.6,0-1.1,0-1.6-0.1c-0.2,0-0.3,0-0.5,0c-0.4,0-0.8-0.1-1.2-0.1c-0.1,0-0.3,0-0.4-0.1
	c-0.5-0.1-1-0.2-1.6-0.3c0,0-0.1,0-0.1,0c-0.5-0.1-0.9-0.2-1.4-0.3c-0.2,0-0.3-0.1-0.5-0.1c-0.4-0.1-0.8-0.2-1.1-0.4
	c-0.1,0-0.3-0.1-0.4-0.1c-0.5-0.2-1-0.4-1.4-0.6c-0.1,0-0.2-0.1-0.2-0.1c-0.4-0.2-0.8-0.4-1.2-0.6c-0.2-0.1-0.3-0.1-0.4-0.2
	c-0.3-0.2-0.6-0.3-1-0.5c-0.1-0.1-0.3-0.2-0.4-0.2c-0.4-0.3-0.9-0.5-1.3-0.8c-0.1-0.1-0.2-0.1-0.3-0.2c-0.3-0.2-0.7-0.5-1-0.7
	c-0.1-0.1-0.3-0.2-0.4-0.3c-0.3-0.2-0.6-0.5-0.9-0.7c-0.1-0.1-0.2-0.2-0.3-0.3c-0.4-0.3-0.7-0.7-1.1-1c-0.1-0.1-0.2-0.2-0.3-0.3
	c-0.3-0.3-0.5-0.6-0.8-0.9c-0.1-0.1-0.2-0.3-0.3-0.4c-0.3-0.3-0.5-0.6-0.7-0.9c-0.1-0.1-0.2-0.2-0.2-0.3c-0.3-0.4-0.6-0.8-0.9-1.2
	c-0.1-0.1-0.1-0.2-0.2-0.3c-0.2-0.3-0.4-0.7-0.6-1c0-0.1-0.1-0.1-0.1-0.2c0,0.1-0.1,0.1-0.1,0.2c-0.2,0.3-0.4,0.7-0.6,1
	c-0.1,0.1-0.1,0.2-0.2,0.3c-0.3,0.4-0.6,0.8-0.9,1.2c-0.1,0.1-0.2,0.2-0.2,0.3c-0.2,0.3-0.5,0.6-0.7,0.9c-0.1,0.1-0.2,0.3-0.3,0.4
	c-0.3,0.3-0.5,0.6-0.8,0.9c-0.1,0.1-0.2,0.2-0.3,0.3c-0.3,0.4-0.7,0.7-1.1,1c-0.1,0.1-0.2,0.2-0.3,0.3c-0.3,0.3-0.6,0.5-0.9,0.7
	c-0.1,0.1-0.3,0.2-0.4,0.3c-0.3,0.3-0.7,0.5-1,0.7c-0.1,0.1-0.2,0.1-0.3,0.2c-0.4,0.3-0.8,0.6-1.3,0.8c-0.1,0.1-0.3,0.2-0.4,0.3
	c-0.3,0.2-0.6,0.4-0.9,0.5c-0.1,0.1-0.3,0.1-0.4,0.2c-0.4,0.2-0.8,0.4-1.2,0.6c-0.1,0-0.2,0.1-0.2,0.1c-0.5,0.2-1,0.4-1.4,0.6
	c-0.1,0.1-0.3,0.1-0.4,0.1c-0.4,0.1-0.8,0.3-1.1,0.4c-0.2,0-0.3,0.1-0.5,0.1c-0.5,0.1-0.9,0.2-1.4,0.3c0,0-0.1,0-0.1,0
	c-0.5,0.1-1,0.2-1.6,0.3c-0.2,0-0.3,0-0.5,0.1c-0.4,0.1-0.8,0.1-1.2,0.1c-0.2,0-0.3,0-0.5,0c-0.5,0-1.1,0.1-1.6,0.1
	c-0.4,0-0.8,0-1.3,0c-0.1,0-0.3,0-0.4,0c-0.2,0-0.4,0-0.6,0c0,0,0,0,0.1,0.1c0.2,0.2,0.3,0.3,0.5,0.5c0.1,0.1,0.3,0.3,0.4,0.4
	c0.2,0.2,0.3,0.3,0.5,0.5c0.1,0.1,0.3,0.3,0.4,0.4c0.2,0.2,0.3,0.4,0.4,0.5c0.1,0.1,0.2,0.3,0.4,0.4c0.1,0.2,0.3,0.4,0.4,0.6
	c0.1,0.1,0.2,0.3,0.3,0.5c0.1,0.2,0.3,0.4,0.4,0.6c0.1,0.2,0.2,0.3,0.3,0.5c0.1,0.2,0.2,0.4,0.4,0.6c0.1,0.2,0.2,0.3,0.3,0.5
	c0.1,0.2,0.2,0.4,0.3,0.6c0.1,0.2,0.2,0.3,0.3,0.5c0.1,0.2,0.2,0.4,0.3,0.7c0.1,0.2,0.2,0.3,0.2,0.5c0.1,0.2,0.2,0.5,0.3,0.7
	c0.1,0.2,0.1,0.3,0.2,0.5c0.1,0.2,0.2,0.5,0.3,0.7c0.1,0.2,0.1,0.3,0.2,0.5c0.1,0.3,0.1,0.5,0.2,0.8c0,0.2,0.1,0.3,0.1,0.5
	c0.1,0.3,0.1,0.5,0.2,0.8c0,0.2,0.1,0.3,0.1,0.5c0,0.3,0.1,0.5,0.1,0.8c0,0.2,0.1,0.3,0.1,0.5c0,0.3,0.1,0.5,0.1,0.8
	c0,0.2,0,0.3,0.1,0.5c0,0.3,0,0.6,0.1,0.9c0,0.1,0,0.3,0,0.4c0.1,1.6,0,3.3-0.2,5c-1.9,13-13.4,22.6-26.5,22.6H955
	c-0.8,0-1.5-0.3-2.1-0.8c0,0-0.1,0-0.1-0.1c-2.5-2-1.1-6.1,2.1-6.1h4.5c10.8,0,19.6-9,19.3-19.9c-0.3-10.5-9.2-18.7-19.7-18.7h-18.2
	h0c-0.2,0.1-0.4,0.1-0.7,0.1c0.2,0,0.4-0.1,0.6-0.1h-12.3c0.2,0.1,0.4,0.1,0.6,0.1c-0.2-0.1-0.4-0.1-0.7-0.1h0h-14.5
	c-8.6,0-16.3,5.8-18.6,14.1l0,0c-0.5,1.7-0.7,3.5-0.7,5.3c0,1.6,0.2,3.1,0.6,4.6c0,0,10,34.4,50.7,48.8c7.7,2.6,15.8,3.9,24.2,3.9
	c41.6-0.1,75-34.5,75-76.1v-8.3c-0.1,0.1-0.2,0.2-0.3,0.4C1044.5,184.3,1044.4,184.5,1044.2,184.7z M934.6,192.3c-0.5,0-0.9,0-1.4,0
	c0.9,0.1,1.8,0.1,2.7,0C935.5,192.3,935.1,192.3,934.6,192.3z"/>
</svg>
