<svg version="1.1" xmlns="http://www.w3.org/2000/svg" xmlns:xlink="http://www.w3.org/1999/xlink" x="0px" y="0px" viewBox="0 0 1400 700" style="enable-background:new 0 0 1400 700;" xml:space="preserve">
	<path id="icon" style="fill:#A7A7A7;" d="M925.3,322.2c0-122.2-99-221.2-221.2-221.2s-221.2,99.1-221.2,221.2s99,221.2,221.2,221.2
	c13.3,0,26.3-1.2,38.9-3.4l70.8,70.6v-96.2C880.3,476.3,925.3,404.5,925.3,322.2z M566.3,284.7c0-26.5,13.1-48,29.2-48
	s29.2,21.5,29.2,48s-13.1,48-29.2,48S566.3,311.2,566.3,284.7z M599.7,394.7L599.7,394.7h208.7l0,0
	C747.3,443.3,660.8,443.3,599.7,394.7z M812.6,332.7c-16.1,0-29.2-21.5-29.2-48s13.1-48,29.2-48c16.1,0,29.2,21.5,29.2,48
	C841.8,311.2,828.7,332.7,812.6,332.7z"/>
</svg>