<svg version="1.1" xmlns="http://www.w3.org/2000/svg" xmlns:xlink="http://www.w3.org/1999/xlink" x="0px" y="0px"
	 viewBox="0 0 1400 700" style="enable-background:new 0 0 1400 700;" xml:space="preserve">
	<path id="icon" style="fill:#A7A7A7;" d="M927.8,324.8c0-122.6-99.4-221.9-221.9-221.9S484,202.2,484,324.8s99.4,221.9,221.9,221.9
	c18.3,0,36-2.2,53-6.4l65.3,65.1v-92.8C886.5,473.3,927.8,403.9,927.8,324.8z M567.8,287.1c0-26.6,13.1-48.1,29.3-48.1
	s29.3,21.6,29.3,48.1s-13.1,48.1-29.3,48.1C580.9,335.2,567.8,313.7,567.8,287.1z M705.9,493.5c-52.6,0-95.2-42.6-95.2-95.2v-0.7
	h190.4c0,0,0,0.3,0,0.7C801.2,450.8,758.5,493.5,705.9,493.5L705.9,493.5z M814.8,335.2c-16.2,0-29.3-21.6-29.3-48.1
	s13.1-48.1,29.3-48.1s29.3,21.6,29.3,48.1S831,335.2,814.8,335.2z"/>
</svg>
