<svg version="1.1" xmlns="http://www.w3.org/2000/svg" xmlns:xlink="http://www.w3.org/1999/xlink" x="0px" y="0px"
	 viewBox="0 0 1400 700" style="enable-background:new 0 0 1400 700;" xml:space="preserve">
	<path id="icon" style="fill:#A7A7A7;" d="M919.3,321.4c0-121.1-98.2-219.3-219.3-219.3s-219.3,98.2-219.3,219.3S578.9,540.7,700,540.7
	c12.7,0,25.2-1.1,37.3-3.2l71.4,71.2v-96.8C874.8,474.1,919.3,403,919.3,321.4z M807.6,236.6c16,0,29,21.3,29,47.6s-13,47.6-29,47.6
	s-29-21.3-29-47.6C778.6,257.9,791.6,236.6,807.6,236.6z M592.4,331.7c-16,0-29-21.3-29-47.6s13-47.6,29-47.6s29,21.3,29,47.6
	C621.4,310.4,608.4,331.7,592.4,331.7z M843.5,380.9c-34.4,61.7-101.8,97.5-172.2,91.4l-14-1.2l0,0l1.1-0.3l15.3-4
	C735.8,450.7,793.7,421.4,843.5,380.9L843.5,380.9C843.5,380.9,843.5,380.9,843.5,380.9L843.5,380.9z"/>
</svg>
