
<svg version="1.1" xmlns="http://www.w3.org/2000/svg" xmlns:xlink="http://www.w3.org/1999/xlink" x="0px" y="0px" viewBox="0 0 1400 700" style="enable-background:new 0 0 1400 700;" xml:space="preserve">
	<path id="icon" style="fill:#FFFFFF;" d="M1204.21,584.79c1.65,0.69,2.89,1.64,3.7,2.85l-5.16,2.27c-0.35-0.49-0.86-0.88-1.54-1.17
	c-0.68-0.28-1.47-0.42-2.38-0.42c-0.84,0-1.59,0.13-2.25,0.37c-0.66,0.25-1.18,0.6-1.55,1.05c-0.37,0.45-0.56,0.97-0.56,1.55
	s0.18,1.09,0.56,1.54c0.37,0.45,0.89,0.8,1.55,1.04c0.66,0.25,1.41,0.37,2.25,0.37c0.91,0,1.71-0.14,2.38-0.42
	c0.68-0.28,1.19-0.67,1.54-1.16l5.16,2.27c-0.81,1.21-2.05,2.17-3.71,2.86c-1.66,0.7-3.56,1.04-5.71,1.04
	c-2.02,0-3.83-0.32-5.42-0.95c-1.59-0.64-2.82-1.52-3.72-2.67c-0.9-1.14-1.34-2.46-1.34-3.93c0-1.49,0.44-2.8,1.33-3.95
	c0.89-1.14,2.13-2.03,3.72-2.65c1.59-0.63,3.4-0.94,5.43-0.94C1200.65,583.76,1202.56,584.11,1204.21,584.79z M1215.87,593.39h12.07
	v5.14h-17.96v-14.47h5.89V593.39z M1235.3,598.54h-5.91v-14.47h5.91V598.54z M1259.23,598.54h-5.89v-8.04h-0.18l-4.11,8.04h-2.31
	l-4.11-8.04h-0.18v8.04h-5.89v-14.47h8.39l2.96,6l2.96-6h8.39V598.54z M1283.19,598.54h-6.51l-1.07-1.88h-8.04l-1.07,1.88h-6.43
	l8.31-14.47h6.43L1283.19,598.54z M1269.8,592.73h3.58l-1.8-3.04L1269.8,592.73z M1301.79,589.43h-7.23v9.12h-6v-9.12h-7.23v-5.36
	h20.46V589.43z M1323.2,588.08h-14.28v1.34h14.28v3.76h-14.28v1.34h14.28v4.01h-20.17v-14.47h20.17V588.08z M1206.64,613.72
	c-0.77,1.16-1.85,2.05-3.22,2.7c-1.38,0.64-2.94,0.96-4.69,0.96c-1.94,0-3.64-0.32-5.09-0.95c-1.45-0.64-2.56-1.53-3.34-2.69
	c-0.78-1.16-1.17-2.49-1.17-4.01v-0.71h6.01v0.25c0,0.95,0.31,1.7,0.93,2.25c0.62,0.55,1.5,0.83,2.65,0.83
	c0.97,0,1.74-0.28,2.31-0.84c0.58-0.56,0.87-1.31,0.87-2.24v-6.67h5.89v7.13C1207.8,611.23,1207.41,612.56,1206.64,613.72z
	 M1227.1,613.72c-0.81,1.16-1.95,2.05-3.4,2.7c-1.45,0.64-3.11,0.96-4.97,0.96c-1.86,0-3.53-0.32-5-0.96s-2.62-1.54-3.45-2.7
	s-1.24-2.49-1.24-3.99v-7.13h5.91v6.51c0,0.92,0.35,1.67,1.04,2.23c0.69,0.56,1.6,0.85,2.75,0.85c1.13,0,2.05-0.28,2.74-0.85
	c0.7-0.56,1.04-1.31,1.04-2.23v-6.51h5.81v7.13C1228.32,611.23,1227.91,612.56,1227.1,613.72z M1246.32,603.32
	c1.59,0.69,2.63,1.42,3.15,2.19c0.52,0.77,0.78,1.37,0.78,1.8h-7.3c0-0.13-0.08-0.34-0.26-0.6c-0.17-0.26-0.43-0.46-0.78-0.6
	c-0.51-0.2-1.13-0.31-1.86-0.31c-0.91,0-1.61,0.16-2.11,0.47c-0.23,0.18-0.35,0.38-0.35,0.6c0,0.15,0.06,0.28,0.18,0.4
	c0.12,0.11,0.29,0.18,0.53,0.23c0.25,0.04,0.94,0.14,2.07,0.29c1.93,0.25,3.55,0.52,4.87,0.8c1.31,0.28,2.48,0.73,3.49,1.36
	c1.02,0.63,1.52,1.47,1.52,2.51c0,0.88-0.35,1.69-1.05,2.44c-0.71,0.74-1.81,1.34-3.31,1.8c-1.5,0.45-3.39,0.68-5.69,0.68
	c-3.02,0-5.31-0.35-6.89-1.04s-2.6-1.43-3.06-2.18c-0.46-0.75-0.69-1.35-0.69-1.8h7.3c0,0.16,0.11,0.37,0.31,0.62
	s0.59,0.44,1.14,0.58c0.66,0.16,1.28,0.25,1.84,0.25c0.72,0,1.29-0.14,1.71-0.42c0.23-0.18,0.35-0.39,0.35-0.62
	c0-0.16-0.06-0.31-0.18-0.44c-0.12-0.13-0.3-0.2-0.53-0.25c-0.49-0.1-1.26-0.2-2.27-0.33c-1.89-0.25-3.49-0.52-4.78-0.8
	c-1.31-0.28-2.44-0.73-3.42-1.33s-1.47-1.41-1.47-2.42c0-0.88,0.35-1.69,1.05-2.44c0.71-0.74,1.81-1.34,3.31-1.8
	c1.5-0.45,3.39-0.68,5.69-0.68C1242.5,602.29,1244.74,602.64,1246.32,603.32z M1271.96,607.95h-7.23v9.12h-6v-9.12h-7.23v-5.36
	h20.46V607.95z M1279.1,617.07h-5.91v-14.47h5.91V617.07z M1296.96,603.32c1.65,0.69,2.89,1.64,3.7,2.85l-5.16,2.27
	c-0.35-0.49-0.86-0.88-1.54-1.17c-0.68-0.28-1.47-0.42-2.38-0.42c-0.84,0-1.59,0.13-2.25,0.37c-0.66,0.25-1.18,0.6-1.55,1.05
	c-0.37,0.45-0.56,0.97-0.56,1.55c0,0.58,0.18,1.09,0.56,1.54c0.37,0.45,0.89,0.8,1.55,1.04c0.66,0.25,1.41,0.37,2.25,0.37
	c0.91,0,1.71-0.14,2.38-0.42c0.68-0.28,1.19-0.67,1.54-1.16l5.16,2.27c-0.81,1.21-2.05,2.17-3.71,2.86s-3.56,1.04-5.71,1.04
	c-2.03,0-3.83-0.32-5.42-0.95c-1.59-0.64-2.82-1.52-3.72-2.67c-0.9-1.14-1.34-2.46-1.34-3.93c0-1.49,0.44-2.8,1.33-3.95
	c0.89-1.14,2.13-2.03,3.72-2.65c1.59-0.63,3.4-0.94,5.43-0.94C1293.4,602.29,1295.31,602.64,1296.96,603.32z M1322.08,606.61h-14.28
	v1.34h14.28v3.77h-14.28v1.34h14.28v4.01h-20.17v-14.47h20.17V606.61z M1275.87,627.37c-0.01,0.16-0.08,0.38-0.19,0.66
	c-0.13,0.32-0.21,0.54-0.25,0.67c-0.1,0.45-0.16,0.9-0.2,1.33c-0.01,0.07-0.01,0.18-0.01,0.31c0.01,0.18,0.01,0.3,0.01,0.35
	c0,0.4-0.13,0.64-0.4,0.7l-0.18,0.06c-0.08,0.03-0.14,0.04-0.17,0.03c-0.12-0.04-0.3-0.11-0.54-0.21c-0.08-0.05-0.13-0.17-0.14-0.35
	v-0.41c0-0.04,0-0.11-0.01-0.2s-0.01-0.17-0.01-0.21c0-0.03,0.01-0.08,0.03-0.14c0.02-0.06,0.03-0.11,0.03-0.15
	c0-0.06-0.03-0.13-0.08-0.17c-0.08-0.01-0.13-0.01-0.15,0c-0.4,0.23-0.87,0.35-1.43,0.38c-0.55,0.02-1.07-0.05-1.58-0.22
	c-0.52-0.18-0.9-0.42-1.15-0.74c-0.1-0.13-0.18-0.32-0.25-0.59c-0.07-0.27-0.11-0.54-0.11-0.81c0-0.18,0.01-0.35,0.05-0.49
	s0.09-0.35,0.17-0.61c0.02-0.06,0.16-0.3,0.42-0.71c0.13-0.17,0.32-0.42,0.56-0.75c0.1-0.14,0.36-0.4,0.78-0.76
	c0.28-0.25,0.56-0.49,0.85-0.74c0.27-0.24,0.47-0.4,0.62-0.48c0.22-0.13,0.47-0.2,0.77-0.23c0.08-0.01,0.19,0.02,0.34,0.07
	c0.11,0.05,0.23,0.11,0.35,0.15c0.18,0.08,0.35,0.27,0.47,0.56c0.13,0.28,0.18,0.56,0.18,0.85c-0.01,0.32-0.1,0.52-0.28,0.59
	c-0.12,0.05-0.27,0.03-0.45-0.06c-0.06-0.04-0.16-0.18-0.27-0.45c-0.1-0.24-0.2-0.35-0.32-0.35c-0.18,0.01-0.42,0.11-0.73,0.32
	c-0.26,0.18-0.49,0.38-0.71,0.59c-0.56,0.56-0.96,1.01-1.21,1.35c-0.3,0.41-0.5,0.82-0.61,1.23c-0.04,0.12-0.01,0.24,0.06,0.36
	c0.1,0.17,0.28,0.29,0.54,0.36c0.24,0.05,0.48,0.11,0.72,0.15c0.04,0.04,0.11,0.08,0.2,0.12c0.16,0.01,0.31,0.01,0.44,0.01
	c0.9-0.01,1.52-0.2,1.85-0.56c0.05-0.05,0.07-0.11,0.07-0.2c0-0.06-0.03-0.11-0.08-0.13c-0.07,0.01-0.42,0.08-1.04,0.2
	c-0.43,0.09-0.81,0.15-1.14,0.17c-0.08,0.01-0.18-0.06-0.28-0.19c-0.1-0.13-0.16-0.26-0.18-0.4c-0.01-0.05-0.01-0.11-0.01-0.18
	c0-0.41,0.09-0.66,0.28-0.73c0.36-0.16,0.9-0.3,1.61-0.41c0.97-0.16,1.5-0.25,1.62-0.28c0.08-0.01,0.18-0.01,0.3-0.01
	c0.14,0.01,0.24,0.04,0.31,0.09c0.17,0.14,0.31,0.33,0.41,0.59C1275.85,626.94,1275.89,627.16,1275.87,627.37z M1280.93,629.23
	c-0.05,0.1-0.2,0.3-0.45,0.61c-0.05,0.06-0.18,0.09-0.4,0.09c-0.12,0-0.21-0.01-0.29-0.04c-0.07-0.03-0.18-0.13-0.33-0.3
	c-0.1-0.12-0.2-0.24-0.31-0.35c-0.36-0.36-0.67-0.63-0.92-0.8c-0.11-0.06-0.27-0.18-0.48-0.35c-0.05,0.01-0.11,0.05-0.16,0.14
	c-0.04,0.14-0.06,0.25-0.07,0.32c-0.01,0.02,0.01,0.17,0.03,0.44c0.03,0.3,0.04,0.53,0.04,0.68c0,0.16-0.01,0.27-0.04,0.32
	l-0.06,0.12c-0.04,0.06-0.08,0.09-0.12,0.09c-0.27,0.04-0.48,0.02-0.64-0.07c-0.16-0.09-0.29-0.25-0.37-0.48
	c-0.07-0.19-0.11-0.4-0.11-0.61c0-0.15,0.02-0.36,0.06-0.64c0.04-0.28,0.06-0.47,0.06-0.58c0-0.05,0-0.11-0.01-0.15
	c-0.01-0.02-0.04-0.07-0.12-0.15s-0.12-0.14-0.13-0.2c-0.05-0.18-0.08-0.34-0.08-0.47c0-0.26,0.09-0.47,0.27-0.6
	c0.01-0.01,0.08-0.02,0.2-0.04c0.1-0.01,0.17-0.06,0.2-0.15c0.13-0.33,0.21-0.71,0.27-1.15c0.01-0.01-0.01-0.04-0.05-0.07
	l-0.08-0.07c-0.11-0.13-0.18-0.27-0.21-0.41c-0.01-0.05-0.02-0.11-0.02-0.16c0-0.21,0.06-0.42,0.17-0.64
	c0.13-0.25,0.28-0.4,0.47-0.47c0.3-0.11,0.68-0.17,1.12-0.16c0.53,0,0.99,0.28,1.38,0.83c0.36,0.52,0.54,1.06,0.54,1.64
	c0,0.24-0.04,0.45-0.11,0.63c-0.05,0.16-0.14,0.38-0.27,0.67c-0.08,0.11-0.16,0.21-0.23,0.32c-0.13,0.18-0.18,0.28-0.18,0.31
	c0,0.04,0.05,0.11,0.16,0.2c0.09,0.09,0.24,0.2,0.45,0.32c0.26,0.16,0.44,0.28,0.54,0.35c0.25,0.18,0.38,0.43,0.38,0.74
	C1280.99,629.06,1280.97,629.15,1280.93,629.23z M1278.29,624.48c-0.05,0-0.08,0.04-0.08,0.11c0.01,0.11,0.01,0.26,0.01,0.45
	c-0.05,0.26-0.1,0.61-0.15,1.02c0.27-0.05,0.49-0.18,0.66-0.4c0.16-0.19,0.24-0.4,0.24-0.61c0-0.18-0.06-0.32-0.17-0.43
	C1278.67,624.53,1278.51,624.47,1278.29,624.48z M1286.09,624.6c-0.06,0.12-0.18,0.2-0.37,0.25c-0.11,0.02-0.23,0.04-0.35,0.06
	c-0.22,0.08-0.42,0.13-0.59,0.15c-0.21,0.03-0.35,0.05-0.4,0.06c-0.19,0.04-0.38,0.08-0.56,0.13c-0.21,0.05-0.45,0.14-0.71,0.28
	c-0.11,0.05-0.18,0.2-0.2,0.45c0.04,0.06,0.07,0.08,0.11,0.08c0.18,0.01,0.44-0.04,0.78-0.15c0.35-0.11,0.61-0.16,0.78-0.16
	c0.06,0,0.11,0,0.16,0.01c0.2,0.04,0.37,0.21,0.51,0.53c0.11,0.28,0.17,0.54,0.17,0.79c0,0.05-0.01,0.09-0.01,0.12
	c-0.01,0.08-0.16,0.16-0.45,0.24c-0.2,0.05-0.49,0.08-0.88,0.08c-0.3,0.01-0.81,0.1-1.53,0.29c-0.06,0.01-0.09,0.06-0.11,0.15
	c-0.01,0.08-0.01,0.13,0.01,0.16c0.03,0.06,0.09,0.1,0.19,0.11c0.1,0.02,0.16,0.04,0.17,0.05c0.13,0.11,0.26,0.16,0.41,0.16
	c0.11,0,0.27-0.04,0.45-0.12c0.18-0.08,0.31-0.12,0.38-0.12c0.07,0,0.13,0.02,0.17,0.06c0.3,0.29,0.44,0.61,0.44,0.95
	c0,0.16-0.04,0.31-0.11,0.44c-0.18,0.35-0.56,0.52-1.13,0.5c-0.39-0.01-0.73-0.1-1.03-0.28c-0.16-0.05-0.39-0.15-0.69-0.31
	c-0.16-0.12-0.3-0.32-0.43-0.61c-0.11-0.26-0.18-0.52-0.2-0.75c-0.01-0.08-0.01-0.17-0.01-0.26c0-0.47,0.16-1.1,0.49-1.9
	c0.13,0.03,0.18-0.04,0.18-0.2c0-0.08-0.02-0.14-0.06-0.17c-0.06,0-0.12-0.01-0.19-0.02c-0.21-0.22-0.32-0.5-0.32-0.85
	c0-0.32,0.09-0.56,0.28-0.73c0.06-0.05,0.14-0.09,0.26-0.12c0.09-0.02,0.18-0.04,0.28-0.06c0.06-0.04,0.15-0.09,0.27-0.14
	c0.85-0.25,1.78-0.47,2.79-0.65c0.05-0.01,0.1-0.01,0.14-0.01c0.3,0,0.53,0.18,0.66,0.56c0,0.01,0.06,0.13,0.16,0.4
	c0.06,0.16,0.1,0.28,0.1,0.37C1286.12,624.51,1286.11,624.56,1286.09,624.6z M1291.07,624.06c0.02,0.04,0.03,0.11,0.03,0.18
	c0,0.16-0.04,0.31-0.11,0.47c-0.22,0.05-0.71,0.11-1.47,0.18c-0.53,0.05-0.99,0.17-1.4,0.36c-0.03,0.01-0.06,0.07-0.11,0.17
	c-0.06,0.14-0.1,0.22-0.1,0.23c-0.03,0.04-0.08,0.11-0.15,0.2c0.08,0.04,0.19,0.06,0.31,0.06c0.13,0,0.28-0.02,0.48-0.07
	c0.15-0.04,0.3-0.08,0.45-0.11c0.06-0.01,0.13-0.04,0.22-0.09c0.12-0.07,0.2-0.11,0.23-0.13c0.02-0.01,0.04-0.01,0.06-0.01
	c0.08,0,0.18,0.04,0.3,0.1c0.11,0.06,0.19,0.13,0.23,0.22c0.15,0.28,0.23,0.49,0.26,0.63c0.05,0.32,0.03,0.52-0.07,0.59
	c-0.15,0.11-0.39,0.21-0.73,0.31c-0.34,0.1-0.61,0.14-0.82,0.13c-0.02,0-0.06,0.02-0.13,0.06s-0.11,0.06-0.13,0.06
	c-0.27,0.04-0.67,0.1-1.2,0.17c-0.06,0.01-0.11,0.04-0.16,0.09c-0.05,0.05-0.07,0.11-0.07,0.15c0,0.03,0.01,0.05,0.03,0.07
	c0.18,0.16,0.46,0.24,0.83,0.24c0.49,0,0.83-0.11,1.01-0.33c0.02-0.02,0.05-0.04,0.08-0.04c0.04-0.01,0.07,0,0.09,0.01
	c0.17,0.12,0.31,0.3,0.4,0.52c0.1,0.23,0.14,0.46,0.13,0.68c-0.04,0.53-0.32,0.83-0.83,0.89c-0.11,0.02-0.27,0.05-0.49,0.08
	c-0.23,0.02-0.56-0.02-1-0.13c-0.47-0.12-0.75-0.25-0.85-0.37c-0.11-0.15-0.25-0.37-0.4-0.65c-0.2-0.39-0.3-0.69-0.3-0.92
	c-0.01-0.11,0.02-0.29,0.08-0.56c0.04-0.2,0.08-0.4,0.11-0.59c0.05-0.28,0.12-0.54,0.2-0.78c0.04-0.13,0.18-0.44,0.42-0.93
	c0.01-0.04,0.04-0.2,0.06-0.49c0.02-0.29,0.06-0.49,0.09-0.6c0.04-0.1,0.13-0.17,0.28-0.23c0.12-0.04,0.24-0.08,0.37-0.13
	c0.16-0.09,0.3-0.14,0.4-0.16c0.08-0.01,0.18-0.01,0.27-0.01c0.11-0.01,0.49-0.1,1.14-0.26c0.53-0.13,0.91-0.18,1.14-0.16
	c0.26,0.03,0.43,0.11,0.51,0.26C1290.8,623.58,1290.92,623.78,1291.07,624.06z M1301.76,624.98c0.01,0.29-0.11,0.59-0.37,0.91
	c-0.2,0.25-0.43,0.47-0.71,0.66c-0.23,0.16-0.61,0.32-1.14,0.49l-0.54,0.18c-0.06,0.02-0.13,0.23-0.19,0.62
	c-0.06,0.35-0.09,0.6-0.09,0.76v0.99c-0.02,0.11-0.05,0.21-0.08,0.32c-0.04,0.14-0.12,0.24-0.24,0.3c-0.12,0.06-0.25,0.07-0.38,0.03
	c-0.11-0.04-0.18-0.06-0.23-0.07c-0.08-0.04-0.14-0.08-0.18-0.12c-0.18-0.2-0.27-0.49-0.27-0.84c0-0.14,0.02-0.35,0.06-0.63
	c0.04-0.28,0.06-0.48,0.06-0.61c0-0.1-0.01-0.19-0.02-0.27c-0.01-0.02-0.08-0.1-0.22-0.23c-0.18-0.16-0.3-0.27-0.35-0.32
	c-0.11-0.12-0.16-0.29-0.16-0.51c0-0.18,0.04-0.37,0.1-0.56c0.01-0.04,0.06-0.11,0.15-0.21c0.08-0.11,0.16-0.16,0.2-0.17
	c0.07-0.01,0.18-0.04,0.32-0.07c0.07-0.04,0.11-0.09,0.11-0.16c0.04-0.45,0.06-0.7,0.06-0.75c0-0.06-0.04-0.08-0.11-0.08
	c-0.28,0-0.51,0.05-0.71,0.16c-0.28,0.14-0.48,0.21-0.61,0.21c-0.05,0-0.09-0.01-0.13-0.01c-0.04-0.01-0.11-0.05-0.2-0.11
	c-0.1-0.06-0.16-0.1-0.2-0.08c-0.08,0.09-0.11,0.16-0.1,0.21c0.07,0.23,0.11,0.44,0.11,0.64c0,0.05-0.01,0.16-0.02,0.35
	c-0.01,0.16-0.01,0.29,0,0.42c0.01,0.2-0.01,0.48-0.04,0.83c-0.03,0.3-0.06,0.6-0.09,0.9c-0.01,0.04,0.01,0.12,0.04,0.23
	c0.03,0.11,0.05,0.18,0.06,0.19c0.02,0.3,0.02,0.56,0,0.75c-0.03,0.2-0.05,0.32-0.06,0.36c-0.04,0.18-0.13,0.34-0.25,0.47
	c-0.06,0.08-0.23,0.11-0.52,0.11c-0.18,0-0.31-0.02-0.37-0.06c-0.21-0.14-0.37-0.42-0.46-0.85c-0.1-0.47-0.22-0.78-0.37-0.93
	c-0.07-0.08-0.24-0.35-0.5-0.8c-0.04-0.08-0.08-0.17-0.13-0.26c-0.06-0.12-0.14-0.22-0.25-0.29c-0.11,0.05-0.26,0.52-0.43,1.43
	c0,0.01-0.03,0.21-0.08,0.61c-0.04,0.24-0.08,0.42-0.13,0.52c-0.1,0.18-0.26,0.25-0.47,0.23c-0.52-0.09-0.78-0.42-0.78-0.99
	c0-0.18,0.03-0.43,0.09-0.74c0.08-0.38,0.16-0.75,0.25-1.14c0.08-0.45,0.14-0.86,0.16-1.23c0.04-0.62,0.06-0.94,0.06-0.96
	c0-0.01-0.01-0.05-0.05-0.1c-0.03-0.05-0.05-0.09-0.05-0.12c0-0.49,0.01-0.8,0.03-0.95c0.01-0.15,0.1-0.29,0.25-0.43
	c0.15-0.14,0.3-0.22,0.46-0.22c0.06,0,0.13,0.01,0.18,0.04c0.01,0.01,0.09,0.02,0.24,0.05c0.12,0.02,0.2,0.06,0.25,0.1
	c0.14,0.13,0.23,0.37,0.25,0.72c0.02,0.28,0.04,0.56,0.05,0.85c0.04,0.21,0.13,0.43,0.29,0.64c0.14,0.18,0.28,0.35,0.42,0.53
	c0.09,0.14,0.18,0.28,0.28,0.41c0.13,0.18,0.23,0.27,0.3,0.25c0.01-0.07,0.02-0.23,0.06-0.45c0.04-0.21,0.05-0.32,0.05-0.35v-0.95
	c0-0.01,0.01-0.09,0.03-0.25c0.02-0.16,0.03-0.28,0.04-0.36c0.01-0.17,0.04-0.44,0.07-0.83c0.01-0.08,0.06-0.16,0.13-0.2
	c0.07-0.05,0.15-0.08,0.24-0.08c0.18,0,0.35,0.08,0.51,0.24s0.25,0.32,0.25,0.49c0.06-0.08,0.2-0.2,0.4-0.35
	c0.02-0.01,0.15-0.06,0.37-0.15c0.23-0.08,0.35-0.13,0.37-0.13c0.21-0.04,0.33-0.06,0.37-0.06c0.13,0,0.23,0.04,0.32,0.11
	c0.09-0.06,0.18-0.11,0.27-0.17c0.11-0.07,0.2-0.11,0.28-0.11c0.04,0,0.11,0.01,0.22,0.04s0.18,0.04,0.25,0.04
	c0.18-0.01,0.4-0.02,0.68-0.03c0.37-0.01,0.8,0.02,1.3,0.09c0.04,0.01,0.13,0.04,0.27,0.08c0.13,0.04,0.21,0.08,0.25,0.1
	c0.22,0.16,0.4,0.4,0.55,0.71C1301.66,624.34,1301.74,624.66,1301.76,624.98z M1300.26,624.8c0.02-0.15-0.16-0.25-0.55-0.3
	c-0.26-0.01-0.52-0.03-0.78-0.05c-0.11-0.01-0.17,0.03-0.19,0.12c0.03,0.21,0.08,0.5,0.16,0.85c0.02,0.06,0.08,0.1,0.18,0.1
	c0.16,0,0.41-0.09,0.74-0.28C1300.1,625.09,1300.25,624.95,1300.26,624.8z M1307.06,623.99c0.01,0.18,0.02,0.26,0.02,0.23
	c0,0.17-0.06,0.3-0.2,0.4c-0.09,0.06-0.48,0.17-1.18,0.3c-0.3,0.05-0.6,0.1-0.9,0.14c-0.33,0.06-0.77,0.18-1.31,0.37
	c-0.09,0.04-0.18,0.13-0.28,0.3c-0.09,0.16-0.15,0.3-0.16,0.4c0.06,0.07,0.17,0.11,0.33,0.11c0.06,0,0.26-0.03,0.61-0.08
	c0.39-0.05,0.66-0.11,0.83-0.18c0.17-0.09,0.35-0.18,0.52-0.27c0.14,0.05,0.26,0.2,0.37,0.44s0.16,0.47,0.16,0.7
	c0,0.25-0.08,0.42-0.25,0.54c-0.13,0.09-0.32,0.15-0.57,0.18c-0.2,0.02-0.41,0.04-0.61,0.06c-0.28,0.06-0.69,0.13-1.25,0.23
	c-0.13,0.01-0.27,0.01-0.41,0.02c-0.16,0.01-0.29,0.05-0.38,0.1c-0.09,0.05-0.14,0.12-0.14,0.2c0,0.02,0.01,0.04,0.01,0.06
	c0.18,0.26,0.43,0.39,0.73,0.39c0.21,0,0.43-0.06,0.66-0.18c0.04-0.01,0.2-0.07,0.47-0.17c0.21-0.08,0.34-0.11,0.4-0.11
	c0.01,0,0.02,0,0.03,0.01c0.28,0.23,0.42,0.55,0.42,0.95c0,0.25-0.06,0.45-0.18,0.63c-0.14,0.2-0.35,0.33-0.61,0.39
	c-0.05,0.04-0.15,0.08-0.29,0.14c-0.13,0.04-0.33,0.06-0.61,0.06c-0.88-0.03-1.53-0.33-1.95-0.91c-0.23-0.33-0.35-0.75-0.35-1.24
	c0-0.26,0.03-0.52,0.09-0.79c0.11-0.43,0.28-0.88,0.52-1.35c0.24-0.47,0.49-0.95,0.73-1.42c0.02-0.04,0.05-0.16,0.1-0.37
	c0.04-0.16,0.11-0.29,0.19-0.38c0.08-0.09,0.24-0.17,0.47-0.23c0.2-0.05,0.4-0.09,0.59-0.13c0.59-0.13,1.43-0.34,2.5-0.62
	c0.05-0.02,0.13-0.01,0.27,0.03c0.15,0.04,0.24,0.1,0.28,0.16c0.06,0.15,0.15,0.35,0.27,0.61
	C1307.02,623.74,1307.04,623.85,1307.06,623.99z M1323.1,624.89c-0.01,0.03-0.05,0.04-0.11,0.04c-0.08,0-0.27-0.05-0.57-0.15
	c-0.01-0.01-0.08,0.01-0.2,0.04c-0.15,0.04-0.28,0.06-0.4,0.08c-0.27,0.04-0.58,0.05-0.93,0.06c-0.66,0-1.16,0.04-1.49,0.12
	c-0.3,0.05-0.6,0.11-0.9,0.15c-0.37,0.1-0.55,0.29-0.55,0.57c0,0.06,0.01,0.13,0.02,0.2c0.33,0,0.66,0,0.99,0
	c0.4-0.01,0.71-0.06,0.97-0.15c0.04-0.01,0.11,0.02,0.21,0.11c0.21,0.19,0.37,0.42,0.46,0.67c0.06,0.16,0.08,0.3,0.06,0.43
	c-0.01,0.1-0.03,0.2-0.04,0.3c-0.02,0.14-0.06,0.24-0.12,0.31c-0.06,0.06-0.16,0.13-0.31,0.18c-0.2,0.06-0.32,0.11-0.37,0.14
	c0.01,0.03,0.07,0.08,0.16,0.17c0.1,0.08,0.16,0.16,0.17,0.23c0.02,0.08,0.04,0.18,0.04,0.31c0,0.32-0.06,0.56-0.2,0.73
	c-0.1,0.13-0.29,0.22-0.58,0.28c-0.26,0.05-0.52,0.1-0.78,0.14c-0.01,0-0.04,0.01-0.12,0.04s-0.13,0.04-0.18,0.04
	c-0.4,0-0.78-0.06-1.14-0.18c-0.47-0.16-0.79-0.39-0.99-0.7c-0.08-0.13-0.14-0.19-0.18-0.19c-0.02,0-0.04,0.01-0.06,0.02
	c-0.11,0.2-0.23,0.4-0.34,0.6c-0.18,0.29-0.37,0.47-0.55,0.55c-0.13,0.05-0.28,0.08-0.47,0.08c-0.41,0-0.92-0.13-1.56-0.39
	c-0.44-0.18-0.86-0.43-1.28-0.77c-0.4-0.32-0.68-0.61-0.82-0.87c-0.06-0.08-0.16-0.19-0.28-0.34c-0.03,0-0.06,0.01-0.08,0.04
	c-0.06,0.16-0.08,0.35-0.08,0.54c0,0.1,0.01,0.23,0.03,0.42c0.01,0.18,0.03,0.32,0.03,0.41c0,0.23-0.04,0.42-0.11,0.59
	c-0.1,0.22-0.2,0.33-0.32,0.35c-0.44,0.05-0.73-0.16-0.86-0.65c-0.05-0.19-0.08-0.61-0.09-1.24c0-0.08-0.04-0.12-0.13-0.13
	c-0.06-0.01-0.15-0.02-0.25-0.02c-0.23,0-0.48,0.03-0.76,0.08c-0.28,0.05-0.49,0.11-0.63,0.18c-0.04,0.06-0.08,0.14-0.13,0.24
	c-0.06,0.1-0.16,0.3-0.3,0.62c-0.2,0.47-0.41,0.74-0.61,0.82c-0.14-0.06-0.35-0.17-0.61-0.31c-0.03-0.01-0.07-0.11-0.12-0.3
	c-0.04-0.13-0.06-0.26-0.06-0.39c0-0.25,0.07-0.46,0.2-0.63c0.18-0.23,0.33-0.52,0.44-0.87c0.2-0.6,0.31-0.92,0.33-0.97
	c0.01-0.02,0.05-0.06,0.13-0.13c0.07-0.06,0.12-0.11,0.15-0.14c0.05-0.06,0.13-0.18,0.21-0.35c0.28-0.53,0.55-1.06,0.83-1.59
	c0.39-0.67,0.78-1.11,1.16-1.31c0.05-0.03,0.12-0.04,0.23-0.04c0.14,0,0.25,0.04,0.32,0.1c0.37,0.33,0.64,0.8,0.81,1.43
	c0.1,0.36,0.18,0.86,0.23,1.49c0.1,0,0.21-0.11,0.34-0.32c0.17-0.3,0.26-0.47,0.29-0.49c0.42-0.48,0.95-0.87,1.59-1.16
	c0.62-0.29,1.22-0.43,1.81-0.43c0.18,0,0.35,0.01,0.52,0.04c0.11,0.02,0.23,0.11,0.37,0.28c0.15,0.16,0.24,0.32,0.29,0.47
	c0.1,0.28,0.14,0.59,0.14,0.92c0,0.13-0.01,0.24-0.04,0.33c-0.04,0.17-0.13,0.34-0.25,0.5c-0.13,0.18-0.28,0.3-0.42,0.35
	c-0.04,0.01-0.08,0.02-0.12,0.02c-0.16,0-0.33-0.04-0.53-0.13c-0.2-0.08-0.31-0.18-0.34-0.27c-0.09-0.25-0.11-0.47-0.06-0.68
	c0.01-0.01,0.02-0.06,0.06-0.15c0.02-0.06,0.04-0.11,0.04-0.15c0-0.06-0.02-0.11-0.06-0.15c-0.47-0.05-0.96,0.16-1.47,0.64
	c-0.52,0.48-0.75,0.95-0.74,1.4c0.01,0.13,0.2,0.32,0.57,0.57c0.2,0.14,0.45,0.27,0.75,0.38c0.35,0.13,0.64,0.19,0.89,0.19
	c0.25,0,0.54-0.11,0.87-0.32c0.15-0.09,0.28-0.16,0.37-0.18c0.08,0.08,0.2,0.18,0.35,0.31c0.06-0.04,0.1-0.16,0.1-0.35
	c0.01-0.25,0.01-0.39,0.03-0.44c0.05-0.2,0.14-0.51,0.28-0.92c0.1-0.23,0.25-0.57,0.43-1.02c0-0.12,0.01-0.28,0.01-0.47
	c0.04-0.2,0.11-0.4,0.21-0.56c0.11-0.17,0.32-0.3,0.64-0.4c0.09-0.03,0.29-0.06,0.6-0.08c0.42-0.04,0.68-0.07,0.79-0.08
	c0.29-0.05,0.58-0.11,0.87-0.16c0.38-0.06,0.7-0.1,0.94-0.09c0.05,0,0.14-0.03,0.28-0.08c0.16-0.06,0.27-0.1,0.33-0.11
	c0.02-0.01,0.17-0.04,0.44-0.11c0.18-0.05,0.33-0.07,0.44-0.07c0.31,0,0.56,0.15,0.74,0.45c0.16,0.26,0.24,0.56,0.24,0.89
	C1323.2,624.6,1323.17,624.76,1323.1,624.89z M1309.29,625.48c0-0.05-0.01-0.18-0.04-0.37c-0.01-0.04-0.04-0.07-0.08-0.11
	c-0.05-0.04-0.1-0.06-0.15-0.06c-0.12,0.23-0.24,0.45-0.36,0.68c-0.16,0.29-0.23,0.5-0.23,0.64c0.29,0,0.44,0,0.43,0
	c0.16-0.01,0.26-0.04,0.32-0.08C1309.23,626.14,1309.27,625.9,1309.29,625.48z M1319.52,627.96c-0.38-0.04-0.64-0.05-0.79-0.05
	h-0.74c-0.1-0.01-0.25-0.01-0.44-0.01c-0.18,0.01-0.26,0.09-0.25,0.24c0.3,0.13,0.55,0.19,0.76,0.19c0.15,0,0.3-0.03,0.45-0.09
	c0.07-0.03,0.16-0.04,0.26-0.02c0.11,0.01,0.19,0.01,0.27,0C1319.16,628.18,1319.32,628.1,1319.52,627.96z"/>
</svg>
