<svg version="1.1" xmlns="http://www.w3.org/2000/svg" xmlns:xlink="http://www.w3.org/1999/xlink" x="0px" y="0px" viewBox="0 0 1400 700" style="enable-background:new 0 0 1400 700;" xml:space="preserve">
	<path id="icon" style="fill:#A7A7A7;" d="M816.4,204.8L816.4,204.8c-0.2,7.9-0.8,15.8-2,23.4c-7.1,45.7-33.3,85.7-70.9,112.7
	c11.6-22.6,18-47.8,18-74.5c0-24.4-5.4-47.7-15.2-68.8c-17.8-38.2-49.9-69.3-90-87.5l-0.1,0.1c14.6,23.9,23.3,51.4,24.2,80.6
	c0.1,1.7,0.1,3.4,0.1,5c0,48.8-21.7,92.9-56.6,124.5c-3.7,3.4-7.6,6.6-11.6,9.7c0,0,32.9-70.4,6.6-128.4c-5.3-11.7-13.1-23-24.1-33
	c0,95.3-94.7,133.9-84.6,223.1c1.9,16.5,6.4,36.3,19.6,54.3c4.3,5.9,9.4,11.7,15.2,17.2c36.1,35.8,84.3,58.5,144.5,58.5
	c7.3,0,14.6-0.3,21.7-1l12.8,12.8l56.8,56.7v-73v-1v-13.4c30.8-13.6,56.8-33.8,75.2-58.5c21.8-28.4,34.7-63.2,34.7-100.8
	C890.6,286.8,861.5,236.6,816.4,204.8z M780.7,501.9l-0.4,0.1l0.4-0.2V501.9z"/>
</svg>
