<svg version="1.1" xmlns="http://www.w3.org/2000/svg" xmlns:xlink="http://www.w3.org/1999/xlink" x="0px" y="0px" viewBox="0 0 1400 700" style="enable-background:new 0 0 1400 700;" xml:space="preserve">
	<path id="icon" style="fill:#A7A7A7;" d="M833,438.7l43.4,13.3c-11.4,16-24.6,30.1-39.2,42V590l-61-60.8
	c-46.7,17.5-99.3,18.9-148.4,1.5l39.7-57.4l5.7-87l35.6-64.3c6.4-11.5,19.2-17.7,32.2-15.5l14.1,2.3L833,438.7z M570.3,208.8
	l45.7,52.6l83.9,10c23.4,2.8,44.9-13.1,49-36.3v0c0.6-3.2,2.1-6,4.5-8.2l44.4-41.3l15.7-39.6c0.4-1,0.9-2,1.5-2.8
	c-3.3-2.1-6.7-4.1-10.2-6c-97.1-53.8-217.7-25-280.8,63.2l36.4,3.5C564.3,204.2,567.8,206,570.3,208.8z M646.7,373.5
	c0.1-2.6,1-5.2,2.4-7.4l24.6-37.4c9.3-14.2,1-33.2-15.7-36l-51.3-8.5L551,234.8l-44-6.2c-52.6,103.4-14.1,230.7,88.2,287.4
	c1.3,0.7,2.5,1.4,3.8,2c0.4-0.9,0.9-1.7,1.5-2.5l42.1-55.5L646.7,373.5z M840.3,161.6l-16.7,41.6L775,238.3l-5.3,29.1
	c-1.7,9.3,0.8,18.7,6,26.5c0,0,0,0.1,0.1,0.1l80.5,123.3l32.1,6.6c1.5,0.3,2.9,0.8,4.2,1.6C939.2,334.9,915.7,225.6,840.3,161.6z"/>
</svg>
