<svg version="1.1" xmlns="http://www.w3.org/2000/svg" xmlns:xlink="http://www.w3.org/1999/xlink" x="0px" y="0px" viewBox="0 0 1400 700" style="enable-background:new 0 0 1400 700;" xml:space="preserve">
	<path id="icon" style="fill:#A7A7A7;" d="M450.9,481.1V314.4c33.4,0,69.2-33.6,69.2-33.6c35.3-35.3,52.9-88.5,109.2-134.8
		c13.3-11,42.1-34.2,83.9-35.8c12.2-0.5,46.5-1.2,74,22.3c28.1,24.1,36.2,67.9,24.7,107.8c0.5-40.2-24.5-74.8-59.2-84.6
		c-39-11-73.6,14.2-89.9,35.3c-32.1,41.5-14.6,93.7-11.4,103.3c21.3,63.5,86.6,87,97.6,89.3c121.8,25.8,197.7-66.1,200.1-69.2v166.7
		c0,17-13.8,30.7-30.7,30.7h-36.7l-0.1,78.1l-78.1-78.1H481.6C464.6,511.9,450.9,498.1,450.9,481.1z"/>
</svg>
