<svg version="1.1" xmlns="http://www.w3.org/2000/svg" xmlns:xlink="http://www.w3.org/1999/xlink" x="0px" y="0px" viewBox="0 0 1400 700" style="enable-background:new 0 0 1400 700;" xml:space="preserve">
	<polygon id="icon" style="fill:#A7A7A7;" points="723.4,514.7 809,600 809,479.3 867.7,504.8 842.1,446.2 905.4,455.7 865.6,405.7 
	929.1,398.5 877.6,360.5 937.1,337.1 877.6,313.7 929.1,275.8 865.6,268.6 905.4,218.5 842.1,228.1 867.7,169.5 809,195 
	818.6,131.8 768.6,171.6 761.4,108 723.4,159.5 700,100 676.6,159.5 638.6,108 631.4,171.6 581.4,131.7 591,195 532.3,169.5 
	557.9,228.1 494.6,218.5 534.4,268.6 470.9,275.8 522.4,313.7 462.9,337.1 522.4,360.5 470.9,398.5 534.4,405.7 494.6,455.7 
	557.9,446.2 532.3,504.8 591,479.3 581.4,542.5 631.4,502.7 638.6,566.2 676.6,514.7 700,574.2 "/>
</svg>
