<svg version="1.1" xmlns="http://www.w3.org/2000/svg" xmlns:xlink="http://www.w3.org/1999/xlink" x="0px" y="0px" viewBox="0 0 1400 700" style="enable-background:new 0 0 1400 700;" xml:space="preserve">
	<path id="icon" style="fill:#A7A7A7;" d="M874.4,199.3c-54-77-153.2-105.5-236.9-80.3C538.6,148.7,502.4,241,499.3,249.3
	c-27.7,74.6-4.2,139.7,2.2,156c1.8-18.7,12.9-82.4,64.7-130c17.1-15.8,70.6-47.9,121.1-29.9c94.4,33.5,74.5,176.3-11.3,176.3
	c-36,0-65.1-29.2-65.1-65.1c0-29.4,19.5-54.3,46.4-62.4c5.9-1.8,12.2-2.8,18.8-2.8c22.6,0,42.6,11.5,54.2,29.1
	c-10.2-17.4-26.1-30.5-45.1-35.8c-10.3-2.9-20.2-3.2-29.6-1.6c-24.9,4.1-45.7,20.9-57.1,35.7c-17.8,23-19.8,49.3-17.7,69.4
	c1.6,14.8,5.4,26.2,6.7,30.2c20.6,61.2,83.8,82.8,94.1,86.1c16.4,5.3,33.8,7.5,51.2,7l78.7,78.7v-99c24.2-12.1,46.1-29.2,63-50.2
	C931.4,370,922.4,267.8,874.4,199.3z"/>
</svg>
